<svg xmlns="http://www.w3.org/2000/svg" viewBox="0 0 115.8 141.238">
  <defs>
    <style>
      .cls-1 {
        fill: #f47b3b;
      }
    </style>
  </defs>
  <g id="Advanced_automation" data-name="Advanced automation" transform="translate(0.1 0.038)">
    <path id="Path_3429" data-name="Path 3429" class="cls-1" d="M89.7,49.7a10.491,10.491,0,0,1,8.9-7.5A38.552,38.552,0,0,0,97,29.5a11.781,11.781,0,0,1-4.2-.2A10.175,10.175,0,0,1,87.6,13,41.085,41.085,0,0,0,77.5,5.1,10.3,10.3,0,0,1,66.6,8.9,10.374,10.374,0,0,1,59.1,0,38.552,38.552,0,0,0,46.4,1.6,10.162,10.162,0,0,1,41.3,12a10.636,10.636,0,0,1-7.8,1,9.291,9.291,0,0,1-3.8-2,41.085,41.085,0,0,0-7.9,10.1A10.08,10.08,0,0,1,25.6,32a10.486,10.486,0,0,1-8.8,7.5,38.552,38.552,0,0,0,1.6,12.7,9.872,9.872,0,0,1,4.2.3,10.163,10.163,0,0,1,6.2,4.8,10.268,10.268,0,0,1-1,11.5,41.085,41.085,0,0,0,10.1,7.9,10.149,10.149,0,0,1,18.3,5,38.552,38.552,0,0,0,12.7-1.6A10.314,10.314,0,0,1,81.8,68.7a10.457,10.457,0,0,1,3.8,1.9,41.085,41.085,0,0,0,7.9-10.1,10.032,10.032,0,0,1-3.8-10.8ZM53.5,56.9A16.594,16.594,0,1,1,73.9,45.3,16.65,16.65,0,0,1,53.5,56.9Z"/>
    <path id="Path_3430" data-name="Path 3430" class="cls-1" d="M54.3,89.6A8.5,8.5,0,0,1,53.2,80a33.667,33.667,0,0,0-9.5-4.7,7.4,7.4,0,0,1-2.1,2.8,8.822,8.822,0,0,1-6.2,2.1,8.6,8.6,0,0,1-7.6-6,33.472,33.472,0,0,0-10.1,3.4,8.435,8.435,0,0,1-2.4,9.3A8.674,8.674,0,0,1,5.7,88,33.667,33.667,0,0,0,1,97.5a8.411,8.411,0,0,1,4.9,8.3A8.778,8.778,0,0,1,3,111.6a7.26,7.26,0,0,1-3.1,1.7,33.472,33.472,0,0,0,3.4,10.1,8.311,8.311,0,0,1,9.3,2.4,8.5,8.5,0,0,1,1.1,9.6,33.667,33.667,0,0,0,9.5,4.7,8.26,8.26,0,0,1,2.1-2.8,8.822,8.822,0,0,1,6.2-2.1,8.36,8.36,0,0,1,7.5,6,33.472,33.472,0,0,0,10.1-3.4,8.478,8.478,0,0,1,2.4-9.3,8.357,8.357,0,0,1,9.5-1.1,33.667,33.667,0,0,0,4.7-9.5,8.56,8.56,0,0,1-4.9-8.3,8.362,8.362,0,0,1,2.9-5.8,7.26,7.26,0,0,1,3.1-1.7A33.472,33.472,0,0,0,63.4,92a8.425,8.425,0,0,1-9.1-2.4ZM42.7,118A13.749,13.749,0,1,1,44,98.5,13.763,13.763,0,0,1,42.7,118Z"/>
    <path id="Path_3431" data-name="Path 3431" class="cls-1" d="M111.2,99.5a6.2,6.2,0,0,1,4.5-5.5,23.8,23.8,0,0,0-2.4-7.4,5.66,5.66,0,0,1-2.6.3,6.027,6.027,0,0,1-4.2-2.2,6.222,6.222,0,0,1-.7-7,28.293,28.293,0,0,0-6.9-3.6,6.2,6.2,0,0,1-6.1,3.5,6.337,6.337,0,0,1-5.5-4.5,23.8,23.8,0,0,0-7.4,2.4,6.231,6.231,0,0,1-6.3,8.3,7.172,7.172,0,0,1-2.5-.7,24.183,24.183,0,0,0-3.5,7,6.252,6.252,0,0,1-.9,11.6,23.8,23.8,0,0,0,2.4,7.4,5.66,5.66,0,0,1,2.6-.3,6.027,6.027,0,0,1,4.2,2.2,6.222,6.222,0,0,1,.7,7,28.293,28.293,0,0,0,6.9,3.6,6.252,6.252,0,0,1,11.6.9,23.8,23.8,0,0,0,7.4-2.4,6.231,6.231,0,0,1,6.3-8.3,7.172,7.172,0,0,1,2.5.7,28.293,28.293,0,0,0,3.6-6.9,6.216,6.216,0,0,1-3.7-6.1Zm-20.8,8.4a10.132,10.132,0,1,1,10.9-9.3A10.108,10.108,0,0,1,90.4,107.9Z"/>
  </g>
</svg>
