<svg xmlns="http://www.w3.org/2000/svg" viewBox="0 0 40 40">
  <defs>
    <style>
      .cls-1 {
        fill: #f77b39;
      }
    </style>
  </defs>
  <g id="international-e-commerce_flaticon" transform="translate(-14.699 -8)">
    <g id="Group_2054" data-name="Group 2054" transform="translate(14.699 8)">
      <path id="Path_3506" data-name="Path 3506" class="cls-1" d="M9.812,16.493l.322,1.249,3.544,13.735H34.8l.525-2.774q.664-.208,1.312-.478a14.8,14.8,0,0,0,4.717-3.148,14.632,14.632,0,0,0,3.18-4.669,14.6,14.6,0,0,0,0-11.437A14.632,14.632,0,0,0,41.352,4.3,14.866,14.866,0,0,0,30.978,0H30.74A14.866,14.866,0,0,0,20.365,4.3a14.633,14.633,0,0,0-3.18,4.669,14.472,14.472,0,0,0-1.167,5.718,14.625,14.625,0,0,0,.247,2.683H12.8l-.911-3.533H5.7v1.326h0v1.326H9.812Zm8.958-.477h3.782q.033.685.1,1.355H19A11.946,11.946,0,0,1,18.77,16.016Zm2.248-8.4a17.591,17.591,0,0,0,2.249.893,24.532,24.532,0,0,0-.715,4.859H18.77A11.844,11.844,0,0,1,21.018,7.613Zm3.971-3.472q-.137.238-.269.489-.339.647-.629,1.357-.6-.2-1.163-.426A12.158,12.158,0,0,1,24.989,4.141Zm13.8,1.425q-.56.231-1.166.426Q37.337,5.281,37,4.63q-.131-.251-.269-.489A12.151,12.151,0,0,1,38.794,5.566Zm4.153,7.8H39.165a24.539,24.539,0,0,0-.713-4.854A17.619,17.619,0,0,0,40.7,7.619,11.845,11.845,0,0,1,42.947,13.365ZM40.675,21.8a17.486,17.486,0,0,0-2.235-.884,24.508,24.508,0,0,0,.726-4.9h3.783A11.845,11.845,0,0,1,40.675,21.8Zm-15.44-5.786H29.52v1.353H25.346Q25.271,16.7,25.234,16.016Zm.625-6.85A26.089,26.089,0,0,0,29.52,9.6v3.762H25.234A21.776,21.776,0,0,1,25.859,9.166Zm10.625,4.2H32.2V9.6a26.1,26.1,0,0,0,3.662-.434A21.774,21.774,0,0,1,36.483,13.365Zm-.111,4H32.2V16.016h4.285Q36.447,16.7,36.372,17.366ZM35,6.635a23.549,23.549,0,0,1-2.8.315V3.036A6.793,6.793,0,0,1,34.619,5.85Q34.818,6.229,35,6.635Zm-5.476-3.6V6.948a23.536,23.536,0,0,1-2.8-.316q.178-.4.375-.782A6.793,6.793,0,0,1,29.52,3.036Zm7.209,22.2Q36.866,25,37,24.75q.328-.627.61-1.313.592.19,1.141.414A12.141,12.141,0,0,1,36.728,25.239ZM18.477,20.024H34.244l-.493,2.6-.556,2.938-.186.985-.185.978-.076.4-.171.9H15.759l-2.271-8.8h4.989Z" transform="translate(-5.699)"/>
      <path id="Path_3507" data-name="Path 3507" class="cls-1" d="M203.213,797.979a3.887,3.887,0,0,0,0-7.774h-14.09a3.886,3.886,0,1,0,3.679,2.633h6.732a3.887,3.887,0,0,0,3.679,5.141Zm-12.836-3.887a1.254,1.254,0,1,1-1.254-1.254A1.256,1.256,0,0,1,190.377,794.092Zm14.09,0a1.254,1.254,0,1,1-1.254-1.254A1.256,1.256,0,0,1,204.467,794.092Z" transform="translate(-177.68 -757.979)"/>
    </g>
  </g>
</svg>
