<svg xmlns="http://www.w3.org/2000/svg" xmlns:xlink="http://www.w3.org/1999/xlink" viewBox="0 0 96.995 110.79">
  <defs>
    <style>
      .cls-1 {
        fill: url(#linear-gradient);
      }

      .cls-2 {
        fill: #f77b39;
      }
    </style>
    <linearGradient id="linear-gradient" x1="0.5" x2="0.5" y2="1" gradientUnits="objectBoundingBox">
      <stop offset="0" stop-color="#ff9d00"/>
      <stop offset="1" stop-color="#f77b39"/>
    </linearGradient>
  </defs>
  <g id="gps" transform="translate(0)">
    <g id="Group_1753" data-name="Group 1753" transform="translate(0 88.501)">
      <path id="Path_3263" data-name="Path 3263" class="cls-1" d="M92.567,133.9h0c0,4.864-19.748,8.712-44.069,8.712S4.356,138.764,4.356,133.9h0C1.525,135.134,0,136.441,0,137.893c0,5.3,21.708,9.583,48.5,9.583S97,143.193,97,137.893C96.923,136.514,95.326,135.134,92.567,133.9Z" transform="translate(0 -125.188)"/>
      <path id="Path_3264" data-name="Path 3264" class="cls-1" d="M94.238,130.612c0-4.792-19.748-8.712-44.069-8.712S6.1,125.82,6.1,130.612c7.623-3.34,24.467-5.59,44.069-5.59S86.542,127.345,94.238,130.612Z" transform="translate(-1.671 -121.9)"/>
    </g>
    <path id="Path_3262" data-name="Path 3262" class="cls-2" d="M48.632,98.665C20.1,57.21,14.8,53,14.8,37.753a37.753,37.753,0,0,1,75.505,0c0,15.246-5.3,19.457-33.9,60.912a4.752,4.752,0,0,1-7.768,0Zm3.92-45.158A15.754,15.754,0,1,0,36.8,37.753,15.74,15.74,0,0,0,52.553,53.507Z" transform="translate(-4.055)"/>
  </g>
</svg>
