<svg xmlns="http://www.w3.org/2000/svg" viewBox="0 0 34.574 34.574">
  <defs>
    <style>
      .cls-1 {
        fill: #f77b39;
      }
    </style>
  </defs>
  <path id="Design-595b40b75ba036ed117d8beb_visualpharm" class="cls-1" d="M29.258,3.828a2.946,2.946,0,0,0-2.1.869l-2.1,2.094a1.187,1.187,0,0,0-1.676,0l-3.352,3.354a1.186,1.186,0,0,0,0,1.676l.029.029-.916.916L10.741,4.355a1.821,1.821,0,0,0-2.514,0L2.359,10.222a1.779,1.779,0,0,0,0,2.514l8.4,8.4L4.021,27.874A1.785,1.785,0,0,0,3.5,28.99l-.4,4.977-.417,2.916a.593.593,0,0,0,.587.677.585.585,0,0,0,.085-.006l2.918-.417,5-.368a1.776,1.776,0,0,0,1.125-.515l6.742-6.73,8.36,8.359a1.78,1.78,0,0,0,2.514,0l5.867-5.867a1.781,1.781,0,0,0,0-2.515l-8.353-8.353.918-.917A1.177,1.177,0,0,0,30.1,20.2l3.354-3.352a1.186,1.186,0,0,0,0-1.676l2.1-2.1a2.962,2.962,0,0,0,0-4.191L31.354,4.7A2.948,2.948,0,0,0,29.258,3.828ZM9.483,5.024a.591.591,0,0,1,.419.169l.419.419L9.064,6.868a.593.593,0,1,0,.838.838L11.16,6.45l1.257,1.256-2.1,2.1a.593.593,0,1,0,.838.838l2.1-2.1L14.513,9.8,13.256,11.06a.593.593,0,1,0,.838.838l1.257-1.257L16.608,11.9l-2.1,2.1a.593.593,0,1,0,.838.838l2.1-2.1.866.866L11.6,20.3,3.2,11.9a.593.593,0,0,1,0-.838L9.064,5.193A.59.59,0,0,1,9.483,5.024Zm19.774.007a1.779,1.779,0,0,1,1.258.5l4.191,4.191a1.777,1.777,0,0,1,0,2.514l-2.1,2.1-3.354-3.354L25.905,7.63l2.1-2.1A1.773,1.773,0,0,1,29.258,5.031Zm-5.029,2.6,4.192,4.191,3.772,3.773.419.419-.838.838a.592.592,0,0,0-.838,0l-.838.838a.592.592,0,0,0,0,.838l-.837.839h0l-8.383-8.382.838-.838a.592.592,0,0,0,.838,0l.839-.838a.592.592,0,0,0,0-.838Zm.838,2.76a.592.592,0,0,0-.419.174l-.838.838a.593.593,0,1,0,.838.838l.838-.838a.593.593,0,0,0-.419-1.012Zm2.1,2.1a.59.59,0,0,0-.419.174l-.838.838a.593.593,0,1,0,.838.838l.838-.838a.593.593,0,0,0-.419-1.012Zm-6.256.2,6.7,6.706L12.025,34.956l-.565-2.825L21.295,22.3a.592.592,0,0,0-.837-.838l-9.835,9.835-1.4-.28-.28-1.4L17.1,21.46a.593.593,0,0,0-.838-.838L8.109,28.779l-2.764-.552Zm8.352,1.893a.591.591,0,0,0-.419.174L28,15.593a.593.593,0,1,0,.838.838l.838-.838a.593.593,0,0,0-.419-1.012ZM20.037,17.1a.587.587,0,0,0-.418.174l-1.676,1.677a.592.592,0,1,0,.838.837l1.676-1.676a.593.593,0,0,0-.42-1.012Zm6.659,4.89.39.39-1.257,1.257a.593.593,0,1,0,.838.838l1.257-1.257,1.258,1.258-2.1,2.1a.593.593,0,1,0,.838.838l2.1-2.1,1.257,1.257-1.258,1.257a.593.593,0,1,0,.838.838l1.258-1.257,1.257,1.257-2.1,2.1a.593.593,0,1,0,.838.838l2.1-2.1.838.838a.593.593,0,0,1,0,.838l-5.867,5.867a.608.608,0,0,1-.838,0l-8.359-8.358ZM4.668,29.3l3.131.626.341,1.709a.593.593,0,0,0,.465.464l1.707.341.633,3.165-4.511.331-2.13-2.129Z" transform="translate(-1.839 -3.828)"/>
</svg>
