<svg xmlns="http://www.w3.org/2000/svg" viewBox="0 0 31.579 31.61">
  <defs>
    <style>
      .cls-1 {
        fill: #f77b39;
      }
    </style>
  </defs>
  <path id="Layers-595b40b65ba036ed117d47ab_visualpharm" class="cls-1" d="M14.955,0a1.343,1.343,0,0,0-.988.228L.593,10.563A1.248,1.248,0,0,0,.1,11.778a1.443,1.443,0,0,0,.874.988l4.711,1.216L.593,17.9a1.216,1.216,0,0,0,.418,2.128l4.711,1.216L.593,25.191a1.216,1.216,0,0,0,.418,2.128l16.3,4.255a1.216,1.216,0,0,0,1.14-.3L31.217,19.377a1.216,1.216,0,0,0-.646-2.09L26.392,16.6l4.825-4.521a1.216,1.216,0,0,0-.646-2.09l-4.065-.722,4.863-4.521A1.328,1.328,0,0,0,31.6,3.534a1.222,1.222,0,0,0-.988-.874Zm9.309,11.36,3.5.608-10.487,9.8L4.013,18.313l4.635-3.572,8.739,2.28h.342a1.166,1.166,0,0,0,.874-.38Zm-.114,7.295,3.609.608-10.487,9.8L4.051,25.608l4.673-3.572,8.587,2.242a1.216,1.216,0,0,0,1.14-.3Z" transform="translate(-0.068 0)"/>
</svg>
