<svg xmlns="http://www.w3.org/2000/svg" viewBox="0 0 23.449 21.411">
  <defs>
    <style>
      .cls-1 {
        fill: #f77b39;
      }
    </style>
  </defs>
  <path id="Web_Design-595b40b85ba036ed117db87a_visualpharm" data-name="Web Design-595b40b85ba036ed117db87a_visualpharm" class="cls-1" d="M2.414,4A.51.51,0,0,0,2,4.509v5.1a.51.51,0,0,0,.51.51h22.43a.51.51,0,0,0,.51-.51v-5.1A.51.51,0,0,0,24.94,4H2.414Zm.605,1.02H24.43V9.1H3.019ZM5.059,6.548a.51.51,0,1,0,.51.51A.51.51,0,0,0,5.059,6.548Zm2.039,0a.51.51,0,1,0,.51.51A.51.51,0,0,0,7.1,6.548Zm2.039,0a.51.51,0,1,0,.51.51A.51.51,0,0,0,9.137,6.548ZM2,11.646V24.9a.51.51,0,0,0,.51.51h22.43a.51.51,0,0,0,.51-.51V11.646H24.43V24.39H3.019V11.646Zm2.963,0a.51.51,0,0,0-.414.51v10.2a.51.51,0,0,0,.51.51h7.647a.51.51,0,0,0,.51-.51v-10.2a.51.51,0,0,0-.51-.51H4.963Zm9.781,0v1.02H22.9v-1.02Zm-9.176,1.02H12.2v9.176H5.568Zm9.176,1.529v1.02H22.9v-1.02Zm0,2.549v1.02H22.9v-1.02Zm0,2.549v1.02H22.9v-1.02Zm0,2.549v1.02H22.9v-1.02Z" transform="translate(-2 -3.999)"/>
</svg>
