<svg xmlns="http://www.w3.org/2000/svg" viewBox="0 0 29.375 35.815">
  <defs>
    <style>
      .cls-1 {
        fill: #f77b39;
      }
    </style>
  </defs>
  <g id="Group_2060" data-name="Group 2060" transform="translate(13044.198 -2324.757)">
    <path id="Path_3510" data-name="Path 3510" class="cls-1" d="M35.265,12.575a2.661,2.661,0,0,1,2.258-1.9,9.772,9.772,0,0,0-.406-3.22A2.99,2.99,0,0,1,36.051,7.4a2.58,2.58,0,0,1-1.319-4.133,10.422,10.422,0,0,0-2.562-2,2.615,2.615,0,0,1-2.765.964A2.631,2.631,0,0,1,27.5-.028a9.784,9.784,0,0,0-3.222.406,2.577,2.577,0,0,1-1.294,2.637,2.7,2.7,0,0,1-1.979.254,2.357,2.357,0,0,1-.964-.507,10.419,10.419,0,0,0-2,2.561A2.556,2.556,0,0,1,19,8.086a2.66,2.66,0,0,1-2.232,1.9,9.772,9.772,0,0,0,.406,3.22,2.505,2.505,0,0,1,1.065.076,2.58,2.58,0,0,1,1.319,4.133,10.422,10.422,0,0,0,2.562,2,2.575,2.575,0,0,1,4.642,1.268,9.783,9.783,0,0,0,3.222-.406,2.616,2.616,0,0,1,3.272-2.891,2.653,2.653,0,0,1,.964.482,10.419,10.419,0,0,0,2-2.561,2.543,2.543,0,0,1-.964-2.739ZM26.082,14.4a4.208,4.208,0,1,1,5.175-2.942A4.222,4.222,0,0,1,26.082,14.4Z" transform="translate(-13056.683 2324.795)"/>
    <path id="Path_3511" data-name="Path 3511" class="cls-1" d="M13.7,78.105a2.154,2.154,0,0,1-.279-2.434,8.542,8.542,0,0,0-2.41-1.192,1.875,1.875,0,0,1-.533.71,2.238,2.238,0,0,1-1.573.533A2.18,2.18,0,0,1,6.978,74.2a8.493,8.493,0,0,0-2.562.862,2.138,2.138,0,0,1-.609,2.358,2.2,2.2,0,0,1-2.435.279A8.536,8.536,0,0,0,.179,80.108a2.133,2.133,0,0,1,1.243,2.1,2.226,2.226,0,0,1-.736,1.471,1.842,1.842,0,0,1-.786.431,8.486,8.486,0,0,0,.863,2.561,2.109,2.109,0,0,1,2.359.609A2.154,2.154,0,0,1,3.4,89.719a8.542,8.542,0,0,0,2.41,1.192,2.1,2.1,0,0,1,.533-.71,2.239,2.239,0,0,1,1.573-.533,2.121,2.121,0,0,1,1.9,1.521,8.494,8.494,0,0,0,2.562-.862,2.149,2.149,0,0,1,.609-2.358,2.121,2.121,0,0,1,2.41-.279,8.536,8.536,0,0,0,1.192-2.409,2.171,2.171,0,0,1-1.243-2.1,2.12,2.12,0,0,1,.736-1.471,1.842,1.842,0,0,1,.786-.431,8.485,8.485,0,0,0-.863-2.561,2.138,2.138,0,0,1-2.308-.609Zm-2.943,7.2a3.487,3.487,0,1,1,.33-4.945A3.492,3.492,0,0,1,10.757,85.307Z" transform="translate(-13044.099 2269.382)"/>
    <path id="Path_3512" data-name="Path 3512" class="cls-1" d="M77.989,79.794A1.573,1.573,0,0,1,79.13,78.4a6.032,6.032,0,0,0-.609-1.876,1.436,1.436,0,0,1-.66.076,1.529,1.529,0,0,1-1.065-.558,1.577,1.577,0,0,1-.178-1.775,7.178,7.178,0,0,0-1.75-.913,1.574,1.574,0,0,1-1.547.888,1.608,1.608,0,0,1-1.4-1.141,6.038,6.038,0,0,0-1.877.609,1.58,1.58,0,0,1-1.6,2.1,1.82,1.82,0,0,1-.634-.177,6.131,6.131,0,0,0-.888,1.775,1.585,1.585,0,0,1-.228,2.942,6.032,6.032,0,0,0,.609,1.876,1.437,1.437,0,0,1,.66-.076,1.529,1.529,0,0,1,1.065.558,1.577,1.577,0,0,1,.178,1.775,7.179,7.179,0,0,0,1.75.913,1.586,1.586,0,0,1,2.943.228,6.038,6.038,0,0,0,1.877-.609,1.58,1.58,0,0,1,1.6-2.1,1.82,1.82,0,0,1,.634.178,7.173,7.173,0,0,0,.913-1.75,1.576,1.576,0,0,1-.939-1.547Zm-5.277,2.13a2.569,2.569,0,1,1,2.765-2.358A2.563,2.563,0,0,1,72.712,81.925Z" transform="translate(-13093.953 2270.203)"/>
  </g>
</svg>
