<svg xmlns="http://www.w3.org/2000/svg" viewBox="0 0 283.938 115.013">
  <defs>
    <style>
      .cls-1, .cls-2, .cls-3 {
        fill: #fbd865;
      }

      .cls-3, .cls-6 {
        opacity: 0.399;
      }

      .cls-4 {
        fill: #707070;
        font-size: 24px;
        font-family: HelveticaNeue-Bold, Helvetica Neue;
        font-weight: 700;
      }

      .cls-5 {
        fill: rgba(150,118,118,0.36);
      }

      .cls-6 {
        fill: #e8c85e;
      }

      .cls-7 {
        fill: #505050;
      }

      .cls-10, .cls-8 {
        fill: #fff;
      }

      .cls-10, .cls-9 {
        stroke: none;
      }
    </style>
  </defs>
  <g id="Group_2191" data-name="Group 2191" transform="translate(12374.102 -7335.309)">
    <g id="Group_2189" data-name="Group 2189" transform="translate(409)">
      <g id="Group_2186" data-name="Group 2186" transform="translate(-12882 6317)">
        <path id="freestocks-org-570357-unsplash" class="cls-1" d="M0,0H283.939V115.013H0Z" transform="translate(98.898 1018.309)"/>
        <g id="Group_2177" data-name="Group 2177" transform="translate(0 -8)">
          <g id="Group_2173" data-name="Group 2173" transform="translate(132.329 1044)">
            <ellipse id="Ellipse_473" data-name="Ellipse 473" class="cls-1" cx="26.006" cy="3.526" rx="26.006" ry="3.526" transform="translate(11.459 72.287)"/>
            <g id="Group_2155" data-name="Group 2155" transform="translate(74.051 0) rotate(90)">
              <g id="Path_3521" data-name="Path 3521" class="cls-2">
                <path class="cls-9" d="M 37.02526092529297 73.55052185058594 C 32.09416198730469 73.55052185058594 27.31083106994629 72.58486938476562 22.80813026428223 70.68038940429688 C 18.45879173278809 68.84077453613281 14.55258083343506 66.20709991455078 11.19800090789795 62.85251998901367 C 7.84342098236084 59.49794006347656 5.209751129150391 55.59173202514648 3.370131015777588 51.24238967895508 C 1.465650916099548 46.73969268798828 0.5000009536743164 41.95635986328125 0.5000009536743164 37.02526092529297 C 0.5000009536743164 32.09416198730469 1.465650916099548 27.31083106994629 3.370131015777588 22.80813026428223 C 5.209751129150391 18.45879173278809 7.84342098236084 14.55258083343506 11.19800090789795 11.19800090789795 C 14.55258083343506 7.84342098236084 18.45879173278809 5.209751129150391 22.80813026428223 3.370131015777588 C 27.31083106994629 1.465650916099548 32.09416198730469 0.5000009536743164 37.02526092529297 0.5000009536743164 C 41.95635986328125 0.5000009536743164 46.73969268798828 1.465650916099548 51.24238967895508 3.370131015777588 C 55.59173202514648 5.209751129150391 59.49794006347656 7.84342098236084 62.85251998901367 11.19800090789795 C 66.20709991455078 14.55258083343506 68.84077453613281 18.45879173278809 70.68038940429688 22.80813026428223 C 72.58486938476562 27.31083106994629 73.55052185058594 32.09416198730469 73.55052185058594 37.02526092529297 C 73.55052185058594 41.95635986328125 72.58486938476562 46.73969268798828 70.68038940429688 51.24238967895508 C 68.84077453613281 55.59173202514648 66.20709991455078 59.49794006347656 62.85251998901367 62.85251998901367 C 59.49794006347656 66.20709991455078 55.59173202514648 68.84077453613281 51.24238967895508 70.68038940429688 C 46.73969268798828 72.58486938476562 41.95635986328125 73.55052185058594 37.02526092529297 73.55052185058594 Z"/>
                <path class="cls-10" d="M 37.02526092529297 1 C 32.16144180297852 1 27.44364166259766 1.952362060546875 23.00291061401367 3.83062744140625 C 18.71316909790039 5.645042419433594 14.86037063598633 8.242729187011719 11.55155181884766 11.55155181884766 C 8.242729187011719 14.86037063598633 5.645042419433594 18.71316909790039 3.83062744140625 23.00291061401367 C 1.952362060546875 27.44364166259766 1 32.16144180297852 1 37.02526092529297 C 1 41.88908004760742 1.952362060546875 46.60688018798828 3.83062744140625 51.04761123657227 C 5.645042419433594 55.33734893798828 8.242729187011719 59.19015121459961 11.55155181884766 62.49897003173828 C 14.86037063598633 65.80779266357422 18.71316909790039 68.40547943115234 23.00291061401367 70.21989440917969 C 27.44364166259766 72.09815979003906 32.16144180297852 73.05052185058594 37.02526092529297 73.05052185058594 C 41.88908004760742 73.05052185058594 46.60688018798828 72.09815979003906 51.04761123657227 70.21989440917969 C 55.33734893798828 68.40547943115234 59.19015121459961 65.80779266357422 62.49897003173828 62.49897003173828 C 65.80779266357422 59.19015121459961 68.40547943115234 55.33734893798828 70.21989440917969 51.04761123657227 C 72.09815979003906 46.60688018798828 73.05052185058594 41.88908004760742 73.05052185058594 37.02526092529297 C 73.05052185058594 32.16144180297852 72.09815979003906 27.44364166259766 70.21989440917969 23.00291061401367 C 68.40547943115234 18.71316909790039 65.80779266357422 14.86037063598633 62.49897003173828 11.55155181884766 C 59.19015121459961 8.242729187011719 55.33734893798828 5.645042419433594 51.04761123657227 3.83062744140625 C 46.60688018798828 1.952362060546875 41.88908004760742 1 37.02526092529297 1 M 37.02526092529297 0 C 57.47375106811523 0 74.05052185058594 16.5767707824707 74.05052185058594 37.02526092529297 C 74.05052185058594 57.47375106811523 57.47375106811523 74.05052185058594 37.02526092529297 74.05052185058594 C 16.5767707824707 74.05052185058594 0 57.47375106811523 0 37.02526092529297 C 0 16.5767707824707 16.5767707824707 0 37.02526092529297 0 Z"/>
              </g>
              <path id="Path_3520" data-name="Path 3520" class="cls-3" d="M40.606,41.162C15.481,40.961,0,24.852,0,4.4S65.732,41.364,40.606,41.162Z" transform="translate(1.763 30.858)"/>
            </g>
            <path id="_ionicons_svg_ios-phone-portrait" class="cls-1" d="M160.9,32H146.919A2.9,2.9,0,0,0,144,34.9V68.5a2.987,2.987,0,0,0,2.919,3.007H160.9a2.928,2.928,0,0,0,2.848-3.007V34.9A2.829,2.829,0,0,0,160.9,32Zm-8.351,2.028H155.2a.353.353,0,1,1,0,.705h-2.645a.353.353,0,1,1,0-.705Zm1.367,36.154a1.534,1.534,0,1,1,1.534-1.534A1.535,1.535,0,0,1,153.92,70.182Zm8.245-4.321H145.587a.177.177,0,0,1-.176-.176V36.674a.177.177,0,0,1,.176-.176h16.578a.177.177,0,0,1,.176.176V65.685A.177.177,0,0,1,162.165,65.861Z" transform="translate(-116.891 -14.727)"/>
            <path id="Path_3535" data-name="Path 3535" class="cls-1" d="M-17073.115,1261.791c.865-2.79,9.008.671,14.578,6.99s-2.021,3.2-2.021,3.2l-9.643-6S-17073.979,1264.581-17073.115,1261.791Z" transform="translate(17115.342 -1254.807)"/>
            <circle id="Ellipse_471" data-name="Ellipse 471" class="cls-1" cx="2.204" cy="2.204" r="2.204" transform="translate(59.063 20.276)"/>
          </g>
        </g>
      </g>
      <g id="Group_2187" data-name="Group 2187" transform="translate(-12749.968 7353)">
        <ellipse id="Ellipse_473-2" data-name="Ellipse 473" class="cls-1" cx="26.006" cy="3.526" rx="26.006" ry="3.526" transform="translate(11.459 72.287)"/>
        <g id="Group_2155-2" data-name="Group 2155" transform="translate(74.051 0) rotate(90)">
          <g id="Path_3521-2" data-name="Path 3521" class="cls-2">
            <path class="cls-9" d="M 37.02526092529297 73.55052185058594 C 32.09416198730469 73.55052185058594 27.31083106994629 72.58486938476562 22.80813026428223 70.68038940429688 C 18.45879173278809 68.84077453613281 14.55258083343506 66.20709991455078 11.19800090789795 62.85251998901367 C 7.84342098236084 59.49794006347656 5.209751129150391 55.59173202514648 3.370131015777588 51.24238967895508 C 1.465650916099548 46.73969268798828 0.5000009536743164 41.95635986328125 0.5000009536743164 37.02526092529297 C 0.5000009536743164 32.09416198730469 1.465650916099548 27.31083106994629 3.370131015777588 22.80813026428223 C 5.209751129150391 18.45879173278809 7.84342098236084 14.55258083343506 11.19800090789795 11.19800090789795 C 14.55258083343506 7.84342098236084 18.45879173278809 5.209751129150391 22.80813026428223 3.370131015777588 C 27.31083106994629 1.465650916099548 32.09416198730469 0.5000009536743164 37.02526092529297 0.5000009536743164 C 41.95635986328125 0.5000009536743164 46.73969268798828 1.465650916099548 51.24238967895508 3.370131015777588 C 55.59173202514648 5.209751129150391 59.49794006347656 7.84342098236084 62.85251998901367 11.19800090789795 C 66.20709991455078 14.55258083343506 68.84077453613281 18.45879173278809 70.68038940429688 22.80813026428223 C 72.58486938476562 27.31083106994629 73.55052185058594 32.09416198730469 73.55052185058594 37.02526092529297 C 73.55052185058594 41.95635986328125 72.58486938476562 46.73969268798828 70.68038940429688 51.24238967895508 C 68.84077453613281 55.59173202514648 66.20709991455078 59.49794006347656 62.85251998901367 62.85251998901367 C 59.49794006347656 66.20709991455078 55.59173202514648 68.84077453613281 51.24238967895508 70.68038940429688 C 46.73969268798828 72.58486938476562 41.95635986328125 73.55052185058594 37.02526092529297 73.55052185058594 Z"/>
            <path class="cls-10" d="M 37.02526092529297 1 C 32.16144180297852 1 27.44364166259766 1.952362060546875 23.00291061401367 3.83062744140625 C 18.71316909790039 5.645042419433594 14.86037063598633 8.242729187011719 11.55155181884766 11.55155181884766 C 8.242729187011719 14.86037063598633 5.645042419433594 18.71316909790039 3.83062744140625 23.00291061401367 C 1.952362060546875 27.44364166259766 1 32.16144180297852 1 37.02526092529297 C 1 41.88908004760742 1.952362060546875 46.60688018798828 3.83062744140625 51.04761123657227 C 5.645042419433594 55.33734893798828 8.242729187011719 59.19015121459961 11.55155181884766 62.49897003173828 C 14.86037063598633 65.80779266357422 18.71316909790039 68.40547943115234 23.00291061401367 70.21989440917969 C 27.44364166259766 72.09815979003906 32.16144180297852 73.05052185058594 37.02526092529297 73.05052185058594 C 41.88908004760742 73.05052185058594 46.60688018798828 72.09815979003906 51.04761123657227 70.21989440917969 C 55.33734893798828 68.40547943115234 59.19015121459961 65.80779266357422 62.49897003173828 62.49897003173828 C 65.80779266357422 59.19015121459961 68.40547943115234 55.33734893798828 70.21989440917969 51.04761123657227 C 72.09815979003906 46.60688018798828 73.05052185058594 41.88908004760742 73.05052185058594 37.02526092529297 C 73.05052185058594 32.16144180297852 72.09815979003906 27.44364166259766 70.21989440917969 23.00291061401367 C 68.40547943115234 18.71316909790039 65.80779266357422 14.86037063598633 62.49897003173828 11.55155181884766 C 59.19015121459961 8.242729187011719 55.33734893798828 5.645042419433594 51.04761123657227 3.83062744140625 C 46.60688018798828 1.952362060546875 41.88908004760742 1 37.02526092529297 1 M 37.02526092529297 0 C 57.47375106811523 0 74.05052185058594 16.5767707824707 74.05052185058594 37.02526092529297 C 74.05052185058594 57.47375106811523 57.47375106811523 74.05052185058594 37.02526092529297 74.05052185058594 C 16.5767707824707 74.05052185058594 0 57.47375106811523 0 37.02526092529297 C 0 16.5767707824707 16.5767707824707 0 37.02526092529297 0 Z"/>
          </g>
          <path id="Path_3520-2" data-name="Path 3520" class="cls-3" d="M40.606,41.162C15.481,40.961,0,24.852,0,4.4S65.732,41.364,40.606,41.162Z" transform="translate(1.763 30.858)"/>
        </g>
        <path id="_ionicons_svg_ios-desktop" class="cls-1" d="M64.115,101.956a.511.511,0,0,0-.422-.432l-2.238-.191a3.487,3.487,0,0,1-2.238-2.84l-.12-.773H49.864l-.12.763a3.5,3.5,0,0,1-2.238,2.84l-2.238.191a.548.548,0,0,0-.422.432.515.515,0,0,0,.512.582H63.6a.507.507,0,0,0,.512-.572ZM76.249,64.7a2.424,2.424,0,0,0-1.706-.7H34.429a2.407,2.407,0,0,0-1.706.7A2.444,2.444,0,0,0,32,66.409v27.3a2.426,2.426,0,0,0,.723,1.706,2.378,2.378,0,0,0,1.686.7H74.553a2.36,2.36,0,0,0,1.686-.7,2.444,2.444,0,0,0,.723-1.706v-27.3A2.392,2.392,0,0,0,76.249,64.7Zm-21.768,29a.8.8,0,1,1,.8-.8A.805.805,0,0,1,54.481,93.707Zm20.463-4.014H34.027a.4.4,0,0,1-.4-.4V66.81a1.208,1.208,0,0,1,1.2-1.2H74.141a1.208,1.208,0,0,1,1.2,1.2V89.291A.4.4,0,0,1,74.944,89.692Z" transform="translate(-17.455 -43.928)"/>
        <path id="Path_3535-2" data-name="Path 3535" class="cls-1" d="M-17073.115,1261.791c.865-2.79,9.008.671,14.578,6.99s-2.021,3.2-2.021,3.2l-9.643-6S-17073.979,1264.581-17073.115,1261.791Z" transform="translate(17115.342 -1254.807)"/>
        <circle id="Ellipse_471-2" data-name="Ellipse 471" class="cls-1" cx="2.204" cy="2.204" r="2.204" transform="translate(59.063 20.276)"/>
      </g>
    </g>
    <g id="Group_2190" data-name="Group 2190" transform="translate(-13051 6309)">
      <text id="Integrations" class="cls-4" transform="translate(870.094 1092)"><tspan x="-68.868" y="0">Integrations</tspan></text>
      <g id="Group_2175" data-name="Group 2175" transform="translate(710.038 1044)">
        <ellipse id="Ellipse_473-3" data-name="Ellipse 473" class="cls-5" cx="26.006" cy="3.526" rx="26.006" ry="3.526" transform="translate(11.459 72.287)"/>
        <g id="Group_2155-3" data-name="Group 2155" transform="translate(74.051 0) rotate(90)">
          <g id="Path_3521-3" data-name="Path 3521" class="cls-2">
            <path class="cls-9" d="M 37.02526092529297 73.55052185058594 C 32.09416198730469 73.55052185058594 27.31083106994629 72.58486938476562 22.80813026428223 70.68038940429688 C 18.45879173278809 68.84077453613281 14.55258083343506 66.20709991455078 11.19800090789795 62.85251998901367 C 7.84342098236084 59.49794006347656 5.209751129150391 55.59173202514648 3.370131015777588 51.24238967895508 C 1.465650916099548 46.73969268798828 0.5000009536743164 41.95635986328125 0.5000009536743164 37.02526092529297 C 0.5000009536743164 32.09416198730469 1.465650916099548 27.31083106994629 3.370131015777588 22.80813026428223 C 5.209751129150391 18.45879173278809 7.84342098236084 14.55258083343506 11.19800090789795 11.19800090789795 C 14.55258083343506 7.84342098236084 18.45879173278809 5.209751129150391 22.80813026428223 3.370131015777588 C 27.31083106994629 1.465650916099548 32.09416198730469 0.5000009536743164 37.02526092529297 0.5000009536743164 C 41.95635986328125 0.5000009536743164 46.73969268798828 1.465650916099548 51.24238967895508 3.370131015777588 C 55.59173202514648 5.209751129150391 59.49794006347656 7.84342098236084 62.85251998901367 11.19800090789795 C 66.20709991455078 14.55258083343506 68.84077453613281 18.45879173278809 70.68038940429688 22.80813026428223 C 72.58486938476562 27.31083106994629 73.55052185058594 32.09416198730469 73.55052185058594 37.02526092529297 C 73.55052185058594 41.95635986328125 72.58486938476562 46.73969268798828 70.68038940429688 51.24238967895508 C 68.84077453613281 55.59173202514648 66.20709991455078 59.49794006347656 62.85251998901367 62.85251998901367 C 59.49794006347656 66.20709991455078 55.59173202514648 68.84077453613281 51.24238967895508 70.68038940429688 C 46.73969268798828 72.58486938476562 41.95635986328125 73.55052185058594 37.02526092529297 73.55052185058594 Z"/>
            <path class="cls-10" d="M 37.02526092529297 1 C 32.16144180297852 1 27.44364166259766 1.952362060546875 23.00291061401367 3.83062744140625 C 18.71316909790039 5.645042419433594 14.86037063598633 8.242729187011719 11.55155181884766 11.55155181884766 C 8.242729187011719 14.86037063598633 5.645042419433594 18.71316909790039 3.83062744140625 23.00291061401367 C 1.952362060546875 27.44364166259766 1 32.16144180297852 1 37.02526092529297 C 1 41.88908004760742 1.952362060546875 46.60688018798828 3.83062744140625 51.04761123657227 C 5.645042419433594 55.33734893798828 8.242729187011719 59.19015121459961 11.55155181884766 62.49897003173828 C 14.86037063598633 65.80779266357422 18.71316909790039 68.40547943115234 23.00291061401367 70.21989440917969 C 27.44364166259766 72.09815979003906 32.16144180297852 73.05052185058594 37.02526092529297 73.05052185058594 C 41.88908004760742 73.05052185058594 46.60688018798828 72.09815979003906 51.04761123657227 70.21989440917969 C 55.33734893798828 68.40547943115234 59.19015121459961 65.80779266357422 62.49897003173828 62.49897003173828 C 65.80779266357422 59.19015121459961 68.40547943115234 55.33734893798828 70.21989440917969 51.04761123657227 C 72.09815979003906 46.60688018798828 73.05052185058594 41.88908004760742 73.05052185058594 37.02526092529297 C 73.05052185058594 32.16144180297852 72.09815979003906 27.44364166259766 70.21989440917969 23.00291061401367 C 68.40547943115234 18.71316909790039 65.80779266357422 14.86037063598633 62.49897003173828 11.55155181884766 C 59.19015121459961 8.242729187011719 55.33734893798828 5.645042419433594 51.04761123657227 3.83062744140625 C 46.60688018798828 1.952362060546875 41.88908004760742 1 37.02526092529297 1 M 37.02526092529297 0 C 57.47375106811523 0 74.05052185058594 16.5767707824707 74.05052185058594 37.02526092529297 C 74.05052185058594 57.47375106811523 57.47375106811523 74.05052185058594 37.02526092529297 74.05052185058594 C 16.5767707824707 74.05052185058594 0 57.47375106811523 0 37.02526092529297 C 0 16.5767707824707 16.5767707824707 0 37.02526092529297 0 Z"/>
          </g>
          <path id="Path_3520-3" data-name="Path 3520" class="cls-6" d="M40.606,41.162C15.481,40.961,0,24.852,0,4.4S65.732,41.364,40.606,41.162Z" transform="translate(1.763 30.858)"/>
        </g>
        <g id="_ionicons_svg_ios-people" transform="translate(15.867 23.511)">
          <path id="Path_3538" data-name="Path 3538" class="cls-7" d="M138.174,131.119c-1.044-.373-2.749-.391-3.5-.68a4.95,4.95,0,0,1-1.621-.755,10.019,10.019,0,0,1-.27-2.656,4.29,4.29,0,0,0,.923-1.3,14.5,14.5,0,0,0,.447-2.563s.615.261.857-.969c.205-1.062.6-1.621.494-2.4s-.54-.6-.54-.6.54-.792.54-3.485c0-2.777-2.1-5.507-6.02-5.507s-6.029,2.74-6.029,5.507c0,2.693.531,3.485.531,3.485s-.438-.186-.54.6.28,1.342.494,2.4c.242,1.239.857.969.857.969a14.639,14.639,0,0,0,.447,2.563,4.29,4.29,0,0,0,.923,1.3,10.019,10.019,0,0,1-.27,2.656,4.764,4.764,0,0,1-1.621.745c-.745.289-2.451.326-3.5.7a6.576,6.576,0,0,0-4.268,6.262h25.933A6.563,6.563,0,0,0,138.174,131.119Z" transform="translate(-108.579 -110.2)"/>
          <path id="Path_3539" data-name="Path 3539" class="cls-7" d="M41.61,171.2s2.227-.075,3.112-.867c-1.444-2.19-.662-4.743-.96-7.128a3.931,3.931,0,0,0-4.352-3.8h-.037a3.944,3.944,0,0,0-4.314,3.8c-.3,2.376.531,5.218-.95,7.128.885.8,3.122.773,3.122.773a4.719,4.719,0,0,1-.093,1.565,2.353,2.353,0,0,1-1.118.512,21.622,21.622,0,0,0-2.413.671,3.923,3.923,0,0,0-2.106,3.466h7.483a6.694,6.694,0,0,1,2.982-2.777,6.257,6.257,0,0,1,2.3-.485s.354-.559-.811-.773a7.943,7.943,0,0,1-1.789-.624C41.489,172.455,41.61,171.2,41.61,171.2Zm21.618,0s-2.227-.075-3.112-.867c1.444-2.19.662-4.743.96-7.128a3.931,3.931,0,0,1,4.352-3.8h.037a3.944,3.944,0,0,1,4.314,3.8c.3,2.376-.531,5.218.95,7.128-.885.8-3.122.773-3.122.773a4.719,4.719,0,0,0,.093,1.565,2.353,2.353,0,0,0,1.118.512,21.622,21.622,0,0,1,2.413.671,3.923,3.923,0,0,1,2.106,3.466H65.856a6.694,6.694,0,0,0-2.982-2.777,6.257,6.257,0,0,0-2.3-.485s-.354-.559.811-.773a7.943,7.943,0,0,0,1.789-.624c.177-.205.056-1.463.056-1.463Z" transform="translate(-31.5 -154.815)"/>
        </g>
        <path id="Path_3535-3" data-name="Path 3535" class="cls-8" d="M-17073.115,1261.791c.865-2.79,9.008.671,14.578,6.99s-2.021,3.2-2.021,3.2l-9.643-6S-17073.979,1264.581-17073.115,1261.791Z" transform="translate(17115.342 -1254.807)"/>
        <circle id="Ellipse_471-3" data-name="Ellipse 471" class="cls-8" cx="2.204" cy="2.204" r="2.204" transform="translate(59.063 20.276)"/>
      </g>
    </g>
  </g>
</svg>
