<svg xmlns="http://www.w3.org/2000/svg" viewBox="0 0 907.248 160.851">
  <defs>
    <style>
      .cls-1 {
        fill: #fbd865;
      }

      .cls-2 {
        fill: #f0544a;
      }

      .cls-2, .cls-3 {
        stroke: #050606;
        stroke-width: 3px;
      }

      .cls-13, .cls-2, .cls-3 {
        stroke-miterlimit: 10;
      }

      .cls-3 {
        fill: #c93231;
      }

      .cls-4 {
        fill: #f59596;
      }

      .cls-5 {
        fill: #333;
        font-size: 24px;
        font-family: Lato-Bold, Lato;
        font-weight: 700;
      }

      .cls-6 {
        fill: #94a4a4;
      }

      .cls-7 {
        fill: #e54d3d;
      }

      .cls-8 {
        fill: #2d3033;
      }

      .cls-9 {
        fill: #afb7bc;
      }

      .cls-10 {
        fill: #fbad45;
      }

      .cls-11 {
        fill: #ffd248;
      }

      .cls-12 {
        fill: #010101;
      }

      .cls-13 {
        fill: #f8b54d;
        stroke: #303030;
        stroke-width: 2px;
      }

      .cls-14 {
        fill: #82c341;
      }

      .cls-15 {
        fill: #66b345;
      }

      .cls-16 {
        fill: #589c43;
      }

      .cls-17 {
        fill: #50883e;
      }

      .cls-18 {
        fill: #ffdb7b;
      }

      .cls-19 {
        fill: #81d0e0;
      }

      .cls-20 {
        fill: #595a5c;
      }
    </style>
  </defs>
  <g id="Group_2241" data-name="Group 2241" transform="translate(1254 -3681)">
    <circle id="Ellipse_480" data-name="Ellipse 480" class="cls-1" cx="57.124" cy="57.124" r="57.124" transform="translate(-1254 3682)"/>
    <g id="Group_2234" data-name="Group 2234" transform="translate(3.811 254.383)">
      <path id="Path_3560" data-name="Path 3560" class="cls-2" d="M49.423,45.4c7.216,0,13.489,3.979,15.714,10.116a1.576,1.576,0,0,0,1.686.809,1.389,1.389,0,0,0,1.686-.809c2.226-6,8.565-10.116,15.714-10.116,9.1,0,16.523,6.542,16.523,14.5a13.6,13.6,0,0,1-2.9,8.228v.135l-.135.135L66.824,104.884,35.935,68.263l-.135-.135h0A13.167,13.167,0,0,1,32.9,59.9C32.9,51.942,40.319,45.4,49.423,45.4Z" transform="translate(-1266.711 3412.836)"/>
      <path id="Path_3561" data-name="Path 3561" class="cls-3" d="M83.2,56.126a1.389,1.389,0,0,0,1.686-.809c2.226-6,8.565-10.116,15.714-10.116,9.1,0,16.523,6.542,16.523,14.5a13.6,13.6,0,0,1-2.9,8.228v.135l-.135.135L83.2,104.752" transform="translate(-1283.088 3412.901)"/>
      <path id="Path_3562" data-name="Path 3562" class="cls-4" d="M39.786,64.6A1.761,1.761,0,0,1,38.1,62.909C38.1,56.03,44.3,50.5,51.926,50.5a1.686,1.686,0,1,1,0,3.372c-5.733,0-10.521,4.114-10.521,9.1A1.522,1.522,0,0,1,39.786,64.6Z" transform="translate(-1268.404 3411.176)"/>
    </g>
    <text id="Empathy" class="cls-5" transform="translate(-1147 3835.886)"><tspan x="-95.388" y="0">Empathy</tspan></text>
    <circle id="Ellipse_481" data-name="Ellipse 481" class="cls-1" cx="57.124" cy="57.124" r="57.124" transform="translate(-1061 3682)"/>
    <g id="Group_2217" data-name="Group 2217" transform="translate(-1038 3704.661)">
      <g id="Group_2216" data-name="Group 2216">
        <path id="XMLID_2_" class="cls-6" d="M419.775,106.293v-3.3a2.479,2.479,0,0,0-.877-1.821,38.433,38.433,0,0,0-6.947-4.451c-.067-.067-.135-.135-.135-.2V91.861a2.151,2.151,0,0,0,.944-1.821V85.184a4.375,4.375,0,0,0-4.384-4.384H407.3a4.375,4.375,0,0,0-4.384,4.384V90.04a2.33,2.33,0,0,0,.944,1.821v4.721c0,.067-.067.135-.135.2a38.437,38.437,0,0,0-6.947,4.451,2.371,2.371,0,0,0-.877,1.821v3.3" transform="translate(-354.558 -48.967)"/>
        <path id="XMLID_1_" class="cls-7" d="M360.04,106.293v-3.3a2.479,2.479,0,0,0-.877-1.821,38.435,38.435,0,0,0-6.947-4.451c-.067-.067-.135-.135-.135-.2V91.861a2.151,2.151,0,0,0,.944-1.821V85.184a4.375,4.375,0,0,0-4.384-4.384H347.7a4.375,4.375,0,0,0-4.384,4.384V90.04a2.33,2.33,0,0,0,.944,1.821v4.721c0,.067-.067.135-.135.2a38.433,38.433,0,0,0-6.947,4.451,2.37,2.37,0,0,0-.877,1.821v3.3" transform="translate(-335.154 -48.967)"/>
        <path id="Path_3572" data-name="Path 3572" class="cls-8" d="M379.852,75a1.209,1.209,0,0,0-1.214,1.214V83.97l-6.744,3.912a1.225,1.225,0,0,0-.472,1.686,1.144,1.144,0,0,0,1.079.607,1.969,1.969,0,0,0,.607-.135l6.744-3.912L386.6,90.04a1,1,0,0,0,.607.135,1.3,1.3,0,0,0,1.079-.607,1.225,1.225,0,0,0-.472-1.686l-6.744-3.912V76.281A1.268,1.268,0,0,0,379.852,75Z" transform="translate(-346.535 -47.079)"/>
        <path id="Path_3573" data-name="Path 3573" class="cls-8" d="M372.391,49.854a39.854,39.854,0,0,0-6.609,4.316,3.593,3.593,0,0,0-1.281,2.765v3.3a1.214,1.214,0,1,0,2.428,0v-3.3a1.087,1.087,0,0,1,.4-.877,42.709,42.709,0,0,1,6.677-4.316,1.511,1.511,0,0,0,.809-1.281V45.807a1.189,1.189,0,0,0-.54-1.012.961.961,0,0,1-.4-.809V39.13a3.166,3.166,0,0,1,3.17-3.17h1.012a3.166,3.166,0,0,1,3.17,3.17v4.856a.961.961,0,0,1-.4.809,1.189,1.189,0,0,0-.54,1.012v4.721a1.43,1.43,0,0,0,.809,1.281,34.083,34.083,0,0,1,6.677,4.316,1.087,1.087,0,0,1,.4.877v3.3a1.214,1.214,0,1,0,2.428,0V57a3.593,3.593,0,0,0-1.281-2.765,41.593,41.593,0,0,0-6.609-4.316V46.414a3.37,3.37,0,0,0,.944-2.36V39.2a5.584,5.584,0,0,0-5.6-5.6h-1.012a5.584,5.584,0,0,0-5.6,5.6v4.788a3.37,3.37,0,0,0,.944,2.36v3.507Z" transform="translate(-344.335 -33.6)"/>
        <path id="Path_3574" data-name="Path 3574" class="cls-8" d="M347.144,81.36h1.012a3.166,3.166,0,0,1,3.17,3.17v4.856a.961.961,0,0,1-.4.809,1.189,1.189,0,0,0-.54,1.012v4.721a1.43,1.43,0,0,0,.809,1.281,34.084,34.084,0,0,1,6.677,4.316,1.088,1.088,0,0,1,.4.877v3.3a1.214,1.214,0,1,0,2.428,0v-3.3a3.593,3.593,0,0,0-1.281-2.765,41.591,41.591,0,0,0-6.609-4.316V91.814a3.37,3.37,0,0,0,.944-2.36V84.6a5.584,5.584,0,0,0-5.6-5.6h-1.012a5.584,5.584,0,0,0-5.6,5.6v4.856a3.37,3.37,0,0,0,.944,2.36v3.507a39.852,39.852,0,0,0-6.609,4.316A3.593,3.593,0,0,0,334.6,102.4v3.3a1.214,1.214,0,1,0,2.428,0v-3.3a1.088,1.088,0,0,1,.4-.877,42.712,42.712,0,0,1,6.677-4.316,1.511,1.511,0,0,0,.809-1.281V91.275a1.189,1.189,0,0,0-.54-1.012.961.961,0,0,1-.4-.809V84.6A3.224,3.224,0,0,1,347.144,81.36Z" transform="translate(-334.6 -48.381)"/>
        <path id="Path_3575" data-name="Path 3575" class="cls-8" d="M395.681,99.57a3.593,3.593,0,0,0-1.281,2.765v3.3a1.214,1.214,0,1,0,2.428,0v-3.3a1.087,1.087,0,0,1,.4-.877,42.712,42.712,0,0,1,6.677-4.316,1.511,1.511,0,0,0,.809-1.281V91.207a1.189,1.189,0,0,0-.539-1.012.961.961,0,0,1-.4-.809V84.53a3.166,3.166,0,0,1,3.17-3.17h1.012a3.166,3.166,0,0,1,3.17,3.17v4.856a.961.961,0,0,1-.4.809,1.189,1.189,0,0,0-.54,1.012v4.721a1.43,1.43,0,0,0,.809,1.281,34.083,34.083,0,0,1,6.677,4.316,1.088,1.088,0,0,1,.4.877v3.3a1.214,1.214,0,1,0,2.428,0v-3.3a3.593,3.593,0,0,0-1.281-2.765,41.59,41.59,0,0,0-6.609-4.316V91.814a3.37,3.37,0,0,0,.944-2.36V84.6a5.584,5.584,0,0,0-5.6-5.6h-1.012a5.584,5.584,0,0,0-5.6,5.6v4.856a3.37,3.37,0,0,0,.944,2.36v3.507A38.424,38.424,0,0,0,395.681,99.57Z" transform="translate(-354.069 -48.381)"/>
      </g>
    </g>
    <text id="Integrity" class="cls-5" transform="translate(-955 3835.886)"><tspan x="-94.116" y="0">Integrity</tspan></text>
    <circle id="Ellipse_482" data-name="Ellipse 482" class="cls-1" cx="57.124" cy="57.124" r="57.124" transform="translate(-870 3682)"/>
    <g id="Group_2219" data-name="Group 2219" transform="translate(-840 3702.975)">
      <g id="Group_2218" data-name="Group 2218" transform="translate(0.809 33.654)">
        <path id="Path_3576" data-name="Path 3576" class="cls-9" d="M669.2,81h.674A9.037,9.037,0,1,1,651.8,81h17.4Z" transform="translate(-651.8 -81)"/>
        <path id="Path_3577" data-name="Path 3577" class="cls-9" d="M720.6,81h.674A9.037,9.037,0,1,1,703.2,81h17.4Z" transform="translate(-668.534 -81)"/>
      </g>
      <path id="Path_3578" data-name="Path 3578" class="cls-10" d="M699.233,120.316v5.53H667.4v-5.53a1.425,1.425,0,0,1,1.416-1.416h29.135A1.455,1.455,0,0,1,699.233,120.316Z" transform="translate(-656.07 -59.685)"/>
      <path id="Path_3579" data-name="Path 3579" class="cls-11" d="M684.168,37.556a4.982,4.982,0,0,1-.877,2.765h20.233v5.53H682.077V90.9h-5.53V45.851H655.1v-5.53h20.233a4.982,4.982,0,0,1-.877-2.765,4.856,4.856,0,1,1,9.712,0Z" transform="translate(-652.065 -31.621)"/>
      <path id="Path_3580" data-name="Path 3580" class="cls-12" d="M704.149,63.675l-7.419-17.333h6.407V38.721H683.512a5.029,5.029,0,0,0,.27-1.754,5.868,5.868,0,0,0-11.735,0,5.282,5.282,0,0,0,.27,1.754H652.691v7.621H659.1l-7.419,17.333H650.6v1.079a10.049,10.049,0,1,0,20.1,0V63.742h-1.079L662.2,46.409h11.937V89.37H663.414a2.418,2.418,0,0,0-2.428,2.428v6.609H694.91V91.731a2.418,2.418,0,0,0-2.428-2.428H681.759V46.342H693.7l-7.419,17.333H685.2v1.079a10.049,10.049,0,0,0,20.1,0V63.742h-1.147Zm-43.635,9.037a7.947,7.947,0,0,1-7.891-6.947H659.5v3.1h2.091v-3.1H668.4A7.947,7.947,0,0,1,660.514,72.712Zm-6.744-9.037,6.744-15.714,6.744,15.714Zm38.645,27.719a.319.319,0,0,1,.337.337V96.25h-29.81V91.731a.319.319,0,0,1,.337-.337ZM679.6,44.319V89.37h-3.44V44.319H654.714v-3.44h21.109l-1.079-1.619a3.706,3.706,0,0,1-.674-2.158,3.777,3.777,0,1,1,7.554,0,4.076,4.076,0,0,1-.674,2.158l-1.079,1.619h21.177v3.44Zm15.579,3.642,6.744,15.714H688.435Zm0,24.751a7.947,7.947,0,0,1-7.891-6.947h6.879v3.1h2.091v-3.1h6.879A8.118,8.118,0,0,1,695.18,72.712Z" transform="translate(-650.6 -31.1)"/>
      <rect id="Rectangle_2537" data-name="Rectangle 2537" class="cls-12" width="2.765" height="2.091" transform="translate(25.83 4.856)"/>
    </g>
    <text id="Balance" class="cls-5" transform="translate(-770 3835.886)"><tspan x="-85.188" y="0">Balance</tspan></text>
    <circle id="Ellipse_483" data-name="Ellipse 483" class="cls-1" cx="57.124" cy="57.124" r="57.124" transform="translate(-665 3682)"/>
    <path id="Path_3563" data-name="Path 3563" class="cls-13" d="M1023.208,59.633h-3.642a31.569,31.569,0,0,0-4.654-11.2l2.563-2.563a3.379,3.379,0,0,0,0-4.721l-4.249-4.249a3.379,3.379,0,0,0-4.721,0l-2.563,2.563a31.772,31.772,0,0,0-11.2-4.654V31.172a3.382,3.382,0,0,0-3.372-3.372H985.3a3.382,3.382,0,0,0-3.372,3.372v3.642a31.567,31.567,0,0,0-11.2,4.654L968.175,36.9a3.379,3.379,0,0,0-4.721,0L959.2,41.154a3.379,3.379,0,0,0,0,4.721l2.563,2.563a31.771,31.771,0,0,0-4.653,11.2h-3.642a3.382,3.382,0,0,0-3.372,3.372v6.07a3.382,3.382,0,0,0,3.372,3.372h3.642a31.566,31.566,0,0,0,4.653,11.2L959.2,86.205a3.379,3.379,0,0,0,0,4.721l4.249,4.249a3.379,3.379,0,0,0,4.721,0l2.563-2.563a31.771,31.771,0,0,0,11.2,4.654v3.642a3.382,3.382,0,0,0,3.372,3.372h6.07a3.382,3.382,0,0,0,3.372-3.372V97.266a31.567,31.567,0,0,0,11.2-4.654l2.563,2.563a3.379,3.379,0,0,0,4.721,0l4.249-4.249a3.379,3.379,0,0,0,0-4.721l-2.563-2.563a31.774,31.774,0,0,0,4.654-11.2h3.642a3.382,3.382,0,0,0,3.372-3.372v-6.07A3.426,3.426,0,0,0,1023.208,59.633Zm-34.8,28.6a22.256,22.256,0,1,1,22.256-22.256A22.278,22.278,0,0,1,988.407,88.229Z" transform="translate(-1596.6 3672.949)"/>
    <path id="Path_3564" data-name="Path 3564" class="cls-14" d="M1002.35,89.163l-4.923-4.923a15.346,15.346,0,0,1,0-21.717l4.923-4.923,4.923,4.923a15.346,15.346,0,0,1,0,21.717Z" transform="translate(-1609.925 3663.247)"/>
    <path id="Path_3565" data-name="Path 3565" class="cls-15" d="M1011.758,62.523l-4.923-4.923-.135.135V89.1l.135.135,4.923-4.923A15.427,15.427,0,0,0,1011.758,62.523Z" transform="translate(-1614.7 3663.247)"/>
    <path id="Path_3566" data-name="Path 3566" class="cls-16" d="M1006.347,100a1.182,1.182,0,0,1-1.147-1.147V75.047a1.147,1.147,0,1,1,2.293,0V98.854A1.182,1.182,0,0,1,1006.347,100Z" transform="translate(-1614.2 3657.94)"/>
    <path id="Path_3567" data-name="Path 3567" class="cls-17" d="M1006.835,73.8h-.135V99.9h.135a1.182,1.182,0,0,0,1.146-1.147V75.014A1.2,1.2,0,0,0,1006.835,73.8Z" transform="translate(-1615.7 3657.973)"/>
    <text id="Innovation" class="cls-5" transform="translate(-545 3835.886)"><tspan x="-116.52" y="0">Innovation</tspan></text>
    <circle id="Ellipse_484" data-name="Ellipse 484" class="cls-1" cx="57.124" cy="57.124" r="57.124" transform="translate(-461 3681)"/>
    <rect id="Rectangle_2535" data-name="Rectangle 2535" class="cls-18" width="15.849" height="5.261" transform="translate(-412 3750.061)"/>
    <g id="Group_2214" data-name="Group 2214" transform="translate(-431 3708.989)">
      <path id="Path_3568" data-name="Path 3568" class="cls-19" d="M1346.561,110.321v6.272H1295.1a3.1,3.1,0,0,1,0-6.2H1332.2v-5.6h-28.6a3.1,3.1,0,0,1,0-6.2h28.6V81.793a14.387,14.387,0,0,0-4.249-10.251l-.809-.809L1332.87,65l.809.809a22.44,22.44,0,0,1,6.609,15.984v28.528Z" transform="translate(-1292 -52.186)"/>
      <path id="Path_3569" data-name="Path 3569" class="cls-19" d="M1343.6,56.319l-8.3,8.3-7.891,7.891-2.765-2.833-4.789-4.721-2.765-2.833L1333.219,46Z" transform="translate(-1300.172 -46)"/>
    </g>
    <g id="Group_2215" data-name="Group 2215" transform="translate(-421 3702.447)">
      <path id="Path_3570" data-name="Path 3570" class="cls-18" d="M1357.014,50.193l-4.721,4.788-1.754-1.821-10.386-10.319-1.753-1.754,4.721-4.788Z" transform="translate(-1322.069 -36.3)"/>
      <rect id="Rectangle_2536" data-name="Rectangle 2536" class="cls-18" width="6.677" height="6.677" transform="translate(0 30.195) rotate(-45)"/>
    </g>
    <path id="Path_3571" data-name="Path 3571" class="cls-20" d="M1344.85,96.226h-4.519V69.452a24.079,24.079,0,0,0-6.677-16.726l.068-.067.54.54a1.71,1.71,0,0,0,2.428,0l4.721-4.721a1.71,1.71,0,0,0,0-2.428l-13.893-13.893a1.71,1.71,0,0,0-2.428,0l-4.721,4.721a1.71,1.71,0,0,0,0,2.428l.54.54-14.9,14.9a1.71,1.71,0,0,0,0,2.428l1.551,1.551-3.507,3.507a1.71,1.71,0,0,0,0,2.428l4.721,4.721a1.71,1.71,0,0,0,2.428,0l3.507-3.507,1.551,1.551a1.71,1.71,0,0,0,2.428,0l6.677-6.677a12.5,12.5,0,0,1,3.3,8.565v15.04h-7.688V80.782a1.785,1.785,0,0,0-1.753-1.754h-15.849a1.785,1.785,0,0,0-1.753,1.754v3.574a4.857,4.857,0,0,0,.135,9.712h26.91v2.023h-35.407a4.856,4.856,0,0,0,0,9.712h51.459a1.786,1.786,0,0,0,1.754-1.754V97.778A1.5,1.5,0,0,0,1344.85,96.226Zm-18.479-60.5,11.465,11.4-2.293,2.293-11.4-11.4ZM1310.049,65.81l-2.293-2.293,2.293-2.293,2.293,2.293Zm7.553-1.956-7.891-7.891L1323.4,42.272l7.891,7.891Zm0,18.817v1.821h-12.342V82.67Zm25.493,19.761h-49.705a1.383,1.383,0,0,1-1.416-1.416,1.425,1.425,0,0,1,1.416-1.416h37.094a1.785,1.785,0,0,0,1.753-1.754v-5.53a1.785,1.785,0,0,0-1.753-1.754h-28.6a1.416,1.416,0,1,1,0-2.833h28.6a1.785,1.785,0,0,0,1.753-1.754V69.452a16.1,16.1,0,0,0-4.316-10.993l3.3-3.3a20.665,20.665,0,0,1,5.665,14.3V97.98a1.786,1.786,0,0,0,1.754,1.754h4.519l-.067,2.7Z" transform="translate(-1721.4 3667.661)"/>
    <text id="Minutia" class="cls-5" transform="translate(-361 3836.851)"><tspan x="-84.468" y="0">Minutia</tspan></text>
  </g>
</svg>
