<svg xmlns="http://www.w3.org/2000/svg" viewBox="0 0 150.6 101.092">
  <defs>
    <style>
      .cls-1 {
        fill: #f77b39;
      }

      .cls-2 {
        fill: #010101;
        stroke: #f77b39;
        stroke-linecap: round;
        stroke-linejoin: round;
        stroke-miterlimit: 10;
        stroke-width: 2px;
      }

      .cls-3 {
        fill: #eb7638;
      }

      .cls-4 {
        fill: #ffddcb;
      }

      .cls-5 {
        fill: #bc5a25;
      }
    </style>
  </defs>
  <g id="Group_1870" data-name="Group 1870" transform="translate(0 0.317)">
    <path id="Path_3425" data-name="Path 3425" class="cls-1" d="M0,32.691v53.4A11.021,11.021,0,0,0,11.008,97.217H139.123A11.426,11.426,0,0,0,150.6,86.092v-53.4c0-6.207-5.27-10.891-11.477-10.891H11.008A10.823,10.823,0,0,0,0,32.691ZM7.729,64.544V54.473a1.288,1.288,0,0,1,2.576,0V64.544a1.288,1.288,0,1,1-2.576,0Zm137.952-5.27a5.855,5.855,0,1,1-5.855-5.855A6.031,6.031,0,0,1,145.681,59.274ZM129.169,27.89V91.128a.756.756,0,0,1-.7.7H17.8a.756.756,0,0,1-.7-.7V27.89a.756.756,0,0,1,.7-.7H128.467A.756.756,0,0,1,129.169,27.89Z" transform="translate(0 3.558)"/>
    <line id="Line_119" data-name="Line 119" class="cls-2" y1="21.899" x2="50.239" transform="translate(22.953 1)"/>
    <line id="Line_120" data-name="Line 120" class="cls-2" x1="50.122" y1="21.899" transform="translate(73.192 1)"/>
    <line id="Line_121" data-name="Line 121" class="cls-2" x2="50.239" y2="35.835" transform="translate(22.953 56.977)"/>
    <line id="Line_122" data-name="Line 122" class="cls-2" x1="50.122" y2="35.835" transform="translate(73.192 56.977)"/>
    <g id="Group_1869" data-name="Group 1869" transform="translate(59.959 47.726)">
      <path id="Path_3426" data-name="Path 3426" class="cls-3" d="M65.721,70.367,51.2,64.512V48l14.521,5.855Z" transform="translate(-51.2 -39.685)"/>
      <path id="Path_3427" data-name="Path 3427" class="cls-4" d="M65.721,55.187,51.2,49.332,63.145,40.9l14.521,5.855Z" transform="translate(-51.2 -40.9)"/>
      <path id="Path_3428" data-name="Path 3428" class="cls-5" d="M75.545,62.412,63.6,70.727V54.215L75.545,45.9Z" transform="translate(-49.079 -40.045)"/>
    </g>
  </g>
</svg>
