<svg xmlns="http://www.w3.org/2000/svg" viewBox="0 0 184 184">
  <defs>
    <style>
      .cls-1, .cls-2, .cls-3, .cls-5 {
        fill: none;
      }

      .cls-1, .cls-2, .cls-3 {
        stroke: #f47b3b;
      }

      .cls-1, .cls-2 {
        stroke-miterlimit: 10;
        stroke-width: 3px;
      }

      .cls-2 {
        stroke-linecap: round;
        stroke-linejoin: round;
      }

      .cls-3 {
        stroke-width: 4px;
        stroke-dasharray: 6;
      }

      .cls-4 {
        stroke: none;
      }
    </style>
  </defs>
  <g id="solution" transform="translate(-95 -1251)">
    <g id="Group_1927" data-name="Group 1927" transform="translate(137 1283)">
      <path id="Path_3434" data-name="Path 3434" class="cls-1" d="M76.678,53.523c0-16.609-14.9-29.923-31.5-29.923S13.8,36.914,13.8,53.523c0,6.591,2.768,12,6.459,17h0c2.373,3.164,4.614,3.823,6.723,7.382,3.164,5.4,3.823,8.7,3.955,11.864a3.465,3.465,0,0,0,3.427,3.3h1.845A.76.76,0,0,0,37,92.278V72.11a7.82,7.82,0,0,0-.659-3.032l-4.482-8.964a2.213,2.213,0,1,1,3.955-1.977l5.4,10.941a6.009,6.009,0,0,1,.659,3.032V92.278a.76.76,0,0,0,.791.791h5.141a.76.76,0,0,0,.791-.791V72.11a7.82,7.82,0,0,1,.659-3.032l5.4-10.941a2.273,2.273,0,0,1,1.977-1.186,2.239,2.239,0,0,1,1.977,3.164l-4.482,9.1a6.009,6.009,0,0,0-.659,3.032V92.278a.76.76,0,0,0,.791.791h1.977a3.448,3.448,0,0,0,3.427-3.164c.132-3.3,1.055-6.855,3.955-11.864,2.109-3.691,4.35-4.218,6.723-7.382h0C73.91,65.387,76.678,60.114,76.678,53.523ZM41.35,112.051H49a3.066,3.066,0,0,0,3.032-3.032A2.983,2.983,0,0,0,49,105.987H41.35a3.032,3.032,0,0,0,0,6.064Zm-4.218-9.359H53.346a3.066,3.066,0,0,0,3.032-3.032,2.983,2.983,0,0,0-3.032-3.032H37.132a3.032,3.032,0,1,0,0,6.064Z" transform="translate(4.073 7.191)"/>
      <line id="Line_123" data-name="Line 123" class="cls-2" x2="12.391" y2="12.523" transform="translate(1 23.409)"/>
      <line id="Line_124" data-name="Line 124" class="cls-2" x1="14.105" y2="14.237" transform="translate(85.233 21.696)"/>
      <line id="Line_125" data-name="Line 125" class="cls-2" y2="18.85" transform="translate(49.246 1)"/>
      <line id="Line_126" data-name="Line 126" class="cls-2" x2="6.986" y2="13.05" transform="translate(22.618 12.6)"/>
      <line id="Line_127" data-name="Line 127" class="cls-2" x1="7.25" y2="13.577" transform="translate(69.019 12.073)"/>
    </g>
    <g id="Ellipse_463" data-name="Ellipse 463" class="cls-3" transform="translate(95 1251)">
      <circle class="cls-4" cx="92" cy="92" r="92"/>
      <circle class="cls-5" cx="92" cy="92" r="90"/>
    </g>
  </g>
</svg>
