<svg xmlns="http://www.w3.org/2000/svg" xmlns:xlink="http://www.w3.org/1999/xlink" viewBox="0 0 169.458 149.154"><defs><style>.a{fill:#ffa91f;opacity:0.26;}.b{opacity:0.18;}.bc,.c{fill:#fff;}.c,.cs{opacity:0;}.bd,.d{fill:#fbfbfb;}.ct,.d{opacity:0.024;}.be,.e{fill:#f6f6f8;}.cu,.e{opacity:0.049;}.bf,.f{fill:#f2f2f4;}.cv,.f{opacity:0.073;}.bg,.g{fill:#ededf0;}.cw,.g{opacity:0.098;}.bh,.h{fill:#e9e9ed;}.cx,.h{opacity:0.122;}.bi,.i{fill:#e4e4e9;}.cy,.i{opacity:0.146;}.bj,.j{fill:#e0e0e6;}.cz,.j{opacity:0.171;}.bk,.k{fill:#dbdbe2;}.da,.k{opacity:0.195;}.bl,.l{fill:#d7d7de;}.db,.l{opacity:0.22;}.bm,.m{fill:#d2d2db;}.dc,.m{opacity:0.244;}.bn,.n{fill:#ceced7;}.dd,.n{opacity:0.268;}.bo,.o{fill:#c9c9d3;}.de,.o{opacity:0.293;}.bp,.p{fill:#c5c5d0;}.df,.p{opacity:0.317;}.bq,.q{fill:#c1c1cc;}.dg,.q{opacity:0.342;}.br,.r{fill:#bcbcc8;}.dh,.r{opacity:0.366;}.bs,.s{fill:#b8b8c5;}.di,.s{opacity:0.39;}.bt,.t{fill:#b3b3c1;}.dj,.t{opacity:0.415;}.bu,.u{fill:#afafbe;}.dk,.u{opacity:0.439;}.bv,.v{fill:#aaaaba;}.dl,.v{opacity:0.463;}.bw,.w{fill:#a6a6b6;}.dm,.w{opacity:0.488;}.bx,.x{fill:#a1a1b3;}.dn,.x{opacity:0.512;}.by,.y{fill:#9d9daf;}.do,.y{opacity:0.537;}.bz,.z{fill:#9898ab;}.dp,.z{opacity:0.561;}.aa,.ca{fill:#9494a8;}.aa,.dq{opacity:0.585;}.ab,.cb{fill:#8f8fa4;}.ab,.dr{opacity:0.61;}.ac,.cc{fill:#8b8ba1;}.ac,.ds{opacity:0.634;}.ad,.cd{fill:#86869d;}.ad,.dt{opacity:0.659;}.ae,.ce{fill:#828299;}.ae,.du{opacity:0.683;}.af,.cf{fill:#7e7e96;}.af,.dv{opacity:0.707;}.ag,.cg{fill:#797992;}.ag,.dw{opacity:0.732;}.ah,.ch{fill:#75758e;}.ah,.dx{opacity:0.756;}.ai,.ci{fill:#70708b;}.ai,.dy{opacity:0.78;}.aj,.cj{fill:#6c6c87;}.aj,.dz{opacity:0.805;}.ak,.ck{fill:#676783;}.ak,.ea{opacity:0.829;}.al,.cl{fill:#636380;}.al,.eb{opacity:0.854;}.am,.cm{fill:#5e5e7c;}.am,.ec{opacity:0.878;}.an,.cn{fill:#5a5a79;}.an,.ed{opacity:0.902;}.ao,.co{fill:#555575;}.ao,.ee{opacity:0.927;}.ap,.cp{fill:#515171;}.ap,.ef{opacity:0.951;}.aq,.cq{fill:#4c4c6e;}.aq,.eg{opacity:0.976;}.ar{fill:#48486a;}.as{fill:#f8f9fc;}.at{fill:#e5e9f4;}.au{fill:#edf0f8;}.av,.cs{fill:#ffc107;}.aw{fill:#ff9800;}.ax{fill:url(#a);}.ay{fill:#f0c3bf;}.az{fill:#f28378;}.ba{fill:#f0aaa3;}.bb{opacity:0.22;}.cr{fill:#f6f8fb;}.ct{fill:#ffc007;}.cu{fill:#ffbf07;}.cv{fill:#ffbe06;}.cw{fill:#ffbd06;}.cx{fill:#ffbc06;}.cy{fill:#ffbb06;}.cz{fill:#ffba06;}.da{fill:#ffb906;}.db{fill:#ffb805;}.dc{fill:#ffb705;}.dd{fill:#ffb605;}.de{fill:#ffb505;}.df{fill:#ffb405;}.dg{fill:#ffb305;}.dh{fill:#ffb204;}.di{fill:#ffb104;}.dj{fill:#ffb004;}.dk{fill:#ffaf04;}.dl{fill:#ffae04;}.dm{fill:#ffad04;}.dn{fill:#ffac03;}.do{fill:#ffab03;}.dp{fill:#ffaa03;}.dq{fill:#ffa903;}.dr{fill:#ffa803;}.ds{fill:#ffa703;}.dt{fill:#ffa602;}.du{fill:#ffa502;}.dv{fill:#ffa402;}.dw{fill:#ffa302;}.dx{fill:#ffa202;}.dy{fill:#ffa102;}.dz{fill:#ffa001;}.ea{fill:#ff9f01;}.eb{fill:#ff9e01;}.ec{fill:#ff9d01;}.ed{fill:#ff9c01;}.ee{fill:#ff9b01;}.ef{fill:#ff9a00;}.eg{fill:#f90;}.eh{fill:url(#b);}.ei{fill:#f7f7f7;}.ej{fill:#f46d60;}.ek{fill:#ffe69c;opacity:0.54;}.el{fill:url(#c);}.em{fill:url(#d);}.en{fill:#f9f7f9;}.eo{fill:#e5f1f4;}.ep{fill:#99a7d8;}.eq,.eu,.ey{fill:#231f20;}.eq{opacity:0.11;}.er{fill:url(#e);}.es{fill:#f2b1b5;}.et{fill:url(#f);}.eu,.ex{opacity:0.3;}.ev{fill:#98d1aa;}.ew{fill:#5c629e;}.ez{fill:url(#g);}</style><linearGradient id="a" x1="-161.088" y1="0.5" x2="-160.082" y2="0.5" gradientUnits="objectBoundingBox"><stop offset="0.15" stop-color="#ff9800"/><stop offset="1" stop-color="#ffc107"/></linearGradient><linearGradient id="b" x1="1.83" y1="0.451" x2="0" y2="0.382" gradientUnits="objectBoundingBox"><stop offset="0" stop-color="#f06557"/><stop offset="0.158" stop-color="#f06558"/><stop offset="0.468" stop-color="#f16659"/><stop offset="0.842" stop-color="#ff867b"/><stop offset="1" stop-color="#ff8477"/></linearGradient><linearGradient id="c" x1="-0.002" y1="0.499" x2="0.995" y2="0.499" gradientUnits="objectBoundingBox"><stop offset="0" stop-color="#d3daed"/><stop offset="1" stop-color="#99a7d8"/></linearGradient><linearGradient id="d" y1="0.113" x2="0" y2="1.037" gradientUnits="objectBoundingBox"><stop offset="0" stop-color="#f06557"/><stop offset="0.051" stop-color="#f06558"/><stop offset="0.312" stop-color="#f16659"/><stop offset="0.639" stop-color="#ff867b"/><stop offset="1" stop-color="#ff8477"/></linearGradient><linearGradient id="e" x1="-0.003" y1="0.502" x2="0.997" y2="0.502" xlink:href="#a"/><linearGradient id="f" x1="-0.001" y1="0.503" x2="1" y2="0.503" xlink:href="#a"/><linearGradient id="g" x1="0.027" y1="0.497" x2="1.01" y2="0.497" xlink:href="#a"/></defs><g transform="translate(19.265 -169.896)"><ellipse class="a" cx="80.501" cy="26.719" rx="80.501" ry="26.719" transform="translate(-19.265 269.162) rotate(-21)"/><g transform="translate(-15.435 169.896)"><g transform="translate(0 36.647)"><g class="b" transform="translate(7.865 77.986)"><path class="c" d="M144.3,154.086l8.351,4.515,7.784-4.286-8.351-4.515Z" transform="translate(-144.3 -149.8)"/><path class="d" d="M144.5,154.086l8.189,4.362,7.784-4.209-8.189-4.439Z" transform="translate(-144.5 -149.8)"/><path class="e" d="M144.8,154.086l7.946,4.286,7.784-4.209-7.946-4.362Z" transform="translate(-144.8 -149.8)"/><path class="f" d="M145,154.086l7.784,4.209,7.784-4.286-7.784-4.209Z" transform="translate(-145 -149.8)"/><path class="g" d="M145.2,154.086l7.621,4.056,7.784-4.209-7.621-4.133Z" transform="translate(-145.2 -149.8)"/><path class="h" d="M145.5,154.086l7.378,3.98,7.784-4.286-7.378-3.98Z" transform="translate(-145.5 -149.8)"/><path class="i" d="M145.7,154.086l7.216,3.9L160.7,153.7l-7.216-3.9Z" transform="translate(-145.7 -149.8)"/><path class="j" d="M146,154.086l7.054,3.75,7.7-4.209-6.973-3.827Z" transform="translate(-146 -149.8)"/><path class="k" d="M146.2,154.086l6.811,3.674,7.784-4.286-6.811-3.674Z" transform="translate(-146.2 -149.8)"/><path class="l" d="M146.4,154.086l6.648,3.52,7.784-4.209-6.649-3.6Z" transform="translate(-146.4 -149.8)"/><path class="m" d="M146.7,154.086l6.405,3.444,7.784-4.209-6.405-3.52Z" transform="translate(-146.7 -149.8)"/><path class="n" d="M146.9,154.086l6.243,3.367,7.784-4.286-6.243-3.367Z" transform="translate(-146.9 -149.8)"/><path class="o" d="M147.1,154.086l6.081,3.214,7.784-4.209-6.081-3.291Z" transform="translate(-147.1 -149.8)"/><path class="p" d="M147.4,154.086l5.838,3.138,7.784-4.286-5.838-3.138Z" transform="translate(-147.4 -149.8)"/><path class="q" d="M147.6,154.086l5.676,3.061,7.784-4.286-5.676-3.061Z" transform="translate(-147.6 -149.8)"/><path class="r" d="M147.9,154.086l5.432,2.908,7.784-4.209-5.432-2.985Z" transform="translate(-147.9 -149.8)"/><path class="s" d="M148.1,154.086l5.27,2.832,7.784-4.286-5.27-2.832Z" transform="translate(-148.1 -149.8)"/><path class="t" d="M148.3,154.086l5.108,2.755,7.784-4.286-5.108-2.755Z" transform="translate(-148.3 -149.8)"/><path class="u" d="M148.6,154.086l4.865,2.6,7.784-4.209-4.865-2.679Z" transform="translate(-148.6 -149.8)"/><path class="v" d="M148.8,154.086l4.7,2.526,7.784-4.286-4.7-2.526Z" transform="translate(-148.8 -149.8)"/><path class="w" d="M149,154.086l4.54,2.372,7.784-4.209-4.54-2.449Z" transform="translate(-149 -149.8)"/><path class="x" d="M149.3,154.086l4.3,2.3,7.784-4.286-4.3-2.3Z" transform="translate(-149.3 -149.8)"/><path class="y" d="M149.5,154.086l4.135,2.219,7.784-4.286-4.135-2.219Z" transform="translate(-149.5 -149.8)"/><path class="z" d="M149.8,154.086l3.892,2.066,7.784-4.209-3.892-2.143Z" transform="translate(-149.8 -149.8)"/><path class="aa" d="M150,154.086l3.73,1.99,7.784-4.286-3.73-1.99Z" transform="translate(-150 -149.8)"/><path class="ab" d="M150.2,154.086,153.768,156l7.784-4.286-3.567-1.913Z" transform="translate(-150.2 -149.8)"/><path class="ac" d="M150.5,154.086l3.324,1.76,7.784-4.209-3.324-1.837Z" transform="translate(-150.5 -149.8)"/><path class="ad" d="M150.7,154.086l3.162,1.684,7.784-4.286-3.162-1.684Z" transform="translate(-150.7 -149.8)"/><path class="ae" d="M151,154.086l2.919,1.607,7.784-4.286-2.919-1.607Z" transform="translate(-151 -149.8)"/><path class="af" d="M151.2,154.086l2.757,1.454,7.784-4.286-2.757-1.454Z" transform="translate(-151.2 -149.8)"/><path class="ag" d="M151.4,154.086l2.595,1.378,7.784-4.286-2.595-1.378Z" transform="translate(-151.4 -149.8)"/><path class="ah" d="M151.7,154.086l2.351,1.225,7.784-4.209-2.351-1.3Z" transform="translate(-151.7 -149.8)"/><path class="ai" d="M151.9,154.086l2.189,1.148,7.784-4.286-2.189-1.148Z" transform="translate(-151.9 -149.8)"/><path class="aj" d="M152.1,154.086l1.946,1.071,7.865-4.286-2.027-1.071Z" transform="translate(-152.1 -149.8)"/><path class="ak" d="M152.4,154.086l1.784.918,7.784-4.209-1.784-.995Z" transform="translate(-152.4 -149.8)"/><path class="al" d="M152.6,154.086l1.622.842,7.784-4.286-1.622-.842Z" transform="translate(-152.6 -149.8)"/><path class="am" d="M152.9,154.086l1.378.765,7.784-4.286-1.378-.765Z" transform="translate(-152.9 -149.8)"/><path class="an" d="M153.1,154.086l1.216.612,7.784-4.286-1.216-.612Z" transform="translate(-153.1 -149.8)"/><path class="ao" d="M153.3,154.086l1.054.536,7.784-4.286-1.054-.536Z" transform="translate(-153.3 -149.8)"/><path class="ap" d="M153.6,154.086l.811.459,7.784-4.286-.811-.459Z" transform="translate(-153.6 -149.8)"/><path class="aq" d="M153.8,154.086l.649.306,7.784-4.286-.649-.306Z" transform="translate(-153.8 -149.8)"/><path class="ar" d="M154.1,154.086l.405.23,7.784-4.286-.405-.23Z" transform="translate(-154.1 -149.8)"/></g><g class="b" transform="translate(20.513 71.022)"><path class="c" d="M128.7,144.986l8.351,4.515,7.784-4.209-8.351-4.592Z" transform="translate(-128.7 -140.7)"/><path class="d" d="M128.9,144.986l8.189,4.439,7.784-4.286-8.189-4.439Z" transform="translate(-128.9 -140.7)"/><path class="e" d="M129.2,144.986l8.027,4.286,7.7-4.209-7.946-4.362Z" transform="translate(-129.2 -140.7)"/><path class="f" d="M129.4,144.986l7.784,4.209,7.784-4.209-7.784-4.286Z" transform="translate(-129.4 -140.7)"/><path class="g" d="M129.6,144.986l7.621,4.133,7.784-4.286-7.621-4.133Z" transform="translate(-129.6 -140.7)"/><path class="h" d="M129.9,144.986l7.378,3.98,7.784-4.209-7.378-4.056Z" transform="translate(-129.9 -140.7)"/><path class="i" d="M130.1,144.986l7.216,3.9L145.1,144.6l-7.216-3.9Z" transform="translate(-130.1 -140.7)"/><path class="j" d="M130.3,144.986l7.054,3.827,7.784-4.286-7.054-3.827Z" transform="translate(-130.3 -140.7)"/><path class="k" d="M130.6,144.986l6.811,3.674,7.784-4.209-6.811-3.75Z" transform="translate(-130.6 -140.7)"/><path class="l" d="M130.8,144.986l6.648,3.6,7.784-4.286-6.648-3.6Z" transform="translate(-130.8 -140.7)"/><path class="m" d="M131.1,144.986l6.405,3.444,7.784-4.209-6.405-3.52Z" transform="translate(-131.1 -140.7)"/><path class="n" d="M131.3,144.986l6.243,3.367,7.784-4.209-6.243-3.444Z" transform="translate(-131.3 -140.7)"/><path class="o" d="M131.5,144.986l6.081,3.291,7.784-4.286-6.081-3.291Z" transform="translate(-131.5 -140.7)"/><path class="p" d="M131.8,144.986l5.838,3.138,7.784-4.209-5.838-3.214Z" transform="translate(-131.8 -140.7)"/><path class="q" d="M132,144.986l5.676,3.061,7.784-4.286-5.676-3.061Z" transform="translate(-132 -140.7)"/><path class="r" d="M132.3,144.986l5.432,2.985,7.784-4.286-5.432-2.985Z" transform="translate(-132.3 -140.7)"/><path class="s" d="M132.5,144.986l5.27,2.832,7.784-4.209-5.27-2.908Z" transform="translate(-132.5 -140.7)"/><path class="t" d="M132.7,144.986l5.108,2.755,7.784-4.286-5.108-2.755Z" transform="translate(-132.7 -140.7)"/><path class="u" d="M133,144.986l4.865,2.679,7.784-4.286-4.865-2.679Z" transform="translate(-133 -140.7)"/><path class="v" d="M133.2,144.986l4.7,2.526,7.784-4.209-4.7-2.6Z" transform="translate(-133.2 -140.7)"/><path class="w" d="M133.4,144.986l4.54,2.449,7.784-4.286-4.54-2.449Z" transform="translate(-133.4 -140.7)"/><path class="x" d="M133.7,144.986l4.3,2.3,7.784-4.209-4.3-2.372Z" transform="translate(-133.7 -140.7)"/><path class="y" d="M133.9,144.986l4.135,2.219,7.784-4.286-4.135-2.219Z" transform="translate(-133.9 -140.7)"/><path class="z" d="M134.2,144.986l3.892,2.143,7.784-4.286-3.892-2.143Z" transform="translate(-134.2 -140.7)"/><path class="aa" d="M134.4,144.986l3.73,1.99,7.784-4.209-3.73-2.066Z" transform="translate(-134.4 -140.7)"/><path class="ab" d="M134.6,144.986l3.568,1.913,7.784-4.286-3.567-1.913Z" transform="translate(-134.6 -140.7)"/><path class="ac" d="M134.9,144.986l3.324,1.837,7.784-4.286-3.324-1.837Z" transform="translate(-134.9 -140.7)"/><path class="ad" d="M135.1,144.986l3.162,1.684,7.784-4.209-3.162-1.76Z" transform="translate(-135.1 -140.7)"/><path class="ae" d="M135.3,144.986l2.919,1.607,7.865-4.286-3-1.607Z" transform="translate(-135.3 -140.7)"/><path class="af" d="M135.6,144.986l2.757,1.531,7.784-4.286-2.757-1.531Z" transform="translate(-135.6 -140.7)"/><path class="ag" d="M135.8,144.986l2.595,1.378,7.784-4.286-2.595-1.378Z" transform="translate(-135.8 -140.7)"/><path class="ah" d="M136.1,144.986l2.351,1.3L146.235,142l-2.351-1.3Z" transform="translate(-136.1 -140.7)"/><path class="ai" d="M136.3,144.986l2.189,1.148,7.784-4.209-2.189-1.225Z" transform="translate(-136.3 -140.7)"/><path class="aj" d="M136.5,144.986l2.027,1.071,7.784-4.286-2.027-1.071Z" transform="translate(-136.5 -140.7)"/><path class="ak" d="M136.8,144.986l1.784.995,7.784-4.286-1.784-.995Z" transform="translate(-136.8 -140.7)"/><path class="al" d="M137,144.986l1.622.842,7.784-4.209-1.622-.918Z" transform="translate(-137 -140.7)"/><path class="am" d="M137.3,144.986l1.378.765,7.784-4.286-1.378-.765Z" transform="translate(-137.3 -140.7)"/><path class="an" d="M137.5,144.986l1.216.689,7.784-4.286-1.216-.689Z" transform="translate(-137.5 -140.7)"/><path class="ao" d="M137.7,144.986l1.054.536,7.784-4.286-1.054-.536Z" transform="translate(-137.7 -140.7)"/><path class="ap" d="M138,144.986l.811.459,7.784-4.286-.811-.459Z" transform="translate(-138 -140.7)"/><path class="aq" d="M138.2,144.986l.649.383,7.784-4.286-.649-.383Z" transform="translate(-138.2 -140.7)"/><path class="ar" d="M138.4,144.986l.405.23,7.865-4.286-.486-.23Z" transform="translate(-138.4 -140.7)"/></g><g class="b" transform="translate(33.324 64.287)"><path class="c" d="M112.9,136.186l8.351,4.515,7.784-4.286-8.27-4.515Z" transform="translate(-112.9 -131.9)"/><path class="d" d="M113.1,136.186l8.189,4.362,7.784-4.209-8.108-4.439Z" transform="translate(-113.1 -131.9)"/><path class="e" d="M113.3,136.186l8.027,4.286,7.784-4.209-7.946-4.362Z" transform="translate(-113.3 -131.9)"/><path class="f" d="M113.6,136.186l7.784,4.209,7.784-4.286-7.7-4.209Z" transform="translate(-113.6 -131.9)"/><path class="g" d="M113.8,136.186l7.621,4.056,7.784-4.209-7.54-4.133Z" transform="translate(-113.8 -131.9)"/><path class="h" d="M114.1,136.186l7.459,3.98,7.7-4.209-7.3-4.056Z" transform="translate(-114.1 -131.9)"/><path class="i" d="M114.3,136.186l7.216,3.9L129.3,135.8l-7.135-3.9Z" transform="translate(-114.3 -131.9)"/><path class="j" d="M114.5,136.186l7.054,3.75,7.784-4.209-6.973-3.827Z" transform="translate(-114.5 -131.9)"/><path class="k" d="M114.8,136.186l6.811,3.674,7.784-4.286-6.73-3.674Z" transform="translate(-114.8 -131.9)"/><path class="l" d="M115,136.186l6.649,3.6,7.784-4.286-6.567-3.6Z" transform="translate(-115 -131.9)"/><path class="m" d="M115.2,136.186l6.486,3.444,7.784-4.209-6.405-3.52Z" transform="translate(-115.2 -131.9)"/><path class="n" d="M115.5,136.186l6.243,3.367,7.784-4.286-6.162-3.367Z" transform="translate(-115.5 -131.9)"/><path class="o" d="M115.7,136.186l6.081,3.214,7.784-4.209-6-3.291Z" transform="translate(-115.7 -131.9)"/><path class="p" d="M116,136.186l5.838,3.138,7.784-4.209-5.757-3.214Z" transform="translate(-116 -131.9)"/><path class="q" d="M116.2,136.186l5.676,3.061,7.784-4.286-5.594-3.061Z" transform="translate(-116.2 -131.9)"/><path class="r" d="M116.4,136.186l5.513,2.908,7.784-4.209-5.432-2.985Z" transform="translate(-116.4 -131.9)"/><path class="s" d="M116.7,136.186l5.27,2.832,7.784-4.286-5.189-2.832Z" transform="translate(-116.7 -131.9)"/><path class="t" d="M116.9,136.186l5.108,2.755,7.784-4.286-5.027-2.755Z" transform="translate(-116.9 -131.9)"/><path class="u" d="M117.1,136.186l4.946,2.6,7.784-4.209-4.865-2.679Z" transform="translate(-117.1 -131.9)"/><path class="v" d="M117.4,136.186l4.7,2.526,7.784-4.286-4.622-2.526Z" transform="translate(-117.4 -131.9)"/><path class="w" d="M117.6,136.186l4.54,2.449,7.784-4.286-4.459-2.449Z" transform="translate(-117.6 -131.9)"/><path class="x" d="M117.9,136.186l4.3,2.3,7.784-4.209-4.216-2.373Z" transform="translate(-117.9 -131.9)"/><path class="y" d="M118.1,136.186l4.135,2.219,7.784-4.286-4.054-2.219Z" transform="translate(-118.1 -131.9)"/><path class="z" d="M118.3,136.186l3.973,2.066,7.784-4.209-3.892-2.143Z" transform="translate(-118.3 -131.9)"/><path class="aa" d="M118.6,136.186l3.73,1.99,7.784-4.286-3.649-1.99Z" transform="translate(-118.6 -131.9)"/><path class="ab" d="M118.8,136.186l3.567,1.913,7.784-4.286-3.486-1.913Z" transform="translate(-118.8 -131.9)"/><path class="ac" d="M119.1,136.186l3.324,1.76,7.784-4.209-3.243-1.837Z" transform="translate(-119.1 -131.9)"/><path class="ad" d="M119.3,136.186l3.162,1.684,7.784-4.286-3.081-1.684Z" transform="translate(-119.3 -131.9)"/><path class="ae" d="M119.5,136.186l3,1.607,7.784-4.286-2.919-1.607Z" transform="translate(-119.5 -131.9)"/><path class="af" d="M119.8,136.186l2.757,1.454,7.784-4.209-2.676-1.531Z" transform="translate(-119.8 -131.9)"/><path class="ag" d="M120,136.186l2.595,1.378,7.784-4.286-2.513-1.378Z" transform="translate(-120 -131.9)"/><path class="ah" d="M120.2,136.186l2.432,1.3,7.784-4.286-2.351-1.3Z" transform="translate(-120.2 -131.9)"/><path class="ai" d="M120.5,136.186l2.189,1.148,7.784-4.286-2.108-1.148Z" transform="translate(-120.5 -131.9)"/><path class="aj" d="M120.7,136.186l2.027,1.071,7.784-4.286-1.946-1.071Z" transform="translate(-120.7 -131.9)"/><path class="ak" d="M121,136.186l1.784.918,7.784-4.209-1.7-.995Z" transform="translate(-121 -131.9)"/><path class="al" d="M121.2,136.186l1.622.842,7.784-4.286-1.541-.842Z" transform="translate(-121.2 -131.9)"/><path class="am" d="M121.4,136.186l1.459.765,7.784-4.286-1.378-.765Z" transform="translate(-121.4 -131.9)"/><path class="an" d="M121.7,136.186l1.216.612,7.784-4.209-1.135-.689Z" transform="translate(-121.7 -131.9)"/><path class="ao" d="M121.9,136.186l1.054.536,7.784-4.286-.973-.536Z" transform="translate(-121.9 -131.9)"/><path class="ap" d="M122.1,136.186l.811.459,7.865-4.286-.811-.459Z" transform="translate(-122.1 -131.9)"/><path class="aq" d="M122.4,136.186l.649.306,7.784-4.286-.568-.306Z" transform="translate(-122.4 -131.9)"/><path class="ar" d="M122.6,136.186l.486.23,7.784-4.286-.405-.23Z" transform="translate(-122.6 -131.9)"/></g><path class="as" d="M123.2,52.262l7.946-4.362,7.784,4.362-7.784,4.286Z" transform="translate(-97.822 -47.9)"/><path class="at" d="M132.8,53.6v60.154l7.946,4.056V57.886Z" transform="translate(-107.422 -49.238)"/><path class="au" d="M130.984,53.6v59.848L123.2,117.81V57.886Z" transform="translate(-89.876 -49.238)"/><path class="av" d="M138.9,88.162l7.946-4.362,7.7,4.362-7.7,4.286Z" transform="translate(-126.171 -56.325)"/><path class="aw" d="M148.4,89.5v39.491l7.946,4.133V93.786Z" transform="translate(-135.671 -57.663)"/><path class="ax" d="M146.6,89.5v39.261l-7.7,4.362V93.786Z" transform="translate(-118.225 -57.663)"/><path class="ay" d="M154.5,78.862l7.946-4.362,7.784,4.362-7.784,4.286Z" transform="translate(-154.5 -54.142)"/><path class="az" d="M164.1,80.2v53.5l7.946,4.056V84.486Z" transform="translate(-164.1 -55.48)"/><path class="ba" d="M162.284,80.2v53.266l-7.784,4.286V84.486Z" transform="translate(-146.554 -55.48)"/></g><g class="bb" transform="translate(104.998 51.8)"><path class="bc" d="M20.513,67.7,36,76.272,15.486,87.445,0,78.874Z" transform="translate(0 -67.7)"/><path class="bd" d="M20.913,67.7l15.162,8.342L15.562,87.216.4,78.874Z" transform="translate(-0.4 -67.7)"/><path class="be" d="M21.313,67.7l14.837,8.189L15.637,87.063.8,78.874Z" transform="translate(-0.8 -67.7)"/><path class="bf" d="M21.713,67.7l14.513,7.959L15.713,86.833,1.2,78.874Z" transform="translate(-1.2 -67.7)"/><path class="bg" d="M22.113,67.7,36.3,75.506,15.789,86.68,1.6,78.874Z" transform="translate(-1.6 -67.7)"/><path class="bh" d="M22.513,67.7l13.865,7.653L15.865,86.527,2,78.874Z" transform="translate(-2 -67.7)"/><path class="bi" d="M23.013,67.7l13.459,7.424L16.04,86.3,2.5,78.874Z" transform="translate(-2.5 -67.7)"/><path class="bj" d="M23.413,67.7l13.135,7.271L16.116,86.144,2.9,78.874Z" transform="translate(-2.9 -67.7)"/><path class="bk" d="M23.813,67.7l12.811,7.041L16.192,85.915,3.3,78.874Z" transform="translate(-3.3 -67.7)"/><path class="bl" d="M24.213,67.7,36.7,74.588,16.186,85.762,3.7,78.874Z" transform="translate(-3.7 -67.7)"/><path class="bm" d="M24.613,67.7l12.162,6.735L16.262,85.609,4.1,78.874Z" transform="translate(-4.1 -67.7)"/><path class="bn" d="M25.013,67.7l11.838,6.505L16.338,85.379,4.5,78.874Z" transform="translate(-4.5 -67.7)"/><path class="bo" d="M25.413,67.7l11.513,6.352L16.413,85.226,4.9,78.874Z" transform="translate(-4.9 -67.7)"/><path class="bp" d="M25.813,67.7,37,73.823,16.489,85,5.3,78.874Z" transform="translate(-5.3 -67.7)"/><path class="bq" d="M26.213,67.7l10.865,5.97L16.565,84.843,5.7,78.874Z" transform="translate(-5.7 -67.7)"/><path class="br" d="M26.613,67.7l10.54,5.816L16.64,84.69,6.1,78.874Z" transform="translate(-6.1 -67.7)"/><path class="bs" d="M27.113,67.7l10.135,5.587L16.816,84.461,6.6,78.874Z" transform="translate(-6.6 -67.7)"/><path class="bt" d="M27.513,67.7l9.811,5.434L16.892,84.307,7,78.874Z" transform="translate(-7 -67.7)"/><path class="bu" d="M27.913,67.7,37.4,72.981l-20.432,11.1L7.4,78.874Z" transform="translate(-7.4 -67.7)"/><path class="bv" d="M28.313,67.7l9.162,5.051L16.962,83.925,7.8,78.874Z" transform="translate(-7.8 -67.7)"/><path class="bw" d="M28.713,67.7l8.838,4.9L17.038,83.772,8.2,78.874Z" transform="translate(-8.2 -67.7)"/><path class="bx" d="M29.113,67.7l8.513,4.668L17.113,83.542,8.6,78.874Z" transform="translate(-8.6 -67.7)"/><path class="by" d="M29.513,67.7,37.7,72.215,17.189,83.389,9,78.874Z" transform="translate(-9 -67.7)"/><path class="bz" d="M29.913,67.7l7.865,4.362-20.513,11.1L9.4,78.874Z" transform="translate(-9.4 -67.7)"/><path class="ca" d="M30.313,67.7l7.54,4.133L17.34,83.006,9.8,78.874Z" transform="translate(-9.8 -67.7)"/><path class="cb" d="M30.713,67.7l7.216,3.98L17.416,82.853,10.2,78.874Z" transform="translate(-10.2 -67.7)"/><path class="cc" d="M31.113,67.7,38,71.45,17.492,82.624,10.6,78.874Z" transform="translate(-10.6 -67.7)"/><path class="cd" d="M31.613,67.7,38.1,71.3,17.667,82.471l-6.567-3.6Z" transform="translate(-11.1 -67.7)"/><path class="ce" d="M32.013,67.7l6.162,3.444-20.432,11.1L11.5,78.874Z" transform="translate(-11.5 -67.7)"/><path class="cf" d="M32.413,67.7l5.838,3.214L17.819,82.088,11.9,78.874Z" transform="translate(-11.9 -67.7)"/><path class="cg" d="M32.813,67.7l5.513,3.061L17.813,81.935,12.3,78.874Z" transform="translate(-12.3 -67.7)"/><path class="ch" d="M33.213,67.7,38.4,70.532,17.889,81.705,12.7,78.874Z" transform="translate(-12.7 -67.7)"/><path class="ci" d="M33.613,67.7l4.865,2.679L17.965,81.552,13.1,78.874Z" transform="translate(-13.1 -67.7)"/><path class="cj" d="M34.013,67.7l4.54,2.526L18.04,81.4,13.5,78.874Z" transform="translate(-13.5 -67.7)"/><path class="ck" d="M34.413,67.7,38.629,70,18.116,81.17l-4.216-2.3Z" transform="translate(-13.9 -67.7)"/><path class="cl" d="M34.813,67.7,38.7,69.843,18.192,81.017,14.3,78.874Z" transform="translate(-14.3 -67.7)"/><path class="cm" d="M35.213,67.7l3.567,1.913L18.267,80.787,14.7,78.874Z" transform="translate(-14.7 -67.7)"/><path class="cn" d="M35.613,67.7l3.243,1.76L18.343,80.634,15.1,78.874Z" transform="translate(-15.1 -67.7)"/><path class="co" d="M36.113,67.7l2.838,1.607L18.519,80.481,15.6,78.874Z" transform="translate(-15.6 -67.7)"/><path class="cp" d="M36.513,67.7l2.513,1.378L18.595,80.251,16,78.874Z" transform="translate(-16 -67.7)"/><path class="cq" d="M36.913,67.7,39.1,68.925,18.67,80.1,16.4,78.874Z" transform="translate(-16.4 -67.7)"/><path class="ar" d="M37.313,67.7l1.865.995L18.665,79.869,16.8,78.874Z" transform="translate(-16.8 -67.7)"/></g><g transform="translate(88.316 21.799)"><path class="cr" d="M33.7,50.189a7.235,7.235,0,0,1,6.162,0L54.7,58.3c1.7.918,1.7,2.449,0,3.367L39.783,69.781a7.235,7.235,0,0,1-6.162,0L18.7,61.669C17,60.75,17,59.22,18.7,58.3Z" transform="translate(-17.425 -33.428)"/><g transform="translate(3.486 8.457)"><path class="cs" d="M34.921,54.324a5.79,5.79,0,0,1,5.027,0l12.243,6.658c1.378.765,1.378,1.99,0,2.755L40.029,70.472a5.79,5.79,0,0,1-5.027,0L22.759,63.814c-1.378-.765-1.378-1.99,0-2.755Z" transform="translate(-21.644 -42.882)"/><path class="ct" d="M34.921,54.024a5.79,5.79,0,0,1,5.027,0l12.243,6.658c1.378.765,1.378,1.99,0,2.755L40.029,70.172a5.79,5.79,0,0,1-5.027,0L22.759,63.514c-1.378-.765-1.378-1.99,0-2.755Z" transform="translate(-21.644 -42.812)"/><path class="cu" d="M34.921,53.624a5.79,5.79,0,0,1,5.027,0l12.243,6.658c1.378.765,1.378,1.99,0,2.755L40.029,69.772a5.79,5.79,0,0,1-5.027,0L22.759,63.114c-1.378-.765-1.378-1.99,0-2.755Z" transform="translate(-21.644 -42.718)"/><path class="cv" d="M34.921,53.324a5.79,5.79,0,0,1,5.027,0l12.243,6.658c1.378.765,1.378,1.99,0,2.755L40.029,69.472a5.79,5.79,0,0,1-5.027,0L22.759,62.814c-1.378-.765-1.378-1.99,0-2.755Z" transform="translate(-21.644 -42.648)"/><path class="cw" d="M34.921,52.924a5.79,5.79,0,0,1,5.027,0l12.243,6.658c1.378.765,1.378,1.99,0,2.755L40.029,69.072a5.79,5.79,0,0,1-5.027,0L22.759,62.414c-1.378-.765-1.378-1.99,0-2.755Z" transform="translate(-21.644 -42.554)"/><path class="cx" d="M34.921,52.624a5.79,5.79,0,0,1,5.027,0l12.243,6.658c1.378.765,1.378,1.99,0,2.755L40.029,68.772a5.79,5.79,0,0,1-5.027,0L22.759,62.114c-1.378-.765-1.378-1.99,0-2.755Z" transform="translate(-21.644 -42.484)"/><path class="cy" d="M34.921,52.324a5.79,5.79,0,0,1,5.027,0l12.243,6.658c1.378.765,1.378,1.99,0,2.755L40.029,68.4A5.79,5.79,0,0,1,35,68.4L22.759,61.737c-1.378-.765-1.378-1.99,0-2.755Z" transform="translate(-21.644 -42.413)"/><path class="cz" d="M34.921,51.924a5.79,5.79,0,0,1,5.027,0l12.243,6.658c1.378.765,1.378,1.99,0,2.755L40.029,68.072a5.79,5.79,0,0,1-5.027,0L22.759,61.414c-1.378-.765-1.378-1.99,0-2.755Z" transform="translate(-21.644 -42.319)"/><path class="da" d="M34.921,51.624a5.79,5.79,0,0,1,5.027,0l12.243,6.658c1.378.765,1.378,1.99,0,2.755L40.029,67.7A5.79,5.79,0,0,1,35,67.7L22.759,61.037c-1.378-.765-1.378-1.99,0-2.755Z" transform="translate(-21.644 -42.249)"/><path class="db" d="M34.921,51.224a5.79,5.79,0,0,1,5.027,0l12.243,6.658c1.378.765,1.378,1.99,0,2.755L40.029,67.372a5.79,5.79,0,0,1-5.027,0L22.759,60.714c-1.378-.765-1.378-1.99,0-2.755Z" transform="translate(-21.644 -42.155)"/><path class="dc" d="M34.921,50.924a5.79,5.79,0,0,1,5.027,0l12.243,6.658c1.378.765,1.378,1.99,0,2.755L40.029,67A5.79,5.79,0,0,1,35,67L22.759,60.337c-1.378-.765-1.378-1.99,0-2.755Z" transform="translate(-21.644 -42.085)"/><path class="dd" d="M34.921,50.524a5.79,5.79,0,0,1,5.027,0l12.243,6.658c1.378.765,1.378,1.99,0,2.755L40.029,66.672a5.79,5.79,0,0,1-5.027,0L22.759,60.014c-1.378-.765-1.378-1.99,0-2.755Z" transform="translate(-21.644 -41.991)"/><path class="de" d="M34.921,50.224a5.79,5.79,0,0,1,5.027,0l12.243,6.658c1.378.765,1.378,1.99,0,2.755L40.029,66.3A5.79,5.79,0,0,1,35,66.3L22.759,59.637c-1.378-.765-1.378-1.99,0-2.755Z" transform="translate(-21.644 -41.92)"/><path class="df" d="M34.921,49.824a5.79,5.79,0,0,1,5.027,0l12.243,6.658c1.378.765,1.378,1.99,0,2.755L40.029,65.972a5.79,5.79,0,0,1-5.027,0L22.759,59.314c-1.378-.765-1.378-1.99,0-2.755Z" transform="translate(-21.644 -41.826)"/><path class="dg" d="M35,49.524a5.79,5.79,0,0,1,5.027,0l12.243,6.658c1.378.765,1.378,1.99,0,2.755L40.11,65.6a5.79,5.79,0,0,1-5.027,0L22.759,58.937c-1.378-.765-1.378-1.99,0-2.755Z" transform="translate(-21.725 -41.756)"/><path class="dh" d="M34.921,49.124a5.79,5.79,0,0,1,5.027,0l12.243,6.658c1.378.765,1.378,1.99,0,2.755L40.029,65.272a5.79,5.79,0,0,1-5.027,0L22.759,58.614c-1.378-.765-1.378-1.99,0-2.755Z" transform="translate(-21.644 -41.662)"/><path class="di" d="M34.921,48.824a5.79,5.79,0,0,1,5.027,0l12.243,6.658c1.378.765,1.378,1.99,0,2.755L40.029,64.9A5.79,5.79,0,0,1,35,64.9L22.759,58.237c-1.378-.765-1.378-1.99,0-2.755Z" transform="translate(-21.644 -41.592)"/><path class="dj" d="M35,48.424a5.79,5.79,0,0,1,5.027,0l12.243,6.658c1.378.765,1.378,1.99,0,2.755L40.11,64.572a5.79,5.79,0,0,1-5.027,0L22.759,57.914c-1.378-.765-1.378-1.99,0-2.755Z" transform="translate(-21.725 -41.498)"/><path class="dk" d="M34.821,48.124a5.79,5.79,0,0,1,5.027,0l12.324,6.658c1.378.765,1.378,1.99,0,2.755L39.929,64.272a5.79,5.79,0,0,1-5.027,0L22.659,57.614c-1.378-.765-1.378-1.99,0-2.755Z" transform="translate(-21.544 -41.427)"/><path class="dl" d="M34.921,47.724a5.79,5.79,0,0,1,5.027,0l12.243,6.658c1.378.765,1.378,1.99,0,2.755L40.029,63.872a5.79,5.79,0,0,1-5.027,0L22.759,57.214c-1.378-.765-1.378-1.99,0-2.755Z" transform="translate(-21.644 -41.334)"/><path class="dm" d="M34.921,47.424a5.79,5.79,0,0,1,5.027,0l12.243,6.658c1.378.765,1.378,1.99,0,2.755L40.029,63.572a5.79,5.79,0,0,1-5.027,0L22.759,56.914c-1.378-.765-1.378-1.99,0-2.755Z" transform="translate(-21.644 -41.263)"/><path class="dn" d="M34.821,47.024a5.79,5.79,0,0,1,5.027,0l12.324,6.735c1.378.765,1.378,1.99,0,2.755L39.929,63.172a5.79,5.79,0,0,1-5.027,0L22.659,56.514c-1.378-.765-1.378-1.99,0-2.755Z" transform="translate(-21.544 -41.169)"/><path class="do" d="M34.921,46.724a5.79,5.79,0,0,1,5.027,0l12.243,6.658c1.378.765,1.378,1.99,0,2.755L40.029,62.872a5.79,5.79,0,0,1-5.027,0L22.759,56.214c-1.378-.765-1.378-1.99,0-2.755Z" transform="translate(-21.644 -41.099)"/><path class="dp" d="M34.921,46.324a5.79,5.79,0,0,1,5.027,0l12.243,6.658c1.378.765,1.378,1.99,0,2.755L40.029,62.472a5.79,5.79,0,0,1-5.027,0L22.759,55.814c-1.378-.765-1.378-1.99,0-2.755Z" transform="translate(-21.644 -41.005)"/><path class="dq" d="M34.921,46.024a5.79,5.79,0,0,1,5.027,0l12.243,6.658c1.378.765,1.378,1.99,0,2.755L40.029,62.172a5.79,5.79,0,0,1-5.027,0L22.759,55.514c-1.378-.765-1.378-1.99,0-2.755Z" transform="translate(-21.644 -40.935)"/><path class="dr" d="M34.921,45.724a5.79,5.79,0,0,1,5.027,0l12.243,6.658c1.378.765,1.378,1.99,0,2.755L40.029,61.8A5.79,5.79,0,0,1,35,61.8L22.759,55.137c-1.378-.765-1.378-1.99,0-2.755Z" transform="translate(-21.644 -40.864)"/><path class="ds" d="M34.921,45.324a5.79,5.79,0,0,1,5.027,0l12.243,6.658c1.378.765,1.378,1.99,0,2.755L40.029,61.472a5.79,5.79,0,0,1-5.027,0L22.759,54.814c-1.378-.765-1.378-1.99,0-2.755Z" transform="translate(-21.644 -40.77)"/><path class="dt" d="M34.921,45.024a5.79,5.79,0,0,1,5.027,0l12.243,6.658c1.378.765,1.378,1.99,0,2.755L40.029,61.1A5.79,5.79,0,0,1,35,61.1L22.759,54.437c-1.378-.765-1.378-1.99,0-2.755Z" transform="translate(-21.644 -40.7)"/><path class="du" d="M34.921,44.624a5.79,5.79,0,0,1,5.027,0l12.243,6.658c1.378.765,1.378,1.99,0,2.755L40.029,60.772a5.79,5.79,0,0,1-5.027,0L22.759,54.114c-1.378-.765-1.378-1.99,0-2.755Z" transform="translate(-21.644 -40.606)"/><path class="dv" d="M34.921,44.324a5.79,5.79,0,0,1,5.027,0l12.243,6.658c1.378.765,1.378,1.99,0,2.755L40.029,60.4A5.79,5.79,0,0,1,35,60.4L22.759,53.737c-1.378-.765-1.378-1.99,0-2.755Z" transform="translate(-21.644 -40.536)"/><path class="dw" d="M34.921,43.924a5.79,5.79,0,0,1,5.027,0l12.243,6.658c1.378.765,1.378,1.99,0,2.755L40.029,60.072a5.79,5.79,0,0,1-5.027,0L22.759,53.414c-1.378-.765-1.378-1.99,0-2.755Z" transform="translate(-21.644 -40.442)"/><path class="dx" d="M34.921,43.624a5.79,5.79,0,0,1,5.027,0l12.243,6.658c1.378.765,1.378,1.99,0,2.755L40.029,59.7A5.79,5.79,0,0,1,35,59.7L22.759,53.037c-1.378-.765-1.378-1.99,0-2.755Z" transform="translate(-21.644 -40.371)"/><path class="dy" d="M34.921,43.224a5.79,5.79,0,0,1,5.027,0l12.243,6.658c1.378.765,1.378,1.99,0,2.755L40.029,59.372a5.79,5.79,0,0,1-5.027,0L22.759,52.714c-1.378-.765-1.378-1.99,0-2.755Z" transform="translate(-21.644 -40.278)"/><path class="dz" d="M34.921,42.924a5.79,5.79,0,0,1,5.027,0l12.243,6.658c1.378.765,1.378,1.99,0,2.755L40.029,59A5.79,5.79,0,0,1,35,59L22.759,52.337c-1.378-.765-1.378-1.99,0-2.755Z" transform="translate(-21.644 -40.207)"/><path class="ea" d="M34.921,42.524a5.79,5.79,0,0,1,5.027,0l12.243,6.658c1.378.765,1.378,1.99,0,2.755L40.029,58.672a5.79,5.79,0,0,1-5.027,0L22.759,52.014c-1.378-.765-1.378-1.99,0-2.755Z" transform="translate(-21.644 -40.113)"/><path class="eb" d="M34.921,42.224a5.79,5.79,0,0,1,5.027,0l12.243,6.658c1.378.765,1.378,1.99,0,2.755L40.029,58.3A5.79,5.79,0,0,1,35,58.3L22.759,51.637c-1.378-.765-1.378-1.99,0-2.755Z" transform="translate(-21.644 -40.043)"/><path class="ec" d="M34.921,41.824a5.79,5.79,0,0,1,5.027,0l12.243,6.658c1.378.765,1.378,1.99,0,2.755L40.029,57.972a5.79,5.79,0,0,1-5.027,0L22.759,51.314c-1.378-.765-1.378-1.99,0-2.755Z" transform="translate(-21.644 -39.949)"/><path class="ed" d="M35,41.524a5.79,5.79,0,0,1,5.027,0l12.243,6.658c1.378.765,1.378,1.99,0,2.755L40.11,57.672a5.79,5.79,0,0,1-5.027,0L22.759,50.937c-1.378-.765-1.378-1.99,0-2.755Z" transform="translate(-21.725 -39.879)"/><path class="ee" d="M34.921,41.124a5.79,5.79,0,0,1,5.027,0l12.243,6.658c1.378.765,1.378,1.99,0,2.755L40.029,57.272a5.79,5.79,0,0,1-5.027,0L22.759,50.614c-1.378-.765-1.378-1.99,0-2.755Z" transform="translate(-21.644 -39.785)"/><path class="ef" d="M34.921,40.824a5.79,5.79,0,0,1,5.027,0l12.243,6.658c1.378.765,1.378,1.99,0,2.755L40.029,56.972a5.79,5.79,0,0,1-5.027,0L22.759,50.314c-1.378-.765-1.378-1.99,0-2.755Z" transform="translate(-21.644 -39.714)"/><path class="eg" d="M35,40.424a5.79,5.79,0,0,1,5.027,0l12.243,6.658c1.378.765,1.378,1.99,0,2.755L40.11,56.572a5.79,5.79,0,0,1-5.027,0L22.759,49.914c-1.378-.765-1.378-1.99,0-2.755Z" transform="translate(-21.725 -39.62)"/><path class="aw" d="M34.821,40.124a5.79,5.79,0,0,1,5.027,0l12.324,6.658c1.378.765,1.378,1.99,0,2.755L39.929,56.272a5.79,5.79,0,0,1-5.027,0L22.659,49.614c-1.378-.765-1.378-1.99,0-2.755Z" transform="translate(-21.544 -39.55)"/></g><path class="eh" d="M33.616,35.389a7.235,7.235,0,0,1,6.162,0l16.135,5.128v3.52a3.078,3.078,0,0,1-1.622,2.679L39.7,54.981a7.235,7.235,0,0,1-6.162,0L19.022,47.175A2.992,2.992,0,0,1,17.4,44.5v-3.98Z" transform="translate(-17.339 -29.955)"/><path class="ei" d="M33.7,29.189a7.235,7.235,0,0,1,6.162,0L54.7,37.3c1.7.918,1.7,2.449,0,3.367L39.783,48.781a7.235,7.235,0,0,1-6.162,0L18.7,40.669C17,39.75,17,38.22,18.7,37.3Z" transform="translate(-17.425 -28.5)"/><path class="ar" d="M38.528,37.83a2.534,2.534,0,0,1,2.108,0l5.027,2.755a.6.6,0,0,1,0,1.148l-5.027,2.755a2.534,2.534,0,0,1-2.108,0L33.5,41.733a.6.6,0,0,1,0-1.148Z" transform="translate(-20.224 -30.636)"/><path class="bc" d="M45.663,41.733l-.162.077-4.865-2.679a2.534,2.534,0,0,0-2.108,0l-4.865,2.679-.162-.077a.6.6,0,0,1,0-1.148l5.027-2.755a2.534,2.534,0,0,1,2.108,0l5.027,2.755A.6.6,0,0,1,45.663,41.733Z" transform="translate(-20.224 -30.636)"/><path class="ej" d="M18.7,64.884,33.616,73a7.235,7.235,0,0,0,6.162,0l14.838-8.112a2.154,2.154,0,0,0,1.3-1.684h0v3.52A3.078,3.078,0,0,1,54.291,69.4L39.7,77.665a7.235,7.235,0,0,1-6.162,0L19.022,69.858A2.992,2.992,0,0,1,17.4,67.18V63.2A2.154,2.154,0,0,0,18.7,64.884Z" transform="translate(-17.339 -36.643)"/><path class="ek" d="M22.754,54.878,35,61.536a5.79,5.79,0,0,0,5.027,0l12.243-6.658c.73-.383,1.054-.842,1.054-1.378h0v2.908a2.539,2.539,0,0,1-1.3,2.219L40.1,65.439a5.79,5.79,0,0,1-5.027,0l-12-6.429A2.618,2.618,0,0,1,21.7,56.791V53.5C21.7,54.036,22.105,54.495,22.754,54.878Z" transform="translate(-18.234 -34.367)"/><g transform="translate(11.979 1.626)"><path class="el" d="M38.362,33.212a2.551,2.551,0,0,1,2.351,0l6.081,1.913V36.5a1.29,1.29,0,0,1-.568.995l-5.513,3.138a2.551,2.551,0,0,1-2.351,0l-5.513-2.985a1.187,1.187,0,0,1-.649-.995V35.125Z" transform="translate(-32.2 -31.165)"/><path class="bc" d="M38.281,30.912a2.551,2.551,0,0,1,2.351,0l5.594,3.061c.649.383.649.918,0,1.3l-5.594,3.061a2.552,2.552,0,0,1-2.351,0l-5.594-3.061c-.649-.383-.649-.918,0-1.3Z" transform="translate(-32.119 -30.625)"/></g></g><g class="bb" transform="translate(48.648 75.831)"><path class="bc" d="M75.024,99.1l25.216,13.852L66.916,131.09,41.7,117.238Z" transform="translate(-41.7 -99.1)"/><path class="bd" d="M75.724,99.1l24.648,13.546L67.048,130.861,42.4,117.238Z" transform="translate(-42.4 -99.1)"/><path class="be" d="M76.324,99.1l24.162,13.24L67.162,130.555,43,117.238Z" transform="translate(-43 -99.1)"/><path class="bf" d="M77.024,99.1l23.594,12.934L67.294,130.249,43.7,117.238Z" transform="translate(-43.7 -99.1)"/><path class="bg" d="M77.724,99.1l23.027,12.7L67.426,129.942,44.4,117.238Z" transform="translate(-44.4 -99.1)"/><path class="bh" d="M78.324,99.1l22.54,12.4L67.54,129.636,45,117.238Z" transform="translate(-45 -99.1)"/><path class="bi" d="M79.024,99.1,101,111.192,67.672,129.33,45.7,117.238Z" transform="translate(-45.7 -99.1)"/><path class="bj" d="M79.724,99.1l21.4,11.786L67.8,129.024,46.4,117.238Z" transform="translate(-46.4 -99.1)"/><path class="bk" d="M80.324,99.1l20.918,11.48L67.918,128.718,47,117.238Z" transform="translate(-47 -99.1)"/><path class="bl" d="M81.024,99.1l20.351,11.174L68.051,128.412,47.7,117.238Z" transform="translate(-47.7 -99.1)"/><path class="bm" d="M81.724,99.1l19.783,10.868L68.183,128.182,48.4,117.238Z" transform="translate(-48.4 -99.1)"/><path class="bn" d="M82.324,99.1l19.3,10.561L68.3,127.876,49,117.238Z" transform="translate(-49 -99.1)"/><path class="bo" d="M83.024,99.1l18.729,10.255L68.429,127.57,49.7,117.238Z" transform="translate(-49.7 -99.1)"/><path class="bp" d="M83.724,99.1l18.162,10.026L68.562,127.264,50.4,117.238Z" transform="translate(-50.4 -99.1)"/><path class="bq" d="M84.324,99.1,102,108.82,68.675,126.958,51,117.238Z" transform="translate(-51 -99.1)"/><path class="br" d="M85.024,99.1l17.108,9.413L68.808,126.652,51.7,117.238Z" transform="translate(-51.7 -99.1)"/><path class="bs" d="M85.724,99.1l16.54,9.107L68.94,126.345,52.4,117.238Z" transform="translate(-52.4 -99.1)"/><path class="bt" d="M86.324,99.1l16.054,8.8L69.054,126.039,53,117.238Z" transform="translate(-53 -99.1)"/><path class="bu" d="M87.024,99.1l15.486,8.5L69.186,125.733l-15.486-8.5Z" transform="translate(-53.7 -99.1)"/><path class="bv" d="M87.724,99.1l14.919,8.189L69.319,125.5,54.4,117.238Z" transform="translate(-54.4 -99.1)"/><path class="bw" d="M88.324,99.1l14.432,7.883L69.432,125.2,55,117.238Z" transform="translate(-55 -99.1)"/><path class="bx" d="M89.024,99.1l13.865,7.577L69.565,124.891,55.7,117.238Z" transform="translate(-55.7 -99.1)"/><path class="by" d="M89.724,99.1l13.3,7.347L69.7,124.585l-13.3-7.347Z" transform="translate(-56.4 -99.1)"/><path class="bz" d="M90.324,99.1l12.811,7.041L69.811,124.279,57,117.238Z" transform="translate(-57 -99.1)"/><path class="ca" d="M91.024,99.1l12.243,6.735L69.943,123.973,57.7,117.238Z" transform="translate(-57.7 -99.1)"/><path class="cb" d="M91.724,99.1l11.675,6.429L70.075,123.667,58.4,117.238Z" transform="translate(-58.4 -99.1)"/><path class="cc" d="M92.324,99.1l11.189,6.123L70.189,123.361,59,117.238Z" transform="translate(-59 -99.1)"/><path class="cd" d="M93.024,99.1l10.621,5.816L70.321,123.055,59.7,117.238Z" transform="translate(-59.7 -99.1)"/><path class="ce" d="M93.624,99.1l10.135,5.51-33.4,18.138L60.3,117.238Z" transform="translate(-60.3 -99.1)"/><path class="cf" d="M94.324,99.1l9.567,5.2L70.567,122.519,61,117.238Z" transform="translate(-61 -99.1)"/><path class="cg" d="M95.024,99.1l9,4.9L70.7,122.213l-9-4.975Z" transform="translate(-61.7 -99.1)"/><path class="ch" d="M95.624,99.1l8.513,4.592L70.813,121.907,62.3,117.238Z" transform="translate(-62.3 -99.1)"/><path class="ci" d="M96.324,99.1l7.946,4.362L70.946,121.6,63,117.238Z" transform="translate(-63 -99.1)"/><path class="cj" d="M97.024,99.1l7.378,4.056L71.078,121.294,63.7,117.238Z" transform="translate(-63.7 -99.1)"/><path class="ck" d="M97.624,99.1l6.892,3.75L71.192,120.988l-6.892-3.75Z" transform="translate(-64.3 -99.1)"/><path class="cl" d="M98.324,99.1l6.324,3.444L71.324,120.682,65,117.238Z" transform="translate(-65 -99.1)"/><path class="cm" d="M99.024,99.1l5.757,3.138L71.457,120.376,65.7,117.238Z" transform="translate(-65.7 -99.1)"/><path class="cn" d="M99.624,99.1l5.27,2.832L71.57,120.07l-5.27-2.832Z" transform="translate(-66.3 -99.1)"/><path class="co" d="M100.324,99.1l4.7,2.526L71.7,119.84l-4.7-2.6Z" transform="translate(-67 -99.1)"/><path class="cp" d="M101.024,99.1l4.135,2.219L71.835,119.534l-4.135-2.3Z" transform="translate(-67.7 -99.1)"/><path class="cq" d="M101.624,99.1l3.649,1.913L71.949,119.228l-3.649-1.99Z" transform="translate(-68.3 -99.1)"/><path class="ar" d="M102.324,99.1l3.081,1.684L72.081,118.922,69,117.238Z" transform="translate(-69 -99.1)"/></g><g transform="translate(45.567 0)"><path class="em" d="M107.588,1.687l.324.536c.486.306.649,2.219.649,2.679V71.179a11.206,11.206,0,0,1-5.189,8.878L77.1,94.368a5.5,5.5,0,0,1-2.432.459l-3.405-1.148A2.658,2.658,0,0,1,69.4,91.153v-68.5a10.78,10.78,0,0,1,5.27-8.648L98.589,1C101.507-.608,104.751-.149,107.588,1.687Z" transform="translate(-69.4 -0.016)"/><path class="en" d="M100.172,2.089c2.919-1.607,5.27-.306,5.27,2.908V71.886a10.78,10.78,0,0,1-5.27,8.648L74.47,94.54c-2.919,1.607-5.27.306-5.27-2.908V24.742a10.78,10.78,0,0,1,5.27-8.648Z" transform="translate(-66.119 -0.341)"/><path class="eo" d="M103.224,16.5V70.608L72.9,87.139V33.107Z" transform="translate(-66.9 -3.885)"/><g transform="translate(16.54 11.85)"><path class="ep" d="M86.468,21.01a.51.51,0,0,0,.324-.077l8.027-4.362a.531.531,0,0,0,.243-.765.6.6,0,0,0-.811-.23l-8.027,4.362a.531.531,0,0,0-.243.765A.506.506,0,0,0,86.468,21.01Z" transform="translate(-85.9 -15.5)"/></g><path class="au" d="M90.862,100.767c1.784-.995,3.162-.23,3.162,1.76a6.774,6.774,0,0,1-3.162,5.281c-1.784.995-3.162.153-3.162-1.76A6.681,6.681,0,0,1,90.862,100.767Z" transform="translate(-69.7 -23.558)"/></g><g transform="translate(60.647 24.846)"><path class="az" d="M90.181,33.261c3.324-1.837,6.081-.306,6.081,3.291,0,3.674-2.757,8.112-6.081,9.949S84.1,46.807,84.1,43.21,86.857,35.1,90.181,33.261Z" transform="translate(-84.1 -32.481)"/><path class="az" d="M90.181,75.161c3.324-1.837,6.081-.306,6.081,3.291,0,3.674-2.757,8.112-6.081,9.949S84.1,88.707,84.1,85.11A12.539,12.539,0,0,1,90.181,75.161Z" transform="translate(-84.1 -42.314)"/><path class="eq" d="M92.224,55.821c2.595-1.378,4.622-.23,4.622,2.526A9.962,9.962,0,0,1,92.224,66c-2.595,1.378-4.622.23-4.622-2.526C87.521,60.719,89.629,57.275,92.224,55.821Z" transform="translate(-87.521 -37.821)"/><path class="eq" d="M87.976,54.38c3.081-1.684,5.676-.306,5.676,3.061a11.665,11.665,0,0,1-5.676,9.26c-3.081,1.684-5.676.306-5.676-3.061S84.895,56.063,87.976,54.38Z" transform="translate(-80.03 -37.451)"/><path class="aw" d="M4.672,16.466c2.693-.066,4.97-3.806,5.085-8.353S7.783-.065,5.09,0,.12,3.807,0,8.354,1.979,16.533,4.672,16.466Z" transform="translate(10.483 32.699) rotate(-149.999)"/><path class="er" d="M83.881,53.761c3.324-1.837,6.081-.306,6.081,3.291S87.205,65.164,83.881,67,77.8,67.307,77.8,63.71,80.557,55.6,83.881,53.761Z" transform="translate(-72.692 -37.292)"/></g><g transform="translate(74.35 40.884)"><path class="ar" d="M69.992,142.725l-6.405-3.138a.787.787,0,0,1,0-1.454l.081-.077a4.819,4.819,0,0,1,3.567-.23l4.784,1.071a1.094,1.094,0,0,1,.973,1.071v.995a1.187,1.187,0,0,1-.649.995l-1.135.612A1.162,1.162,0,0,1,69.992,142.725Z" transform="translate(-57.506 -73.186)"/><path class="es" d="M63.662,139.717l.081-.077c.973-.459,1.7-1.071,2.757-.765l2.676.459.405.765a1.156,1.156,0,0,1-.568.918l-.973.536a1.021,1.021,0,0,1-1.135,0l-3.162-1.531c-.081-.077-.162-.077-.243-.153A.17.17,0,0,1,63.662,139.717Z" transform="translate(-54.419 -73.468)"/><path class="ar" d="M61.692,138.225l-6.405-3.138a.787.787,0,0,1,0-1.454l.081-.077a4.819,4.819,0,0,1,3.567-.23l4.784,1.225a1.094,1.094,0,0,1,.973,1.071v.995a1.187,1.187,0,0,1-.649.995l-1.135.612A1.357,1.357,0,0,1,61.692,138.225Z" transform="translate(-42.476 -72.129)"/><path class="es" d="M55.362,135.217l.081-.077c.973-.459,1.7-1.071,2.757-.765l2.676.459.405.765a1.156,1.156,0,0,1-.568.918l-.973.536a1.021,1.021,0,0,1-1.135,0l-3.162-1.531c-.081-.077-.162-.077-.243-.153C55.2,135.293,55.281,135.293,55.362,135.217Z" transform="translate(-39.39 -72.412)"/><g transform="translate(16.702 38.697)"><path class="es" d="M58.405,129.715h0c1.135,0,1.541-.842,1.541-1.837l-.405-11.021.811-11.021A1.848,1.848,0,0,0,58.486,104c-1.054,0-3.486.765-3.486,1.76l1.135,11.1.405,11.1A1.836,1.836,0,0,0,58.405,129.715Z" transform="translate(-55 -104)"/></g><g transform="translate(9.729 41.463)"><path class="es" d="M65.674,134.16h.162c1.054-.077,1.459-.995,1.3-1.99L66,118.088l2.676-9.643c.162-.995-1.622.153-2.676,0s-2.919-1.454-3.081-.459l-.73,9.949,1.541,14.541A1.961,1.961,0,0,0,65.674,134.16Z" transform="translate(-62.187 -107.615)"/></g><path class="et" d="M64.47,92l.568,1.454a5.845,5.845,0,0,1,.405,2.6l-.162,2.832,2.027,9.337c-1.784,3.52-10.784,5.893-14.108,3.52l.73-12.322h0a11.283,11.283,0,0,1-.243-3.291l.162-2.219Z" transform="translate(-43.795 -62.487)"/><g transform="translate(16.801 10.014)"><path class="es" d="M53.892,86.939a1.522,1.522,0,0,0,1.378-.765l2.838-4.592a10.643,10.643,0,0,0-3-14.235l-.73-.536a1.633,1.633,0,0,0-2.189.306,1.428,1.428,0,0,0,.324,2.066l.568.536A7.7,7.7,0,0,1,55.27,80.128L52.432,84.72A1.434,1.434,0,0,0,53,86.71,2.213,2.213,0,0,0,53.892,86.939Z" transform="translate(-51.882 -66.522)"/></g><path class="ar" d="M53.688,67.124a1.692,1.692,0,0,1,2.189-.306l.73.536a10.806,10.806,0,0,1,3.486,4.133l-2.838,1.225a8.621,8.621,0,0,0-2.595-3.061l-.73-.536A1.436,1.436,0,0,1,53.688,67.124Z" transform="translate(-36.743 -56.515)"/><path class="eu" d="M59.992,87.193l-.243-1.913a32.77,32.77,0,0,1-.243-3.98,6.72,6.72,0,0,1-.973,2.372L55.7,88.264a1.536,1.536,0,0,0,1.378,2.219,1.522,1.522,0,0,0,1.378-.765Z" transform="translate(-38.344 -59.976)"/><path class="ev" d="M62.3,66.853l-.892.459c-3,1.607-4.784,3.52-4.784,6.735l-.405.842a4.6,4.6,0,0,0-.162,3.444l.568,1.76V90.96c2.757,1.76,10.054-.689,11.513-3.52l-.405-2.526a16.43,16.43,0,0,1-.243-3.98L67.9,69.914A3.737,3.737,0,0,0,62.3,66.853Z" transform="translate(-46.735 -56.473)"/><path class="es" d="M64.367,65.348h.405A2.543,2.543,0,0,0,67.367,62.9V56.7H59.5v4.056A4.647,4.647,0,0,0,64.367,65.348Z" transform="translate(-48.962 -54.203)"/><path class="es" d="M62.422,68.9h.162a1.5,1.5,0,0,0,1.541-1.454V63.236a.539.539,0,0,0-.568-.536H61.368a.539.539,0,0,0-.568.536v4.209A1.573,1.573,0,0,0,62.422,68.9Z" transform="translate(-46.773 -55.611)"/><path class="eu" d="M65.069,80.862a1.31,1.31,0,0,0,.892-1.071L66.61,75.2a1.584,1.584,0,0,1,1.7-1.3c.811.077.892.918.811,1.76L69.042,80.1a4.277,4.277,0,0,1-3.162,3.52,3.031,3.031,0,0,1-.811.153Z" transform="translate(-55.259 -58.237)"/><path class="es" d="M72.454,82.87a9.544,9.544,0,0,0,1.378-.153,4.277,4.277,0,0,0,3.162-3.52l.649-4.592A1.48,1.48,0,0,0,76.264,73a1.525,1.525,0,0,0-1.7,1.3l-.649,4.592a1.252,1.252,0,0,1-.973,1.071,1.345,1.345,0,0,1-1.459-.383l-4.459-4.822a1.611,1.611,0,0,0-2.189-.153,1.4,1.4,0,0,0-.162,2.066l4.378,4.745A4.456,4.456,0,0,0,72.454,82.87Z" transform="translate(-63.13 -58.026)"/><path class="ar" d="M64.9,73.87a1.662,1.662,0,0,1,1.946-1.378A1.6,1.6,0,0,1,68.3,74.33l-.73,5.128-3.405-.383Z" transform="translate(-53.71 -57.904)"/><g transform="translate(1.08 16.144)"><path class="es" d="M80.061,75.809l-.73-.765a1.611,1.611,0,0,0-2.189-.153,1.4,1.4,0,0,0-.162,2.066l.892.995Z" transform="translate(-76.6 -74.532)"/></g><ellipse class="es" cx="1.865" cy="1.76" rx="1.865" ry="1.76" transform="translate(0 15.431)"/><path class="es" d="M78.186,71.618,80.7,74.144a.387.387,0,0,0,.405,0l.162-.153a.331.331,0,0,0,0-.383l-2.513-2.526a.387.387,0,0,0-.405,0l-.162.153A.326.326,0,0,0,78.186,71.618Z" transform="translate(-78.024 -57.565)"/><g transform="translate(9.423)"><path class="ew" d="M57.755,54.48c1.378-1.531,4.54-1.071,6.324-.536,2.432.765,4.135,2.219,3.973,4.822a6.1,6.1,0,0,1-1.784,3.98,2.622,2.622,0,0,1-3.973-.459c-.405-.536-.649-1.3-1.3-1.684-.486-.306-1.216-.306-1.459-.842-.162-.383.081-.842.162-1.225.162-.383.243-.918-.081-1.148s-.892-.077-1.216-.383a3.364,3.364,0,0,1-.73-.765C57.107,55.7,57.188,55.092,57.755,54.48Z" transform="translate(-57.287 -53.437)"/></g><g transform="translate(17.541 3.538)"><path class="ew" d="M51.5,60.463l.324-.153a3.415,3.415,0,0,1,2.108-2.066,4.086,4.086,0,0,1,4.622,1.837c.73,1.378-.162,3.827-.811,5.128-1.3,2.526-3.973,4.745-2.513,7.73.162.306.324.689.162.918-.486.689-1.459-1.837-1.622-2.066a6.46,6.46,0,0,1-1.135-3.827c.081-.995.568-1.837.73-2.832a2.678,2.678,0,0,0-.649-2.679,7.722,7.722,0,0,1-1.3-.918A1.687,1.687,0,0,1,51.5,60.463Z" transform="translate(-51.363 -58.06)"/></g><g class="ex" transform="translate(17.541 6.171)"><path class="ey" d="M55.652,61.5c.405.459.892-.077,1.378.23a3.469,3.469,0,0,1,1.7,2.755c-.081,1.071-.568,2.219-.568,3.291,0,1.3.243,3.98.892,5.051-.081.689,0,.306.324.995.162.306.324.689.162.918-.486.689-1.459-1.837-1.622-2.066a6.46,6.46,0,0,1-1.135-3.827c.081-.995.568-1.837.73-2.832a2.678,2.678,0,0,0-.649-2.679,7.724,7.724,0,0,1-1.3-.918,1.182,1.182,0,0,1,.081-.918Z" transform="translate(-55.517 -61.5)"/></g><path class="ez" d="M59.276,61.189l.081.077c.243.153.324-.077.405-.383a4.306,4.306,0,0,1,.649-.995c.162-.23.405-.383.081-.536l-.081-.077a.452.452,0,0,0-.649.153,3.828,3.828,0,0,0-.73,1.225A.413.413,0,0,0,59.276,61.189Z" transform="translate(-41.844 -54.789)"/></g></g></g></svg>