<svg xmlns="http://www.w3.org/2000/svg" viewBox="0 0 35 35">
  <defs>
    <style>
      .cls-1 {
        fill: #f77b39;
      }
    </style>
  </defs>
  <path id="globe-solid" class="cls-1" d="M23.75,18.726C22.726,12.424,20.313,8,17.5,8s-5.223,4.424-6.246,10.726ZM10.728,25.5a44.22,44.22,0,0,0,.233,4.516H24.039a44.22,44.22,0,0,0,.233-4.516,44.221,44.221,0,0,0-.233-4.516H10.961A44.22,44.22,0,0,0,10.728,25.5Zm22.917-6.774A17.539,17.539,0,0,0,22.493,8.734c1.722,2.385,2.908,5.977,3.529,9.992ZM12.507,8.734A17.527,17.527,0,0,0,1.362,18.726H8.985c.614-4.015,1.8-7.607,3.522-9.992ZM34.4,20.984H26.3c.148,1.482.233,3,.233,4.516s-.085,3.034-.233,4.516h8.088A17.346,17.346,0,0,0,35,25.5,17.649,17.649,0,0,0,34.4,20.984ZM8.469,25.5c0-1.517.085-3.034.233-4.516H.607a17.1,17.1,0,0,0,0,9.032H8.7C8.554,28.534,8.469,27.017,8.469,25.5Zm2.788,6.774C12.281,38.576,14.694,43,17.5,43s5.223-4.424,6.246-10.726ZM22.5,42.266a17.556,17.556,0,0,0,11.151-9.992H26.029C25.408,36.289,24.223,39.881,22.5,42.266ZM1.362,32.274a17.539,17.539,0,0,0,11.151,9.992c-1.722-2.385-2.908-5.977-3.529-9.992H1.362Z" transform="translate(0 -8)"/>
</svg>
