<svg xmlns="http://www.w3.org/2000/svg" xmlns:xlink="http://www.w3.org/1999/xlink" viewBox="0 0 29.874 29.874">
  <defs>
    <style>
      .cls-1, .cls-3 {
        fill: #f77b39;
      }

      .cls-1 {
        stroke: #707070;
      }

      .cls-2 {
        clip-path: url(#clip-path);
      }
    </style>
    <clipPath id="clip-path">
      <rect id="Rectangle_2421" data-name="Rectangle 2421" class="cls-1" width="29.874" height="29.874" transform="translate(0)"/>
    </clipPath>
  </defs>
  <g id="Mask_Group_82" data-name="Mask Group 82" class="cls-2" transform="translate(0 0)">
    <path id="handshake-solid" class="cls-3" d="M20.291,3.856h-4.01a1.493,1.493,0,0,0-1.008.392l-4.588,4.2s-.009.014-.014.019a1.857,1.857,0,0,0-.1,2.614,1.947,1.947,0,0,0,2.619.126s.014,0,.019-.009l3.73-3.417a.747.747,0,1,1,1.008,1.1L16.729,10l6.8,5.517a3.363,3.363,0,0,1,.369.359V6.844L21.346,4.295a1.483,1.483,0,0,0-1.055-.439Zm5.1,3V17.3A1.492,1.492,0,0,0,26.886,18.8h2.987V6.853ZM27.633,17.3a.747.747,0,1,1,.747-.747A.749.749,0,0,1,27.633,17.3ZM0,18.793H2.987A1.492,1.492,0,0,0,4.481,17.3V6.853H0ZM2.241,15.81a.747.747,0,1,1-.747.747A.749.749,0,0,1,2.241,15.81Zm20.347.868-6.969-5.657-1.4,1.284A3.36,3.36,0,1,1,9.676,7.352l3.818-3.5H9.583a1.491,1.491,0,0,0-1.055.439L5.975,6.844V17.295h.854l4.224,3.823a2.987,2.987,0,0,0,4.2-.434l.009-.009.836.724a1.735,1.735,0,0,0,2.441-.252l1.466-1.8.252.205a1.491,1.491,0,0,0,2.1-.219l.443-.546a1.5,1.5,0,0,0-.215-2.105Z" transform="translate(0 2.115)"/>
  </g>
</svg>
