<svg xmlns="http://www.w3.org/2000/svg" viewBox="0 0 23.249 24.314">
  <defs>
    <style>
      .cls-1 {
        fill: #f77b39;
      }
    </style>
  </defs>
  <path id="Developer-595b40b75ba036ed117d5bcd_visualpharm" class="cls-1" d="M26.125,15.3,23.693,11.1C23.124,6.294,20.589,2,13.347,2S3,6.915,3,12.347a10.3,10.3,0,0,0,1.811,5.846,10.013,10.013,0,0,1,1.811,5.639v2.483H18V24.09l1.6.1a3.75,3.75,0,0,0,4.087-3.777V17.623l2.069-1.035A.939.939,0,0,0,26.125,15.3ZM10.4,14.105a.517.517,0,0,1-.828.621l-1.785-2.38L9.57,9.967a.517.517,0,1,1,.827.621L9.079,12.347Zm4.489-5.272-1.552,7.243a.518.518,0,0,1-.505.409.529.529,0,0,1-.109-.011.517.517,0,0,1-.4-.615l1.552-7.243a.517.517,0,1,1,1.012.217Zm2.753,5.893a.517.517,0,0,1-.828-.621l1.319-1.759-1.319-1.759a.517.517,0,1,1,.827-.621l1.785,2.38Z" transform="translate(-3 -2)"/>
</svg>
