<svg xmlns="http://www.w3.org/2000/svg" viewBox="0 0 23.581 30.713">
  <defs>
    <style>
      .cls-1 {
        fill: #f77b39;
      }
    </style>
  </defs>
  <path id="Natural_User_Interface_2-595b40b65ba036ed117d4922_visualpharm" data-name="Natural User Interface 2-595b40b65ba036ed117d4922_visualpharm" class="cls-1" d="M8.34.187A5.155,5.155,0,0,0,7.186,10.363c-.21-.713-.407-1.41-.559-2.095a3.392,3.392,0,1,1,5.1-2.918,3.446,3.446,0,0,1-.112.748,16.4,16.4,0,0,1,.819,2.319A5.089,5.089,0,0,0,13.481,5.35,5.149,5.149,0,0,0,8.34.187ZM8.974,4.9a1.27,1.27,0,0,0-.521.037c-1.333.4-1.038,1.979-.037,5.387.747,2.547,1.579,5.218,2.011,6.7a20.79,20.79,0,0,1,.968,3.928c.107.887-1.531,1.337-3.166,1.085-1.9-.291-3.314-.814-4.581.561-.78.846-.881,2.358,1.006,2.319,5.017-.1,6.344,2.017,8.269,3.1s4.07,1.2,4.768,2.881l8.6-3.292c-.659-2.246,1.52-3.467-.41-10.1-1.538-5.276-4.24-6.5-4.954-6.285s-.683.72-1.155.86-1.079-1.27-2.235-.935-1.011,1.487-1.415,1.609-.681-1.02-2.123-.6c-1.154.341-.527,1.706-.968,1.833-.25.075-.715-1.329-1.564-4.564C10.816,6.941,10.1,5.051,8.974,4.9Z" transform="translate(-3.121 -0.187)"/>
</svg>
