<svg xmlns="http://www.w3.org/2000/svg" viewBox="0 0 29.621 19.251">
  <defs>
    <style>
      .cls-1 {
        fill: #f77b39;
      }
    </style>
  </defs>
  <g id="_ionicons_svg_ios-people" transform="translate(-31.5 -110.2)">
    <path id="Path_3508" data-name="Path 3508" class="cls-1" d="M131.62,125.011c-.728-.264-1.918-.277-2.444-.482a3.43,3.43,0,0,1-1.131-.534,7.194,7.194,0,0,1-.189-1.88,3.034,3.034,0,0,0,.644-.924,10.4,10.4,0,0,0,.312-1.814s.429.185.6-.686a5.85,5.85,0,0,0,.345-1.7c-.078-.554-.377-.422-.377-.422a5,5,0,0,0,.377-2.467,4.214,4.214,0,0,0-8.405,0,5.077,5.077,0,0,0,.371,2.467s-.306-.132-.377.422.2.95.345,1.7c.169.877.6.686.6.686a10.506,10.506,0,0,0,.312,1.814,3.034,3.034,0,0,0,.644.924,7.2,7.2,0,0,1-.189,1.88,3.3,3.3,0,0,1-1.131.528c-.52.2-1.71.231-2.444.495a4.647,4.647,0,0,0-2.977,4.433h18.091A4.638,4.638,0,0,0,131.62,125.011Z" transform="translate(-79.259 0)"/>
    <path id="Path_3509" data-name="Path 3509" class="cls-1" d="M38.658,167.649a4.523,4.523,0,0,0,2.2-.606c-1.023-1.531-.468-3.316-.68-4.985A2.771,2.771,0,0,0,37.1,159.4h-.026a2.78,2.78,0,0,0-3.054,2.658c-.211,1.661.376,3.649-.673,4.985a4.187,4.187,0,0,0,2.21.541,3.26,3.26,0,0,1-.066,1.095,1.675,1.675,0,0,1-.792.358,15.461,15.461,0,0,0-1.709.469A2.742,2.742,0,0,0,31.5,171.93h5.3a4.714,4.714,0,0,1,2.111-1.942,4.478,4.478,0,0,1,1.629-.339s.251-.391-.574-.541a5.671,5.671,0,0,1-1.267-.437C38.572,168.528,38.658,167.649,38.658,167.649Zm15.305,0a4.523,4.523,0,0,1-2.2-.606c1.023-1.531.468-3.316.68-4.985A2.771,2.771,0,0,1,55.52,159.4h.026a2.78,2.78,0,0,1,3.054,2.658c.211,1.661-.376,3.649.673,4.985a4.187,4.187,0,0,1-2.21.541,3.26,3.26,0,0,0,.066,1.095,1.675,1.675,0,0,0,.792.358,15.462,15.462,0,0,1,1.709.469,2.742,2.742,0,0,1,1.491,2.424h-5.3a4.714,4.714,0,0,0-2.111-1.942,4.478,4.478,0,0,0-1.629-.339s-.251-.391.574-.541a5.671,5.671,0,0,0,1.267-.437C54.049,168.528,53.963,167.649,53.963,167.649Z" transform="translate(0 -45.877)"/>
  </g>
</svg>
