<svg xmlns="http://www.w3.org/2000/svg" viewBox="0 0 29 29">
  <defs>
    <style>
      .cls-1 {
        fill: #f77b39;
      }
    </style>
  </defs>
  <g id="international-e-commerce_flaticon" transform="translate(-5.699)">
    <g id="Group_2054" data-name="Group 2054" transform="translate(5.699)">
      <path id="Path_3506" data-name="Path 3506" class="cls-1" d="M8.681,11.993l.234.908,2.569,9.988H26.8l.381-2.017q.482-.151.951-.347a10.755,10.755,0,0,0,5.725-5.684A10.624,10.624,0,0,0,31.548,3.129,10.762,10.762,0,0,0,24.026,0h-.172a10.762,10.762,0,0,0-7.522,3.128,10.642,10.642,0,0,0-2.972,9.5H10.85l-.661-2.569H5.7v.964h0v.964H8.681Zm6.495-.347h2.742q.024.5.073.986h-2.65A8.71,8.71,0,0,1,15.176,11.646Zm1.63-6.11a12.731,12.731,0,0,0,1.631.649,17.888,17.888,0,0,0-.518,3.533H15.176A8.627,8.627,0,0,1,16.805,5.536Zm2.879-2.525q-.1.173-.195.356-.246.471-.456.987-.438-.142-.843-.31A8.814,8.814,0,0,1,19.684,3.011ZM29.693,4.047q-.406.168-.846.31-.211-.517-.457-.991-.1-.182-.195-.356A8.809,8.809,0,0,1,29.693,4.047ZM32.7,9.718H29.962a17.893,17.893,0,0,0-.517-3.53,12.752,12.752,0,0,0,1.633-.648A8.628,8.628,0,0,1,32.7,9.718Zm-1.648,6.135a12.655,12.655,0,0,0-1.621-.643,17.871,17.871,0,0,0,.526-3.565H32.7A8.628,8.628,0,0,1,31.056,15.853ZM19.862,11.646h3.107v.984H19.943Q19.889,12.146,19.862,11.646Zm.453-4.981a18.861,18.861,0,0,0,2.654.318V9.718H19.862A15.878,15.878,0,0,1,20.315,6.665Zm7.7,3.053H24.911V6.983a18.866,18.866,0,0,0,2.655-.316A15.877,15.877,0,0,1,28.018,9.718Zm-.081,2.91H24.911v-.983h3.107Q27.991,12.144,27.937,12.628Zm-1-7.8a17.024,17.024,0,0,1-2.028.229V2.208a4.935,4.935,0,0,1,1.755,2.046Q26.81,4.529,26.939,4.824Zm-3.97-2.617V5.053a17.016,17.016,0,0,1-2.028-.23q.129-.294.272-.569A4.935,4.935,0,0,1,22.969,2.208ZM28.2,18.353q.1-.173.195-.356.238-.456.442-.955.429.138.828.3A8.8,8.8,0,0,1,28.2,18.353ZM14.963,14.56H26.394l-.357,1.892-.4,2.136L25.5,19.3l-.134.711-.055.293-.124.656H12.992l-1.646-6.4h3.617Z" transform="translate(-5.699)"/>
      <path id="Path_3507" data-name="Path 3507" class="cls-1" d="M198.127,795.779a2.787,2.787,0,1,0,0-5.574h-10.1a2.787,2.787,0,1,0,2.638,1.888h4.827a2.787,2.787,0,0,0,2.638,3.686Zm-9.2-2.787a.9.9,0,1,1-.9-.9A.9.9,0,0,1,188.922,792.992Zm10.1,0a.9.9,0,1,1-.9-.9A.9.9,0,0,1,199.026,792.992Z" transform="translate(-179.685 -766.779)"/>
    </g>
  </g>
</svg>
