<svg xmlns="http://www.w3.org/2000/svg" xmlns:xlink="http://www.w3.org/1999/xlink" viewBox="0 0 29.874 29.874">
  <defs>
    <style>
      .cls-1, .cls-3 {
        fill: #f77b39;
      }

      .cls-1 {
        stroke: #707070;
      }

      .cls-2 {
        clip-path: url(#clip-path);
      }
    </style>
    <clipPath id="clip-path">
      <rect id="Rectangle_2420" data-name="Rectangle 2420" class="cls-1" width="29.874" height="29.874" transform="translate(0 0)"/>
    </clipPath>
  </defs>
  <g id="Mask_Group_81" data-name="Mask Group 81" class="cls-2" transform="translate(0 0)">
    <g id="_ionicons_svg_ios-chatbubbles" transform="translate(0 0)">
      <path id="Path_3469" data-name="Path 3469" class="cls-3" d="M33.38,24.025a1.74,1.74,0,0,1,.237-.876,2.419,2.419,0,0,1,.151-.223,11.636,11.636,0,0,0,1.982-6.485A12.216,12.216,0,0,0,23.276,4.449a12.388,12.388,0,0,0-12.23,9.544,11.54,11.54,0,0,0-.266,2.456A12.182,12.182,0,0,0,23.06,28.593a14.789,14.789,0,0,0,3.39-.553c.811-.223,1.616-.517,1.824-.6a1.9,1.9,0,0,1,.668-.122,1.867,1.867,0,0,1,.725.144l4.072,1.443a.971.971,0,0,0,.28.072.572.572,0,0,0,.574-.574.922.922,0,0,0-.036-.194Z" transform="translate(-5.876 -4.449)"/>
      <path id="Path_3470" data-name="Path 3470" class="cls-3" d="M23.875,32.018c-.259.072-.589.151-.948.23a13.254,13.254,0,0,1-2.442.323A12.182,12.182,0,0,1,8.205,20.428a13.577,13.577,0,0,1,.108-1.537c.043-.309.093-.618.165-.919.072-.323.158-.646.251-.962l-.574.51a10.687,10.687,0,0,0-3.705,8.036A10.568,10.568,0,0,0,6.23,31.444c.165.251.259.445.23.574s-.855,4.452-.855,4.452a.576.576,0,0,0,.194.553.585.585,0,0,0,.366.129.515.515,0,0,0,.208-.043L10.4,35.523a1.122,1.122,0,0,1,.409-.079,1.133,1.133,0,0,1,.452.093,12.086,12.086,0,0,0,4.359.862,11.278,11.278,0,0,0,8.625-3.957s.23-.316.5-.689c-.266.093-.567.187-.869.266Z" transform="translate(-4.449 -7.279)"/>
    </g>
  </g>
</svg>
