<svg xmlns="http://www.w3.org/2000/svg" viewBox="0 0 21 21">
  <defs>
    <style>
      .cls-1 {
        fill: #f77b39;
      }
    </style>
  </defs>
  <path id="iconmonstr-user-20" class="cls-1" d="M10.5,0A10.5,10.5,0,1,0,21,10.5,10.5,10.5,0,0,0,10.5,0Zm6.784,16.017a2.075,2.075,0,0,0-1.637-1.086c-2.006-.463-3.875-.869-2.969-2.577,2.752-5.2.729-7.979-2.178-7.979-2.965,0-4.938,2.887-2.178,7.979.933,1.719-1,2.124-2.969,2.577a2.061,2.061,0,0,0-1.634,1.09,8.75,8.75,0,1,1,13.564,0Z" transform="translate(0)"/>
</svg>
