<svg xmlns="http://www.w3.org/2000/svg" xmlns:xlink="http://www.w3.org/1999/xlink" viewBox="0 0 284.049 308.574">
  <defs>
    <style>
      .cls-1, .cls-2 {
        fill: #707070;
      }

      .cls-1 {
        font-size: 49px;
        font-family: Helvetica-Bold, Helvetica;
        font-weight: 700;
      }

      .cls-2 {
        font-size: 20px;
        font-family: Lato-Regular, Lato;
      }

      .cls-3 {
        fill: url(#linear-gradient);
      }

      .cls-4 {
        fill: #f9f7f9;
      }

      .cls-5 {
        fill: #fff;
      }

      .cls-6 {
        fill: url(#linear-gradient-2);
      }

      .cls-7 {
        fill: url(#linear-gradient-3);
      }

      .cls-8 {
        fill: url(#linear-gradient-4);
      }

      .cls-9 {
        fill: url(#linear-gradient-5);
      }

      .cls-10 {
        fill: #99a7d8;
      }

      .cls-11, .cls-24 {
        fill: #f6f8fb;
      }

      .cls-12 {
        fill: #edf0f8;
      }

      .cls-13 {
        fill: url(#linear-gradient-6);
      }

      .cls-14 {
        fill: url(#radial-gradient);
      }

      .cls-15 {
        fill: url(#radial-gradient-2);
      }

      .cls-16 {
        fill: url(#radial-gradient-3);
      }

      .cls-17 {
        fill: #f06557;
      }

      .cls-18 {
        fill: url(#linear-gradient-7);
      }

      .cls-19 {
        fill: #ef665a;
      }

      .cls-20 {
        fill: #fec55e;
      }

      .cls-21 {
        fill: #f8958b;
      }

      .cls-22 {
        fill: #e5f1f4;
      }

      .cls-23 {
        fill: #ccebe9;
      }

      .cls-24 {
        opacity: 0.28;
      }

      .cls-25 {
        fill: url(#linear-gradient-8);
      }

      .cls-26 {
        fill: url(#linear-gradient-9);
      }

      .cls-27 {
        fill: #fafbfd;
      }

      .cls-28 {
        fill: url(#linear-gradient-10);
      }

      .cls-29 {
        fill: #e5e9f4;
      }

      .cls-30 {
        fill: url(#linear-gradient-11);
      }

      .cls-31 {
        fill: url(#linear-gradient-12);
      }

      .cls-32 {
        fill: url(#linear-gradient-13);
      }

      .cls-33 {
        fill: url(#linear-gradient-14);
      }

      .cls-34 {
        fill: url(#linear-gradient-15);
      }

      .cls-35 {
        fill: url(#linear-gradient-16);
      }

      .cls-36 {
        fill: url(#linear-gradient-17);
      }

      .cls-37 {
        fill: #48486a;
      }

      .cls-38, .cls-51 {
        fill: #ef9ea3;
      }

      .cls-39 {
        fill: url(#linear-gradient-18);
      }

      .cls-40 {
        fill: url(#linear-gradient-19);
      }

      .cls-41, .cls-49 {
        fill: #231f20;
      }

      .cls-41, .cls-48 {
        opacity: 0.3;
      }

      .cls-42 {
        fill: #f2b1b5;
      }

      .cls-43 {
        fill: #5c629e;
      }

      .cls-44, .cls-51 {
        opacity: 0.2;
      }

      .cls-45 {
        fill: #363650;
      }

      .cls-46 {
        fill: #ffbe06;
      }

      .cls-47 {
        fill: #ffba06;
      }

      .cls-50 {
        fill: #f5c5c8;
      }

      .cls-52 {
        opacity: 0.9;
      }

      .cls-53 {
        fill: url(#radial-gradient-4);
      }

      .cls-54 {
        fill: #ffc107;
      }

      .cls-55 {
        fill: #ffcd39;
      }

      .cls-56 {
        fill: url(#radial-gradient-5);
      }

      .cls-57 {
        fill: #dce1f1;
      }
    </style>
    <linearGradient id="linear-gradient" x1="0.5" x2="0.5" y2="1" gradientUnits="objectBoundingBox">
      <stop offset="0" stop-color="#f06557"/>
      <stop offset="1" stop-color="#78332c"/>
    </linearGradient>
    <linearGradient id="linear-gradient-2" x1="0.001" y1="0.5" x2="1" y2="0.5" gradientUnits="objectBoundingBox">
      <stop offset="0.289" stop-color="#edf0f8"/>
      <stop offset="1" stop-color="#d6dcef"/>
    </linearGradient>
    <linearGradient id="linear-gradient-3" x1="0.001" y1="0.501" x2="1.003" y2="0.501" gradientUnits="objectBoundingBox">
      <stop offset="0" stop-color="#99a7d8"/>
      <stop offset="1" stop-color="#d3daed"/>
    </linearGradient>
    <linearGradient id="linear-gradient-4" x1="0.001" y1="0.5" x2="1" y2="0.5" xlink:href="#linear-gradient-3"/>
    <linearGradient id="linear-gradient-5" x1="-0.002" y1="0.499" x2="1.001" y2="0.499" xlink:href="#linear-gradient-3"/>
    <linearGradient id="linear-gradient-6" x1="-0.001" y1="0.5" x2="0.999" y2="0.5" gradientUnits="objectBoundingBox">
      <stop offset="0.15" stop-color="#ff9800"/>
      <stop offset="1" stop-color="#ffc107"/>
    </linearGradient>
    <radialGradient id="radial-gradient" cx="-884.255" cy="-2973.704" r="22.352" gradientTransform="matrix(-0.477, 0, 0, 0.212, -1365.324, -2540.513)" gradientUnits="userSpaceOnUse">
      <stop offset="0.198" stop-color="#48486a"/>
      <stop offset="0.221" stop-color="#505070"/>
      <stop offset="0.427" stop-color="#8d8da3"/>
      <stop offset="0.615" stop-color="#bebeca"/>
      <stop offset="0.779" stop-color="#e2e2e7"/>
      <stop offset="0.913" stop-color="#f7f7f9"/>
      <stop offset="1" stop-color="#fff"/>
    </radialGradient>
    <radialGradient id="radial-gradient-2" cx="-1186.883" cy="-2876.398" r="23.561" gradientTransform="matrix(-0.483, 0, 0, 0.215, -1839.312, -2450.28)" xlink:href="#radial-gradient"/>
    <radialGradient id="radial-gradient-3" cx="-1500.708" cy="-2785.944" r="22.352" gradientTransform="matrix(-0.477, 0, 0, 0.212, -2316.656, -2380.113)" xlink:href="#radial-gradient"/>
    <linearGradient id="linear-gradient-7" x1="-9.825" y1="0.5" x2="-8.826" y2="0.5" gradientUnits="objectBoundingBox">
      <stop offset="0" stop-color="#f06557"/>
      <stop offset="0.15" stop-color="#ff9800"/>
      <stop offset="1" stop-color="#ffc107"/>
    </linearGradient>
    <linearGradient id="linear-gradient-8" x1="0" y1="0.498" x2="1.004" y2="0.498" xlink:href="#linear-gradient-6"/>
    <linearGradient id="linear-gradient-9" y1="0.5" x2="1" y2="0.5" gradientUnits="objectBoundingBox">
      <stop offset="0" stop-color="#d3daed"/>
      <stop offset="1" stop-color="#99a7d8"/>
    </linearGradient>
    <linearGradient id="linear-gradient-10" x1="0.009" y1="0.273" x2="1.055" y2="0.761" xlink:href="#linear-gradient-6"/>
    <linearGradient id="linear-gradient-11" x1="0" y1="0.501" x2="1" y2="0.501" xlink:href="#linear-gradient-9"/>
    <linearGradient id="linear-gradient-12" x1="0" y1="0.5" x2="0.999" y2="0.5" xlink:href="#linear-gradient-6"/>
    <linearGradient id="linear-gradient-13" x1="0" y1="0.499" x2="0.999" y2="0.499" xlink:href="#linear-gradient-6"/>
    <linearGradient id="linear-gradient-14" x1="0" y1="0.5" x2="0.999" y2="0.5" xlink:href="#linear-gradient-6"/>
    <linearGradient id="linear-gradient-15" x1="0" y1="0.5" x2="1" y2="0.5" xlink:href="#linear-gradient-6"/>
    <linearGradient id="linear-gradient-16" x1="0" y1="0.5" x2="1" y2="0.5" xlink:href="#linear-gradient-9"/>
    <linearGradient id="linear-gradient-17" x1="0" y1="0.499" x2="1" y2="0.499" xlink:href="#linear-gradient-6"/>
    <linearGradient id="linear-gradient-18" x1="0.017" y1="0.5" x2="1.014" y2="0.5" xlink:href="#linear-gradient-6"/>
    <linearGradient id="linear-gradient-19" x1="0.003" y1="0.499" x2="0.999" y2="0.499" xlink:href="#linear-gradient-6"/>
    <radialGradient id="radial-gradient-4" cx="14.078" cy="43.891" r="25.334" gradientTransform="translate(6.164 31.543) scale(0.562 0.281)" gradientUnits="userSpaceOnUse">
      <stop offset="0.091" stop-color="#48486a"/>
      <stop offset="0.118" stop-color="#505070"/>
      <stop offset="0.351" stop-color="#8d8da3"/>
      <stop offset="0.564" stop-color="#bebeca"/>
      <stop offset="0.75" stop-color="#e2e2e7"/>
      <stop offset="0.901" stop-color="#f7f7f9"/>
      <stop offset="1" stop-color="#fff"/>
    </radialGradient>
    <radialGradient id="radial-gradient-5" cx="11.908" cy="38.131" r="21.478" gradientTransform="translate(5.27 27.492) scale(0.557 0.279)" gradientUnits="userSpaceOnUse">
      <stop offset="0" stop-color="#5c629e"/>
      <stop offset="0.072" stop-color="#7a7fb0"/>
      <stop offset="0.184" stop-color="#a3a6c8"/>
      <stop offset="0.299" stop-color="#c4c6dc"/>
      <stop offset="0.417" stop-color="#dedfeb"/>
      <stop offset="0.538" stop-color="#f0f1f6"/>
      <stop offset="0.663" stop-color="#fbfcfd"/>
      <stop offset="0.802" stop-color="#fff"/>
    </radialGradient>
  </defs>
  <g id="Group_2089" data-name="Group 2089" transform="translate(-45.001 -5339.858)">
    <g id="Group_1907" data-name="Group 1907" transform="translate(107.01 5328.858)">
      <text id="UNIFY" class="cls-1" transform="translate(79.99 49)"><tspan x="-73.5" y="0">UNIFY</tspan></text>
      <text id="JOB_Management" data-name="JOB Management" class="cls-2" transform="translate(79.99 79.109)"><tspan x="-78.81" y="0">JOB Management</tspan></text>
    </g>
    <g id="Group_1908" data-name="Group 1908" transform="translate(45.001 5434.551)">
      <g id="Group_1549" data-name="Group 1549" transform="translate(0)">
        <g id="Group_1533" data-name="Group 1533" transform="translate(0 0)">
          <g id="Layer_7_copy" transform="translate(141.643)">
            <g id="XMLID_843_">
              <path id="XMLID_892_" class="cls-3" d="M173.489,43.743c0-2.128,1.86-4.771,4.074-5.8L255.938.439c2.214-1.028,4.074-.22,4.074,1.908V110.46c0,2.128-1.86,4.771-4.074,5.8l-78.464,37.579c-2.214,1.028-4.074.22-4.074-1.908V43.743Z" transform="translate(-173.4 0.004)"/>
              <path id="XMLID_891_" class="cls-4" d="M180.774,40c-2.214,1.028-4.074,3.67-4.074,5.8V153.91c0,.294.089.587.089.807a2.652,2.652,0,0,0,.974-.367l78.375-37.505c2.214-1.028,4.074-3.67,4.074-5.8V3.007c0-.294-.089-.587-.089-.807a2.652,2.652,0,0,0-.974.367Z" transform="translate(-173.777 -0.582)"/>
              <path id="XMLID_890_" class="cls-5" d="M185.7,50.9l69.254-33.1v96.149L185.7,147.05Z" transform="translate(-174.807 -4.732)"/>
              <path id="XMLID_887_" class="cls-6" d="M244.459,5.24l-5.845,2.789V2.892c0-.734-.62-1.1-1.417-.661l-9.564,4.551c-.354-3.89-3.9-5.358-8.236-3.3s-7.882,6.973-8.236,11.23l-8.413,4.037A2.561,2.561,0,0,0,201.33,20.8v5.138l-4.694,2.275a3.56,3.56,0,0,0-2.037,2.936V44.067l1.151.661L246.5,20.36V6.194C246.5,5.167,245.61,4.727,244.459,5.24Zm-23.911,5.8c-1.063.514-2.037.073-2.037-.954a3.552,3.552,0,0,1,2.037-2.862c1.063-.514,2.037-.073,2.037.954A3.552,3.552,0,0,1,220.548,11.039Z" transform="translate(-175.825 -0.54)"/>
              <g id="Group_1489" data-name="Group 1489" transform="translate(18.775 1.574)">
                <path id="Path_2581" data-name="Path 2581" class="cls-7" d="M244.3,11.313,252.182,7.5v-.22c0-1.028-.886-1.468-2.037-.954L244.3,9.184Z" transform="translate(-200.286 -3.196)"/>
                <path id="Path_2582" data-name="Path 2582" class="cls-8" d="M196.814,32.352a3.768,3.768,0,0,1,2.037-2.936l4.694-2.275V22a2.56,2.56,0,0,1,1.417-2.055l8.413-4.037c.354-4.184,3.9-9.175,8.236-11.23a7.607,7.607,0,0,1,4.694-.807C224.8,2.48,222.319,2.26,219.4,3.581c-4.339,2.055-7.882,6.973-8.236,11.23l-8.413,4.037a2.56,2.56,0,0,0-1.417,2.055V26.04l-4.694,2.275a3.56,3.56,0,0,0-2.037,2.936V44.169l1.151.661,1.063-.514Z" transform="translate(-194.6 -2.29)"/>
                <path id="Path_2583" data-name="Path 2583" class="cls-9" d="M231.8,8.937,242.87,3.8V2.992c0-.734-.62-1.1-1.417-.661l-9.564,4.551A8.619,8.619,0,0,1,231.8,8.937Z" transform="translate(-198.856 -2.141)"/>
              </g>
              <g id="XMLID_885_" transform="translate(42.863 6.454)">
                <path id="XMLID_886_" class="cls-10" d="M223.66,12.834A3.748,3.748,0,0,0,225.7,9.971,1.1,1.1,0,0,0,224.368,8.8a1.507,1.507,0,0,1,.177.661,3.552,3.552,0,0,1-2.037,2.862,2.629,2.629,0,0,1-.709.22A1.421,1.421,0,0,0,223.66,12.834Z" transform="translate(-221.8 -8.789)"/>
              </g>
              <path id="XMLID_884_" class="cls-11" d="M192.9,144.424,252.766,115.8v2.642L192.9,147.067Z" transform="translate(-175.631 -30.804)"/>
              <path id="XMLID_883_" class="cls-11" d="M192.9,152.324,252.766,123.7v2.642L192.9,154.967Z" transform="translate(-175.631 -32.906)"/>
              <path id="XMLID_882_" class="cls-11" d="M192.9,160.224,252.766,131.6v2.642L192.9,162.867Z" transform="translate(-175.631 -35.008)"/>
              <path id="XMLID_881_" class="cls-11" d="M192.9,174.483,216.014,163.4v2.716L192.9,177.125Z" transform="translate(-175.631 -43.468)"/>
              <path id="XMLID_880_" class="cls-12" d="M192.9,133.38l32.944-15.78v4.624L192.9,138Z" transform="translate(-175.631 -31.283)"/>
              <path id="XMLID_852_" class="cls-12" d="M207.6,57.48,240.544,41.7v4.624L207.6,62.1Z" transform="translate(-177.313 -11.091)"/>
              <path id="XMLID_844_" class="cls-13" d="M192.9,97.18l5.756-2.716v12.257l-5.756,2.716Zm8.679,8,5.756-2.716V82.941l-5.756,2.716ZM210.258,101l5.756-2.716V73.913l-5.756,2.716Zm8.679-4.257,5.756-2.716V78.9l-5.756,2.716Zm8.679-4.184,5.756-2.716V80.005l-5.756,2.716Zm8.679-4.257,5.756-2.716V66.574l-5.756,2.716Zm8.767-4.184,5.756-2.716V58.5l-5.756,2.716Z" transform="translate(-175.631 -15.56)"/>
            </g>
          </g>
          <g id="Layer_6_copy" transform="translate(2.568 144.336)">
            <g id="Group_1500" data-name="Group 1500">
              <path id="XMLID_822_" class="cls-14" d="M48.788,272.354c-4.251-2.055-4.251-5.358,0-7.413a20.25,20.25,0,0,1,15.5,0c4.251,2.055,4.251,5.358,0,7.413A20.944,20.944,0,0,1,48.788,272.354Z" transform="translate(-45.6 -214.408)"/>
              <path id="XMLID_821_" class="cls-15" d="M63.762,264.628c-4.517-2.2-4.517-5.725,0-7.927s11.956-2.2,16.472,0,4.517,5.725,0,7.927S68.279,266.83,63.762,264.628Z" transform="translate(-47.29 -212.187)"/>
              <path id="XMLID_820_" class="cls-16" d="M80.188,255.754c-4.251-2.055-4.251-5.358,0-7.413a20.249,20.249,0,0,1,15.5,0c4.251,2.055,4.251,5.358,0,7.413A20.944,20.944,0,0,1,80.188,255.754Z" transform="translate(-49.192 -209.992)"/>
              <g id="Group_1499" data-name="Group 1499" transform="translate(3.874)">
                <path id="XMLID_819_" class="cls-17" d="M67.634,263.412c-2.745-1.321-2.745-3.45,0-4.771a13.13,13.13,0,0,1,10.007,0c2.745,1.321,2.745,3.45,0,4.771A13.129,13.129,0,0,1,67.634,263.412Z" transform="translate(-51.76 -212.878)"/>
                <path id="Path_2744" data-name="Path 2744" class="cls-18" d="M81.2,201.3H95.28v37.946h0c0,.881-.708,1.762-2.037,2.349a13.129,13.129,0,0,1-10.007,0c-1.771-.881-2.391-2.055-1.86-3.156Z" transform="translate(-53.546 -197.887)"/>
                <path id="XMLID_818_" class="cls-19" d="M65.866,251.271H79.681V222.5H65.6Z" transform="translate(-51.763 -203.527)"/>
                <path id="XMLID_817_" class="cls-20" d="M83.234,202.412c-2.745-1.321-2.745-3.45,0-4.771a13.129,13.129,0,0,1,10.007,0c2.745,1.321,2.745,3.45,0,4.771A13.129,13.129,0,0,1,83.234,202.412Z" transform="translate(-53.544 -196.65)"/>
                <path id="XMLID_816_" class="cls-21" d="M67.634,223.712c-2.745-1.321-2.745-3.45,0-4.771a13.129,13.129,0,0,1,10.007,0c2.745,1.321,2.745,3.45,0,4.771A13.129,13.129,0,0,1,67.634,223.712Z" transform="translate(-51.76 -202.317)"/>
                <path id="XMLID_815_" class="cls-22" d="M52.234,271.712c-2.745-1.321-2.745-3.45,0-4.771a12.685,12.685,0,0,1,9.83,0c2.745,1.321,2.745,3.45,0,4.771A13.375,13.375,0,0,1,52.234,271.712Z" transform="translate(-49.998 -215.087)"/>
                <path id="XMLID_814_" class="cls-22" d="M50.177,263.543h13.9V244.9H50Z" transform="translate(-49.978 -209.486)"/>
                <path id="XMLID_813_" class="cls-22" d="M52.034,246.012c-2.745-1.321-2.745-3.45,0-4.771a13.129,13.129,0,0,1,10.007,0c2.745,1.321,2.745,3.45,0,4.771A13.129,13.129,0,0,1,52.034,246.012Z" transform="translate(-49.975 -208.249)"/>
              </g>
            </g>
          </g>
          <g id="Layer_5_copy" transform="translate(68.528 88.237)">
            <g id="Group_1509" data-name="Group 1509" transform="translate(0)">
              <path id="XMLID_722_" class="cls-17" d="M150.912,121.819l.354.514c.531.294.708,2.128.708,2.569v63.561c0,3.083-2.48,6.973-5.668,8.514L117.613,210.7a6.743,6.743,0,0,1-2.657.44l-3.719-1.1a2.609,2.609,0,0,1-2.037-2.422V141.93c0-3.083,2.568-6.826,5.756-8.294l26.125-12.477A10.387,10.387,0,0,1,150.912,121.819Z" transform="translate(-109.2 -120.216)"/>
              <path id="XMLID_721_" class="cls-4" d="M146.83,122.161c3.188-1.541,5.756-.294,5.756,2.789V189.1c0,3.083-2.568,6.826-5.756,8.294l-28.073,13.431c-3.188,1.541-5.756.294-5.756-2.789V143.886c0-3.083,2.568-6.826,5.756-8.294Z" transform="translate(-109.635 -120.558)"/>
              <path id="XMLID_720_" class="cls-23" d="M149.81,136.7v51.818L116.6,204.445V152.554Z" transform="translate(-110.047 -124.602)"/>
              <g id="XMLID_719_" transform="translate(18.155 11.365)">
                <path id="Path_2825" data-name="Path 2825" class="cls-10" d="M130.32,140.985a.62.62,0,0,0,.354-.073l8.767-4.184a.483.483,0,0,0,.266-.734.7.7,0,0,0-.886-.22l-8.767,4.184a.483.483,0,0,0-.266.734A.609.609,0,0,0,130.32,140.985Z" transform="translate(-129.7 -135.7)"/>
              </g>
              <path id="XMLID_718_" class="cls-12" d="M134.854,220.949c1.948-.954,3.454-.22,3.454,1.688a6.535,6.535,0,0,1-3.454,5.064c-1.948.954-3.454.147-3.454-1.688A6.423,6.423,0,0,1,134.854,220.949Z" transform="translate(-111.74 -146.904)"/>
            </g>
            <g id="Group_1510" data-name="Group 1510" transform="translate(11.601 34.558)">
              <path id="XMLID_715_" class="cls-24" d="M144.44,169.575a6.35,6.35,0,0,0-2.037-1.468c-2.568-1.248-5.756-1.028-9.033.514,0,0-.089,0-.089.073a18.606,18.606,0,0,0-3.985,2.569c-4.162,3.45-7,8.587-7,13.138a7.775,7.775,0,0,0,1.948,5.358,7.07,7.07,0,0,0,2.125,1.541,8.954,8.954,0,0,0,3.631.807,12.793,12.793,0,0,0,5.4-1.321s.089,0,.089-.073a16.129,16.129,0,0,0,3.9-2.569c4.162-3.45,7-8.587,7-13.138A8.27,8.27,0,0,0,144.44,169.575Zm-7.173,15.046a13.225,13.225,0,0,1-2.3,1.908,9.782,9.782,0,0,1-1.683.954c-1.86.881-3.631,1.1-4.782.587a3.572,3.572,0,0,1-1.328-1.321,5.069,5.069,0,0,1-.531-2.422c0-3.156,1.948-6.9,4.694-9.688a13.226,13.226,0,0,1,2.3-1.908,9.786,9.786,0,0,1,1.683-.954,7.426,7.426,0,0,1,3.277-.881,3.407,3.407,0,0,1,1.505.294,3.572,3.572,0,0,1,1.328,1.321,5.069,5.069,0,0,1,.531,2.422C141.96,178.089,140.012,181.833,137.267,184.622Z" transform="translate(-122.3 -167.3)"/>
              <path id="XMLID_712_" class="cls-5" d="M151.54,173.175a6.35,6.35,0,0,0-2.037-1.468c-2.568-1.248-5.756-1.028-9.033.514,0,0-.089,0-.089.073a18.6,18.6,0,0,0-3.985,2.569c-4.162,3.45-7,8.587-7,13.138a7.775,7.775,0,0,0,1.948,5.358,7.07,7.07,0,0,0,2.125,1.541,8.953,8.953,0,0,0,3.631.807,12.793,12.793,0,0,0,5.4-1.321s.089,0,.089-.073a16.125,16.125,0,0,0,3.9-2.569c4.162-3.45,7-8.587,7-13.138A7.33,7.33,0,0,0,151.54,173.175Zm-7.085,15.046a13.224,13.224,0,0,1-2.3,1.908,9.782,9.782,0,0,1-1.683.954c-1.86.881-3.631,1.1-4.782.587a3.571,3.571,0,0,1-1.328-1.321,5.069,5.069,0,0,1-.531-2.422c0-3.156,1.948-6.9,4.694-9.688a13.227,13.227,0,0,1,2.3-1.908,9.783,9.783,0,0,1,1.683-.954,7.426,7.426,0,0,1,3.277-.881,3.407,3.407,0,0,1,1.506.294,3.572,3.572,0,0,1,1.328,1.321,5.069,5.069,0,0,1,.531,2.422C149.149,181.689,147.2,185.433,144.455,188.222Z" transform="translate(-123.112 -168.258)"/>
              <path id="XMLID_711_" class="cls-25" d="M146.137,176.377a7.425,7.425,0,0,1,3.277-.881,3.407,3.407,0,0,1,1.506.294,3.571,3.571,0,0,1,1.328,1.321l2.922-2.936a6.35,6.35,0,0,0-2.037-1.468c-2.568-1.248-5.756-1.028-9.033.514l.354,4.11A9.787,9.787,0,0,1,146.137,176.377Z" transform="translate(-124.794 -168.524)"/>
              <path id="XMLID_710_" class="cls-4" d="M143.928,177.81l-.354-4.11s-.089,0-.089.073a18.6,18.6,0,0,0-3.985,2.569l2.037,3.45A14.235,14.235,0,0,1,143.928,177.81Z" transform="translate(-124.268 -169.003)"/>
              <path id="XMLID_709_" class="cls-22" d="M136.039,190.338c0-3.156,1.948-6.9,4.694-9.688L138.7,177.2c-4.162,3.45-7,8.587-7,13.138a7.775,7.775,0,0,0,1.948,5.358l2.922-2.936A5.069,5.069,0,0,1,136.039,190.338Z" transform="translate(-123.375 -169.934)"/>
              <path id="XMLID_708_" class="cls-19" d="M154.1,175l-2.922,2.936a5.069,5.069,0,0,1,.531,2.422c0,3.156-1.948,6.9-4.694,9.688a13.227,13.227,0,0,1-2.3,1.908,9.783,9.783,0,0,1-1.683.954c-1.86.881-3.631,1.1-4.782.587a3.571,3.571,0,0,1-1.328-1.321L134,195.111a7.07,7.07,0,0,0,2.125,1.541,8.953,8.953,0,0,0,3.631.807,12.793,12.793,0,0,0,5.4-1.321s.089,0,.089-.073a16.127,16.127,0,0,0,3.9-2.569c4.162-3.45,7-8.587,7-13.138A8.6,8.6,0,0,0,154.1,175Z" transform="translate(-123.638 -169.349)"/>
            </g>
          </g>
          <g id="Layer_11_copy" transform="translate(0 41.531)">
            <g id="Group_1513" data-name="Group 1513" transform="translate(56.855)">
              <path id="XMLID_681_" class="cls-26" d="M159.416,57.035c0-.367-.354-.587-.8-.367L107.7,81.036a1.461,1.461,0,0,0-.8,1.1v29.212c0,.44.354.587.8.367l50.922-24.367a1.461,1.461,0,0,0,.8-1.1Z" transform="translate(-106.9 -56.58)"/>
              <path id="XMLID_680_" class="cls-27" d="M109.2,82.147a1.461,1.461,0,0,0-.8,1.1v28.624l50.39-24.147a1.352,1.352,0,0,0,.8-1.1V58Z" transform="translate(-107.072 -56.958)"/>
              <path id="XMLID_679_" class="cls-28" d="M114.531,92.893a1.1,1.1,0,0,0-.531.734V113.3l14.7-7.193a1.1,1.1,0,0,0,.531-.734V85.7Z" transform="translate(-107.712 -64.327)"/>
              <path id="XMLID_678_" class="cls-29" d="M132.8,80.652,161.316,67v1.982L132.8,82.56Z" transform="translate(-109.863 -59.352)"/>
              <path id="XMLID_677_" class="cls-29" d="M132.8,86.978,161.316,73.4v1.908L132.8,88.96Z" transform="translate(-109.863 -61.055)"/>
              <path id="XMLID_676_" class="cls-29" d="M132.8,93.352,161.316,79.7v1.908L132.8,95.26Z" transform="translate(-109.863 -62.731)"/>
              <path id="XMLID_675_" class="cls-29" d="M132.8,101.833,148.829,94.2v1.982l-16.029,7.56Z" transform="translate(-109.863 -66.589)"/>
            </g>
            <g id="Group_1515" data-name="Group 1515" transform="translate(0 62.52)">
              <path id="XMLID_674_" class="cls-30" d="M95.216,142.23c0-.44-.354-.587-.8-.367L43.5,166.231a1.461,1.461,0,0,0-.8,1.1v29.212c0,.44.354.587.8.367l50.922-24.368a1.352,1.352,0,0,0,.8-1.1Z" transform="translate(-42.7 -141.762)"/>
              <path id="XMLID_673_" class="cls-27" d="M45,167.447a1.461,1.461,0,0,0-.8,1.1v28.624l50.39-24.147a1.352,1.352,0,0,0,.8-1.1V143.3Z" transform="translate(-42.872 -142.171)"/>
              <g id="Group_1514" data-name="Group 1514" transform="translate(3.365 8.982)">
                <path id="XMLID_672_" class="cls-31" d="M46.5,177.12,94.588,154v1.982L46.5,179.1Z" transform="translate(-46.5 -154)"/>
                <path id="XMLID_671_" class="cls-32" d="M46.5,183.446,94.588,160.4v1.908L46.5,185.428Z" transform="translate(-46.5 -155.703)"/>
                <path id="XMLID_670_" class="cls-33" d="M46.5,189.82,94.588,166.7v1.908L46.5,191.728Z" transform="translate(-46.5 -157.379)"/>
                <path id="XMLID_669_" class="cls-34" d="M46.5,198.3l35.6-17.1v1.982l-35.6,17.1Z" transform="translate(-46.5 -161.236)"/>
              </g>
            </g>
            <g id="Group_1516" data-name="Group 1516" transform="translate(0 27.45)">
              <path id="XMLID_668_" class="cls-35" d="M95.216,94.435c0-.367-.354-.587-.8-.367L43.5,118.436a1.461,1.461,0,0,0-.8,1.1v29.212c0,.44.354.587.8.367l50.922-24.367a1.352,1.352,0,0,0,.8-1.1Z" transform="translate(-42.7 -93.98)"/>
              <path id="XMLID_667_" class="cls-27" d="M45,119.547a1.352,1.352,0,0,0-.8,1.1v28.624l50.39-24.147a1.352,1.352,0,0,0,.8-1.1V95.4Z" transform="translate(-42.872 -94.358)"/>
              <path id="Path_2867" data-name="Path 2867" class="cls-36" d="M46.5,153.039v-6.092l5.668-6.679L55.09,142.1l6.022-9.908,2.214,3.156h3.188l5.136-6.239,3.011-1.541h6.2l3.9-4.771,4.517,1.688,4.782-.22v6.239Z" transform="translate(-43.135 -101.647)"/>
            </g>
          </g>
        </g>
        <g id="XMLID_407_" transform="translate(189.269 97.893)">
          <path id="XMLID_477_" class="cls-37" d="M247.488,231.815l.855-.248a4.749,4.749,0,0,1,3.933.662l.855-.579.855,1.9,4.19-.331-.941,3.64a.758.758,0,0,1-.513.5l-1.71.5a4.176,4.176,0,0,1-4.1-.993l-3.848-3.557A.907.907,0,0,1,247.488,231.815Z" transform="translate(-236.544 -164.781)"/>
          <path id="XMLID_476_" class="cls-5" d="M247.513,231.815l.855-.248a4.749,4.749,0,0,1,3.933.662l.855-.579.855,1.9,4.19-.331-.513,1.9a2.383,2.383,0,0,1-1.71,1.737l-.77.248a4.176,4.176,0,0,1-4.1-.993l-3.848-3.557c-.171-.165-.257-.248-.257-.414C247.171,231.98,247.342,231.815,247.513,231.815Z" transform="translate(-236.569 -164.781)"/>
          <path id="XMLID_475_" class="cls-37" d="M254.409,233.044c-.855-.827-.684-1.737.513-2.068a4.189,4.189,0,0,1,3.677.91c.855.827.6,1.737-.513,2.068A4.32,4.32,0,0,1,254.409,233.044Z" transform="translate(-237.566 -164.687)"/>
          <g id="XMLID_473_" transform="translate(17.784 60.664)">
            <path id="XMLID_474_" class="cls-38" d="M256.968,232.06a1.329,1.329,0,0,0,1.368-1.324v-5.212a1.369,1.369,0,0,0-2.736,0v5.212A1.329,1.329,0,0,0,256.968,232.06Z" transform="translate(-255.6 -224.2)"/>
          </g>
          <g id="XMLID_471_" transform="translate(16.331 30.379)">
            <path id="XMLID_472_" class="cls-39" d="M256.722,224.084h.086c1.2-.083,2.137.5,2.052-.662l-.6-13.4.6-20.269a2.153,2.153,0,0,0-2.138-2.151c-1.2-.083-2.821.91-2.821,2.068v20.517l.6,13.485C254.67,224.745,255.61,224.084,256.722,224.084Z" transform="translate(-253.9 -187.594)"/>
          </g>
          <path id="XMLID_470_" class="cls-37" d="M240.724,237.789l.77-.414a4.676,4.676,0,0,1,3.933-.248l.684-.827,1.283,1.655,4.018-1.324v3.723a.693.693,0,0,1-.342.579l-1.539.91a4.208,4.208,0,0,1-4.19,0l-4.617-2.565A.841.841,0,0,1,240.724,237.789Z" transform="translate(-235.594 -165.626)"/>
          <path id="XMLID_469_" class="cls-5" d="M240.742,237.789l.77-.414a4.675,4.675,0,0,1,3.933-.248l.684-.827,1.283,1.655,4.019-1.324v1.9a2.532,2.532,0,0,1-1.2,2.068l-.684.414a4.208,4.208,0,0,1-4.19,0l-4.617-2.565a.832.832,0,0,1-.342-.414C240.486,238.037,240.571,237.872,240.742,237.789Z" transform="translate(-235.612 -165.626)"/>
          <path id="XMLID_468_" class="cls-37" d="M247.77,237.56a1.136,1.136,0,0,1,0-2.151,4.477,4.477,0,0,1,3.848,0,1.136,1.136,0,0,1,0,2.151A4.477,4.477,0,0,1,247.77,237.56Z" transform="translate(-236.569 -165.397)"/>
          <g id="XMLID_466_" transform="translate(11.799 64.056)">
            <path id="XMLID_467_" class="cls-38" d="M249.968,236.16a1.329,1.329,0,0,0,1.368-1.324v-5.212a1.369,1.369,0,0,0-2.736,0v5.212A1.329,1.329,0,0,0,249.968,236.16Z" transform="translate(-248.6 -228.3)"/>
          </g>
          <g id="XMLID_464_" transform="translate(17.033 14.683)">
            <path id="XMLID_465_" class="cls-37" d="M256.841,189.948a1.552,1.552,0,0,0,1.368-.745l2.907-4.8a11.3,11.3,0,0,0-3.078-14.892l-.769-.579a1.579,1.579,0,0,0-2.223.331,1.466,1.466,0,0,0,.342,2.151l.769.579a8.2,8.2,0,0,1,2.223,10.921l-2.907,4.8a1.477,1.477,0,0,0,.6,2.068A2.568,2.568,0,0,0,256.841,189.948Z" transform="translate(-254.722 -168.622)"/>
          </g>
          <g id="XMLID_462_" transform="translate(9.747 33.732)">
            <path id="XMLID_463_" class="cls-40" d="M249.62,228.754h.171c1.2-.083,2.052,0,1.966-1.158l-1.2-15.388,4.788-19.938c.086-1.158-4.446-.331-5.643-.414a2.168,2.168,0,0,0-2.309,1.986l-1.2,18.449,1.2,15.719C247.482,229,248.508,228.754,249.62,228.754Z" transform="translate(-246.2 -191.647)"/>
          </g>
          <path id="XMLID_460_" class="cls-41" d="M258.3,191.67a1.552,1.552,0,0,1-1.368.745,2.568,2.568,0,0,1-.77-.165,1.477,1.477,0,0,1-.6-2.068l2.907-4.8a7.394,7.394,0,0,0,.941-2.482,32.6,32.6,0,0,0,.257,4.137l.256,1.986Z" transform="translate(-237.781 -156.404)"/>
          <path id="XMLID_459_" class="cls-37" d="M258.314,160l-6.84,3.806A9.4,9.4,0,0,0,246.6,172v18.863c2.736,1.9,10.26-.745,11.714-3.723L257.886,183a24.177,24.177,0,0,1-.257-4.964Z" transform="translate(-236.511 -152.45)"/>
          <path id="XMLID_458_" class="cls-42" d="M253.528,163.118h2.309V154.1H247.8v3.392A5.6,5.6,0,0,0,253.528,163.118Z" transform="translate(-236.685 -151.431)"/>
          <path id="XMLID_418_" class="cls-42" d="M253.3,165.436h.941a1.15,1.15,0,0,0,1.2-1.158V158.9H252.1v5.378A1.15,1.15,0,0,0,253.3,165.436Z" transform="translate(-237.308 -152.26)"/>
          <path id="XMLID_417_" class="cls-41" d="M246.486,178a1.327,1.327,0,0,0,.855-1.076l.6-4.8a1.617,1.617,0,0,1,1.8-1.324c.855.083.941.993.769,1.82l-.085,4.633a4.6,4.6,0,0,1-3.249,3.723,2.567,2.567,0,0,1-.77.165V178Z" transform="translate(-236.482 -154.313)"/>
          <path id="XMLID_413_" class="cls-37" d="M241.049,178.651l-4.617-5.047a1.449,1.449,0,0,1,.171-2.151,1.565,1.565,0,0,1,2.223.165l4.617,5.047a1.394,1.394,0,0,0,1.539.414,1.463,1.463,0,0,0,1.026-1.158l.6-4.8a1.617,1.617,0,0,1,1.8-1.324,1.584,1.584,0,0,1,1.368,1.737l-.6,4.8a4.6,4.6,0,0,1-3.249,3.723,3.883,3.883,0,0,1-1.368.165A4.923,4.923,0,0,1,241.049,178.651Z" transform="translate(-234.979 -154.14)"/>
          <g id="XMLID_411_" transform="translate(1.088 16.876)">
            <path id="XMLID_412_" class="cls-42" d="M239.6,172.619l-.769-.827a1.644,1.644,0,0,0-2.223-.165,1.519,1.519,0,0,0-.171,2.151l.941.993Z" transform="translate(-236.072 -171.272)"/>
          </g>
          <path id="XMLID_410_" class="cls-42" d="M234.8,172.22a1.882,1.882,0,1,0,1.881-1.82A1.868,1.868,0,0,0,234.8,172.22Z" transform="translate(-234.8 -154.246)"/>
          <path id="XMLID_409_" class="cls-42" d="M234.989,168.466l2.565,2.647a.4.4,0,0,0,.428,0l.171-.165a.365.365,0,0,0,0-.414l-2.565-2.647a.4.4,0,0,0-.427,0l-.171.165A.359.359,0,0,0,234.989,168.466Z" transform="translate(-234.818 -153.801)"/>
          <g id="XMLID_408_" transform="translate(9.99)">
            <path id="Path_1584" data-name="Path 1584" class="cls-43" d="M247.011,151.971c1.368-1.572,4.617-1.158,6.413-.579,2.223.662,5.045,1.489,5.387,4.054a15.39,15.39,0,0,1,0,1.986,10.084,10.084,0,0,0,1.026,4.467c1.026,1.986,1.454,3.226.427,5.212-.6,1.241-1.026,3.061-2.308,3.806-1.368.745-4.19,1.241-5.387.331-1.8-1.324-2.651-4.467-2.48-6.453.171-2.151,1.283-4.385.6-6.453-.427-1.324-2.223-2.813-3.249-3.723C246.5,153.791,246.07,153.046,247.011,151.971Z" transform="translate(-246.484 -150.874)"/>
          </g>
          <g id="Group_1338" data-name="Group 1338" class="cls-44" transform="translate(9.99 0.007)">
            <path id="Path_1585" data-name="Path 1585" class="cls-20" d="M247.011,151.972a4.658,4.658,0,0,1,3.677-1.076,3.523,3.523,0,0,0-2.651,1.076c-.941,1.076-.427,1.9.427,2.647,1.026.91,2.822,2.4,3.249,3.723.684,2.068-.427,4.3-.6,6.453-.171,1.986.77,5.212,2.479,6.453a3.121,3.121,0,0,0,1.625.5,3.938,3.938,0,0,1-2.651-.5c-1.8-1.324-2.651-4.467-2.48-6.453.171-2.151,1.283-4.385.6-6.453-.427-1.324-2.223-2.813-3.249-3.723C246.5,153.792,246.07,153.048,247.011,151.972Z" transform="translate(-246.484 -150.882)"/>
          </g>
        </g>
        <g id="XMLID_12_" transform="translate(108.373 135.154)">
          <path id="XMLID_141_" class="cls-37" d="M147.723,296.661v2.73a1.894,1.894,0,0,1-.941,1.655l-.428.248a5.659,5.659,0,0,1-5.387.083l-5.045-2.647a.842.842,0,0,1,0-1.489h0c.941-.5,2.052-1.324,3.078-1.241a8.687,8.687,0,0,0,1.454.165l2.309.331Z" transform="translate(-117.335 -228.917)"/>
          <path id="XMLID_140_" class="cls-45" d="M135.928,298.514l5.045,2.647a5.653,5.653,0,0,0,5.387-.083l.427-.248a1.894,1.894,0,0,0,.941-1.655v.662a1.894,1.894,0,0,1-.941,1.655l-.427.248a5.659,5.659,0,0,1-5.387.083l-5.045-2.647a.8.8,0,0,1-.342-1.075A.425.425,0,0,0,135.928,298.514Z" transform="translate(-117.339 -229.281)"/>
          <g id="XMLID_137_" transform="translate(21.667 67.33)">
            <path id="XMLID_139_" class="cls-5" d="M140.2,297.955l-.6-.248.684-1.406c.257,0,.427.083.684.083Z" transform="translate(-139.6 -296.3)"/>
            <path id="XMLID_138_" class="cls-5" d="M141.6,298.22l-.6-.248.77-1.572.684.083Z" transform="translate(-139.803 -296.317)"/>
          </g>
          <path id="XMLID_132_" class="cls-37" d="M138.223,303.361v2.73a1.894,1.894,0,0,1-.941,1.655l-.427.248a5.659,5.659,0,0,1-5.387.083l-5.045-2.647a.842.842,0,0,1,0-1.489h0c.941-.5,2.052-1.324,3.078-1.241a8.693,8.693,0,0,0,1.453.165l2.309.331Z" transform="translate(-115.958 -230.074)"/>
          <path id="XMLID_131_" class="cls-45" d="M126.328,305.214l5.045,2.647a5.653,5.653,0,0,0,5.387-.083l.428-.248a1.894,1.894,0,0,0,.941-1.655v.662a1.894,1.894,0,0,1-.941,1.655l-.428.248a5.659,5.659,0,0,1-5.387.083l-5.045-2.647a.8.8,0,0,1-.342-1.075A.832.832,0,0,0,126.328,305.214Z" transform="translate(-115.947 -230.438)"/>
          <g id="XMLID_127_" transform="translate(26.296 12.326)">
            <path id="XMLID_128_" class="cls-17" d="M147.4,250.816a1.835,1.835,0,0,0,1.112-.414l2.907-2.73a9.847,9.847,0,0,0-.684-15.057l-3.249-2.482a1.538,1.538,0,0,0-2.137.248,1.425,1.425,0,0,0,.256,2.068l3.249,2.482a7.205,7.205,0,0,1,2.736,5.129,6.875,6.875,0,0,1-2.223,5.378l-2.907,2.73a1.512,1.512,0,0,0,0,2.151C146.541,250.651,146.969,250.816,147.4,250.816Z" transform="translate(-145.014 -229.814)"/>
          </g>
          <g id="XMLID_122_" transform="translate(23.377 30.763)">
            <g id="XMLID_125_">
              <path id="XMLID_126_" class="cls-46" d="M146.132,291.977a2.433,2.433,0,0,0,2.394-2.647l-.855-16.546,1.112-18.035a2.711,2.711,0,0,0-2.736-2.647c-1.454,0-4.446,1.158-4.446,2.647l1.71,34.582A2.909,2.909,0,0,0,146.132,291.977Z" transform="translate(-141.6 -252.1)"/>
            </g>
          </g>
          <g id="XMLID_119_" transform="translate(16.793 36.389)">
            <g id="XMLID_120_">
              <path id="XMLID_121_" class="cls-47" d="M136.636,298.777a2.712,2.712,0,0,0,2.736-2.647l-.342-17.7,2.052-16.877c0-1.406-2.907-2.647-4.446-2.647a2.712,2.712,0,0,0-2.736,2.647v34.664A2.643,2.643,0,0,0,136.636,298.777Z" transform="translate(-133.9 -258.9)"/>
            </g>
          </g>
          <g id="XMLID_108_" transform="translate(16.561 19.512)">
            <path id="XMLID_118_" class="cls-10" d="M146.857,249.5l1.2,8.356a3.007,3.007,0,0,1-1.539,2.565l-7.1,3.806a2.845,2.845,0,0,1-4.275-2.4V244.953c0-1.076-2.223-.331-1.282-.827l9.918-5.543C145.66,237.507,146.857,247.352,146.857,249.5Z" transform="translate(-133.629 -238.501)"/>
          </g>
          <g id="Group_1345" data-name="Group 1345" class="cls-48" transform="translate(27.117 27.371)">
            <path id="Path_1711" data-name="Path 1711" class="cls-49" d="M146.424,251.392a1.572,1.572,0,0,0,1.112,2.647,1.836,1.836,0,0,0,1.111-.414l1.71-1.572c0-.414-.085-.827-.085-.993-.085-.993-.171-2.068-.171-3.061-.257.248-.428.5-.684.745Z" transform="translate(-145.975 -248)"/>
          </g>
          <g id="XMLID_106_" transform="translate(15.998 11.714)">
            <path id="XMLID_107_" class="cls-17" d="M147.7,234.473l-.513,8.025c.171,1.737.085,3.475.257,5.129.085.993.684,7.363.427,8.273-.171.579-1.881,1.986-4.19,3.144-.256.083-.427-5.129-.684-5.047-.171.083-.428,5.543-.6,5.626-2.993,1.324-6.5,2.151-8.892.993l.256-9.845-.513-6.122c-.342-4.219-1.111-9.845,3.164-12.41.171-.083.342-.248.513-.331l4.532-2.4a3.754,3.754,0,0,1,3.506,0h0A5.358,5.358,0,0,1,147.7,234.473Z" transform="translate(-132.97 -229.075)"/>
          </g>
          <g id="XMLID_103_" transform="translate(22.265 6.109)">
            <g id="XMLID_104_" transform="translate(0)">
              <path id="XMLID_105_" class="cls-42" d="M141.839,231.152a1.508,1.508,0,0,0,1.539-1.489v-5.874a1.54,1.54,0,0,0-3.078,0v5.874A1.508,1.508,0,0,0,141.839,231.152Z" transform="translate(-140.3 -222.3)"/>
            </g>
          </g>
          <g id="XMLID_97_" transform="translate(17.563 3.296)">
            <path id="XMLID_98_" class="cls-42" d="M139.845,228.828h2.565V218.9H134.8v5.047A4.973,4.973,0,0,0,139.845,228.828Z" transform="translate(-134.8 -218.9)"/>
          </g>
          <path id="XMLID_96_" class="cls-50" d="M135.3,218.8v5.212a4.884,4.884,0,0,0,4.959,4.8h-.6a4.884,4.884,0,0,1-4.959-4.8V218.8Z" transform="translate(-117.223 -215.587)"/>
          <g id="XMLID_93_" transform="translate(15.511)">
            <path id="Path_1712" data-name="Path 1712" class="cls-45" d="M132.657,216.144a1.621,1.621,0,0,1,2.137-.827c.428.165.684.331,1.111.083a1.611,1.611,0,0,1,1.368-.414c.256,0,.684.248.94.248.6,0,.941-.5,1.625-.248a1.719,1.719,0,0,0,1.112.083,1.719,1.719,0,0,1,1.112.083c.684.248.684.745,1.026,1.241.342.414.855.165,1.2.5a1.128,1.128,0,0,1,.257,1.241c-.086.165-.257.414-.171.579a.657.657,0,0,0,.342.331c.428.414.085.993-.257,1.489-.085.083-.085.165-.085.331a.425.425,0,0,0,.171.331,1.364,1.364,0,0,1-.171,1.82c-.257.165-.6.331-.6.662,0,.165.086.331.086.5a1.483,1.483,0,0,1-.77,1.655c-.684.331-.086,1.572-1.112,1.655-.855.083-1.624-.91-1.8-1.655,0,.083-.513-.165-.6-.248-.171-.165-.171-.5-.257-.662a3.332,3.332,0,0,1-.257-1.324c0-.165,0-2.068-.171-2.068a2.6,2.6,0,0,1-1.111-.165c-.855-.331-.513-.827-.77-1.406-.171-.248-.513-.331-.684-.579a1.565,1.565,0,0,1-.086-1.075,3.942,3.942,0,0,1-2.394,0c-.6-.248-1.368-.662-1.454-1.324C132.486,216.723,132.571,216.392,132.657,216.144Z" transform="translate(-132.4 -214.916)"/>
          </g>
          <path id="XMLID_91_" class="cls-51" d="M132.671,216.186a1.682,1.682,0,0,1,1.8-.993,1.761,1.761,0,0,0-1.2.993,1.451,1.451,0,0,0-.171.827c0,.662.855,1.076,1.453,1.324a1.654,1.654,0,0,0,.684.165,3.213,3.213,0,0,1-1.283-.165c-.6-.248-1.368-.662-1.454-1.324A2.855,2.855,0,0,1,132.671,216.186Z" transform="translate(-116.904 -214.958)"/>
          <g id="XMLID_89_" transform="translate(20.384 6.44)">
            <path id="XMLID_90_" class="cls-42" d="M138.1,223.776a1.112,1.112,0,1,0,1.112-1.076A1.016,1.016,0,0,0,138.1,223.776Z" transform="translate(-138.1 -222.7)"/>
          </g>
          <g id="XMLID_72_" transform="translate(13.544 72.79)">
            <path id="XMLID_87_" class="cls-5" d="M130.7,304.555l-.6-.248.684-1.406c.257,0,.428.083.684.083Z" transform="translate(-130.1 -302.9)"/>
            <path id="XMLID_73_" class="cls-5" d="M132.1,304.92l-.6-.331.77-1.489.684.083Z" transform="translate(-130.303 -302.935)"/>
          </g>
          <g id="Group_1346" data-name="Group 1346" transform="translate(0 5.413)">
            <path id="Path_1713" data-name="Path 1713" class="cls-42" d="M134.3,237.626h0l-7.781-.248a7.528,7.528,0,0,1-6.327-3.723l-5.729-10.01a1.37,1.37,0,0,1,.6-1.986,1.461,1.461,0,0,1,2.052.579l5.729,10.01a4.524,4.524,0,0,0,3.762,2.234l7.781.248a1.455,1.455,0,0,1,1.454,1.572A1.431,1.431,0,0,1,134.3,237.626Z" transform="translate(-114.259 -221.459)"/>
          </g>
          <g id="Group_1347" data-name="Group 1347" transform="translate(1.029 7.236)">
            <path id="Path_1714" data-name="Path 1714" class="cls-17" d="M134.476,238.172h0l-7.781-.248a8.018,8.018,0,0,1-6.5-3.806l-4.532-8.025a1.6,1.6,0,0,1,.684-2.234,1.712,1.712,0,0,1,2.309.662l4.532,8.025a4.343,4.343,0,0,0,3.591,2.151l7.781.248a1.632,1.632,0,0,1,1.624,1.737A1.61,1.61,0,0,1,134.476,238.172Z" transform="translate(-115.462 -223.663)"/>
          </g>
          <path id="Path_1715" data-name="Path 1715" class="cls-42" d="M117.4,222.616h0a.385.385,0,0,1-.427-.083l-1.881-3.227a.356.356,0,0,1,.085-.414h0a.385.385,0,0,1,.428.083l1.881,3.227C117.574,222.368,117.574,222.533,117.4,222.616Z" transform="translate(-114.375 -215.597)"/>
        </g>
      </g>
      <g id="Group_1550" data-name="Group 1550" class="cls-52" transform="translate(238.38 80.442)">
        <ellipse id="XMLID_646_" class="cls-53" cx="14.07" cy="7.91" rx="14.07" ry="7.91" transform="translate(0 0.761)"/>
        <path id="XMLID_645_" class="cls-29" d="M335.423,103.448h-1.1a6.546,6.546,0,0,0-1.808-1.369,16.292,16.292,0,0,0-14.306,0,6.86,6.86,0,0,0-1.808,1.369h-1.1v2.586h0c0,1.445.943,2.89,2.908,4.031a16.292,16.292,0,0,0,14.306,0c1.965-1.065,2.987-2.586,2.908-4.031h0v-2.586Z" transform="translate(-311.448 -97.82)"/>
        <path id="XMLID_644_" class="cls-54" d="M318.208,102.313a6.86,6.86,0,0,0-1.808,1.369h-1.1v2.586h0c0,1.445.943,2.89,2.908,4.031a.277.277,0,0,1,.157.076v-2.586l1.965-6.389A8.846,8.846,0,0,0,318.208,102.313Z" transform="translate(-311.448 -98.053)"/>
        <path id="XMLID_643_" class="cls-27" d="M318.2,98.679a16.292,16.292,0,0,1,14.306,0c3.93,2.206,3.93,5.78,0,7.986a16.292,16.292,0,0,1-14.306,0C314.268,104.46,314.268,100.885,318.2,98.679Z" transform="translate(-311.438 -97.006)"/>
        <path id="XMLID_642_" class="cls-55" d="M325.351,97a14.56,14.56,0,0,0-7.153,1.673c-3.93,2.206-3.93,5.78,0,7.986a.277.277,0,0,1,.157.076l6.917-3.194V97Z" transform="translate(-311.438 -97)"/>
        <path id="Path_1416" data-name="Path 1416" class="cls-37" d="M315.368,103.541h9.983V97a14.561,14.561,0,0,0-7.153,1.673C315.84,99.966,314.9,101.792,315.368,103.541Z" transform="translate(-311.438 -97)"/>
      </g>
      <g id="Group_1551" data-name="Group 1551" class="cls-52" transform="translate(260.311 67.969)">
        <ellipse id="XMLID_641_" class="cls-56" cx="11.869" cy="6.617" rx="11.869" ry="6.617" transform="translate(0 4.031)"/>
        <g id="Group_1322" data-name="Group 1322" transform="translate(1.034)">
          <path id="Path_1417" data-name="Path 1417" class="cls-57" d="M363.238,88.011c0-.228-.393-.456-.865-.456h-1.808c-.314,0-.786.3-.865.228-.157-.152-.079-.3.157-.456l1.258-.685c.314-.152-1.808-.076-2.122-.3V84.817a1.58,1.58,0,0,0-1.179,0l-1.258.685a1.333,1.333,0,0,1-.786.076c-.157-.076-.393-.076-.55-.152-.236-.076-.472-.228-.472-.38v-.989c0-.228-.393-.456-.865-.456h-2.908c-.472,0-.865.228-.865.456v.989c0,.152-.157.3-.472.38a2.053,2.053,0,0,0-.55.152.927.927,0,0,1-.786-.076l-1.258-.685a1.58,1.58,0,0,0-1.179,0l-.157,1.673c-.314.152-2.28,0-1.887.152l1.258.685a.3.3,0,0,1,.157.456c-.079.076-.55-.228-.865-.228h-1.808c-.472,0-.865.228-.865.456v2.358c0,.228.393.456.865.456h1.022v2.054h0a.409.409,0,0,0,.236.3l2.122,1.141a2.36,2.36,0,0,0,.707.152h0a1.143,1.143,0,0,0,.472-.152l1.258-.685a1.333,1.333,0,0,1,.786-.076c.157.076.393.076.55.152.236.076.472.228.472.38v.989c0,.228.393.456.865.456h2.908c.472,0,.865-.228.865-.456V94.1c0-.152.157-.3.472-.38a1.143,1.143,0,0,0,.472-.152.928.928,0,0,1,.786.076l1.258.685c.157.076.314.076.472.152h0a1.085,1.085,0,0,0,.707-.152l2.044-1.141c.157-.076.236-.152.236-.3h0V92.8h0V90.75h1.022c.472,0,.865-.228.865-.456Zm-6.681,2.054c-.472,1.445-3.223,2.282-5.581,1.749-1.808-.38-2.987-1.521-2.594-2.586.472-1.445,3.223-2.282,5.581-1.749C355.77,87.859,356.871,88.924,356.557,90.065Z" transform="translate(-341.7 -81.318)"/>
          <path id="Path_1418" data-name="Path 1418" class="cls-57" d="M361.843,84.962V83.669h-1.886l-.393-.228a1.58,1.58,0,0,0-1.179,0l-.393.228H355.4v-.913c0-.228-.393-.456-.865-.456h-2.908c-.472,0-.865.228-.865.456v.913h-2.83l-.393-.228a1.58,1.58,0,0,0-1.179,0l-.393.228H344v1.293c0,.152.079.228.236.38l1.258.685h14.778l1.258-.685c.236-.152.314-.228.314-.38Z" transform="translate(-342.192 -81.007)"/>
          <g id="XMLID_637_" transform="translate(0)">
            <path id="XMLID_638_" class="cls-12" d="M360.094,87.9h2.28c.472,0,.865-.228.865-.456V85.772c0-.228-.393-.456-.865-.456h-1.808c-.314,0-.55-.076-.629-.228a1.054,1.054,0,0,1-.236-.3c-.157-.152-.079-.3.157-.456l1.258-.685c.314-.152.314-.456,0-.685l-2.122-1.141a1.58,1.58,0,0,0-1.179,0l-1.258.685a1.333,1.333,0,0,1-.786.076c-.157-.076-.393-.076-.55-.152-.236-.076-.472-.228-.472-.38v-.989c0-.228-.393-.456-.865-.456h-2.908c-.472,0-.865.228-.865.456v.989c0,.152-.157.3-.472.38a2.051,2.051,0,0,0-.55.152.928.928,0,0,1-.786-.076l-1.258-.685a1.58,1.58,0,0,0-1.179,0l-2.044,1.141c-.314.152-.314.456,0,.685l1.258.685a.3.3,0,0,1,.157.456c-.079.076-.157.228-.236.3-.079.152-.393.228-.629.228h-1.808c-.472,0-.865.228-.865.456v1.673c0,.228.393.456.865.456h1.808c.314,0,.55.076.629.228a1.053,1.053,0,0,1,.236.3c.157.152.079.3-.157.456l-1.258.685c-.314.152-.314.456,0,.685l2.122,1.141a1.58,1.58,0,0,0,1.179,0l1.258-.685a1.333,1.333,0,0,1,.786-.076c.157.076.393.076.55.152.236.076.472.228.472.38v.989c0,.228.393.456.865.456h2.908c.472,0,.865-.228.865-.456v-.989c0-.152.157-.3.472-.38a1.143,1.143,0,0,0,.472-.152.927.927,0,0,1,.786.076l1.258.685a1.58,1.58,0,0,0,1.179,0l2.044-1.141c.314-.152.314-.456,0-.685l-1.258-.685a.3.3,0,0,1-.157-.456C359.858,88.206,360.015,87.9,360.094,87.9ZM348.3,86.228c.472-1.445,3.223-2.282,5.581-1.749,1.808.38,2.987,1.521,2.594,2.586-.472,1.445-3.223,2.282-5.581,1.749C349.089,88.434,347.989,87.293,348.3,86.228Z" transform="translate(-341.7 -80.6)"/>
          </g>
        </g>
      </g>
    </g>
  </g>
</svg>
