<svg xmlns="http://www.w3.org/2000/svg" xmlns:xlink="http://www.w3.org/1999/xlink" viewBox="0 0 400.146 149.978">
  <defs>
    <style>
      .cls-1, .cls-2 {
        fill: #707070;
      }

      .cls-1 {
        font-size: 49px;
        font-family: Lato-Black, Lato;
        font-weight: 800;
      }

      .cls-2 {
        font-size: 20px;
        font-family: Lato-Regular, Lato;
      }

      .cls-3 {
        fill: url(#linear-gradient);
      }

      .cls-4 {
        fill: #f9f7f9;
      }

      .cls-5 {
        fill: #fff;
      }

      .cls-6 {
        fill: url(#linear-gradient-2);
      }

      .cls-7 {
        fill: url(#linear-gradient-3);
      }

      .cls-8 {
        fill: url(#linear-gradient-4);
      }

      .cls-9 {
        fill: url(#linear-gradient-5);
      }

      .cls-10 {
        fill: #99a7d8;
      }

      .cls-11, .cls-24 {
        fill: #f6f8fb;
      }

      .cls-12 {
        fill: #edf0f8;
      }

      .cls-13 {
        fill: url(#linear-gradient-6);
      }

      .cls-14 {
        fill: url(#radial-gradient);
      }

      .cls-15 {
        fill: url(#radial-gradient-2);
      }

      .cls-16 {
        fill: url(#radial-gradient-3);
      }

      .cls-17 {
        fill: #f06557;
      }

      .cls-18 {
        fill: url(#linear-gradient-7);
      }

      .cls-19 {
        fill: #ef665a;
      }

      .cls-20 {
        fill: #fec55e;
      }

      .cls-21 {
        fill: #f8958b;
      }

      .cls-22 {
        fill: #e5f1f4;
      }

      .cls-23 {
        fill: #ccebe9;
      }

      .cls-24 {
        opacity: 0.28;
      }

      .cls-25 {
        fill: url(#linear-gradient-8);
      }

      .cls-26 {
        fill: url(#linear-gradient-9);
      }

      .cls-27 {
        fill: #fafbfd;
      }

      .cls-28 {
        fill: url(#linear-gradient-10);
      }

      .cls-29 {
        fill: #e5e9f4;
      }

      .cls-30 {
        fill: url(#linear-gradient-11);
      }

      .cls-31 {
        fill: url(#linear-gradient-12);
      }

      .cls-32 {
        fill: url(#linear-gradient-13);
      }

      .cls-33 {
        fill: url(#linear-gradient-14);
      }

      .cls-34 {
        fill: url(#linear-gradient-15);
      }

      .cls-35 {
        fill: url(#linear-gradient-16);
      }

      .cls-36 {
        fill: url(#linear-gradient-17);
      }

      .cls-37 {
        fill: #48486a;
      }

      .cls-38, .cls-51 {
        fill: #ef9ea3;
      }

      .cls-39 {
        fill: url(#linear-gradient-18);
      }

      .cls-40 {
        fill: url(#linear-gradient-19);
      }

      .cls-41, .cls-49 {
        fill: #231f20;
      }

      .cls-41, .cls-48 {
        opacity: 0.3;
      }

      .cls-42 {
        fill: #f2b1b5;
      }

      .cls-43 {
        fill: #5c629e;
      }

      .cls-44, .cls-51 {
        opacity: 0.2;
      }

      .cls-45 {
        fill: #363650;
      }

      .cls-46 {
        fill: #ffbe06;
      }

      .cls-47 {
        fill: #ffba06;
      }

      .cls-50 {
        fill: #f5c5c8;
      }

      .cls-52 {
        opacity: 0.9;
      }

      .cls-53 {
        fill: url(#radial-gradient-4);
      }

      .cls-54 {
        fill: #ffc107;
      }

      .cls-55 {
        fill: #ffcd39;
      }

      .cls-56 {
        fill: url(#radial-gradient-5);
      }

      .cls-57 {
        fill: #dce1f1;
      }
    </style>
    <linearGradient id="linear-gradient" x1="0.5" x2="0.5" y2="1" gradientUnits="objectBoundingBox">
      <stop offset="0" stop-color="#f06557"/>
      <stop offset="1" stop-color="#78332c"/>
    </linearGradient>
    <linearGradient id="linear-gradient-2" x1="0.001" y1="0.5" x2="1" y2="0.5" gradientUnits="objectBoundingBox">
      <stop offset="0.289" stop-color="#edf0f8"/>
      <stop offset="1" stop-color="#d6dcef"/>
    </linearGradient>
    <linearGradient id="linear-gradient-3" x1="0.001" y1="0.501" x2="1.003" y2="0.501" gradientUnits="objectBoundingBox">
      <stop offset="0" stop-color="#99a7d8"/>
      <stop offset="1" stop-color="#d3daed"/>
    </linearGradient>
    <linearGradient id="linear-gradient-4" x1="0.001" y1="0.5" x2="1" y2="0.5" xlink:href="#linear-gradient-3"/>
    <linearGradient id="linear-gradient-5" x1="-0.002" y1="0.499" x2="1.001" y2="0.499" xlink:href="#linear-gradient-3"/>
    <linearGradient id="linear-gradient-6" x1="-0.001" y1="0.5" x2="0.999" y2="0.5" gradientUnits="objectBoundingBox">
      <stop offset="0.15" stop-color="#ff9800"/>
      <stop offset="1" stop-color="#ffc107"/>
    </linearGradient>
    <radialGradient id="radial-gradient" cx="-629.187" cy="-2089.468" r="15.674" gradientTransform="matrix(-0.477, 0, 0, 0.212, -985.571, -1839.531)" gradientUnits="userSpaceOnUse">
      <stop offset="0.198" stop-color="#48486a"/>
      <stop offset="0.221" stop-color="#505070"/>
      <stop offset="0.427" stop-color="#8d8da3"/>
      <stop offset="0.615" stop-color="#bebeca"/>
      <stop offset="0.779" stop-color="#e2e2e7"/>
      <stop offset="0.913" stop-color="#f7f7f9"/>
      <stop offset="1" stop-color="#fff"/>
    </radialGradient>
    <radialGradient id="radial-gradient-2" cx="-845.012" cy="-2021.421" r="16.522" gradientTransform="matrix(-0.483, 0, 0, 0.215, -1328.571, -1774.938)" xlink:href="#radial-gradient"/>
    <radialGradient id="radial-gradient-3" cx="-1067.74" cy="-1957.534" r="15.674" gradientTransform="matrix(-0.477, 0, 0, 0.212, -1672.062, -1723.395)" xlink:href="#radial-gradient"/>
    <linearGradient id="linear-gradient-7" x1="-9.825" y1="0.5" x2="-8.826" y2="0.5" gradientUnits="objectBoundingBox">
      <stop offset="0" stop-color="#f06557"/>
      <stop offset="0.15" stop-color="#ff9800"/>
      <stop offset="1" stop-color="#ffc107"/>
    </linearGradient>
    <linearGradient id="linear-gradient-8" x1="0" y1="0.498" x2="1.004" y2="0.498" xlink:href="#linear-gradient-6"/>
    <linearGradient id="linear-gradient-9" y1="0.5" x2="1" y2="0.5" gradientUnits="objectBoundingBox">
      <stop offset="0" stop-color="#d3daed"/>
      <stop offset="1" stop-color="#99a7d8"/>
    </linearGradient>
    <linearGradient id="linear-gradient-10" x1="0.009" y1="0.273" x2="1.055" y2="0.761" xlink:href="#linear-gradient-6"/>
    <linearGradient id="linear-gradient-11" x1="0" y1="0.501" x2="1" y2="0.501" xlink:href="#linear-gradient-9"/>
    <linearGradient id="linear-gradient-12" x1="0" y1="0.5" x2="0.999" y2="0.5" xlink:href="#linear-gradient-6"/>
    <linearGradient id="linear-gradient-13" x1="0" y1="0.499" x2="0.999" y2="0.499" xlink:href="#linear-gradient-6"/>
    <linearGradient id="linear-gradient-14" x1="0" y1="0.5" x2="0.999" y2="0.5" xlink:href="#linear-gradient-6"/>
    <linearGradient id="linear-gradient-15" x1="0" y1="0.5" x2="1" y2="0.5" xlink:href="#linear-gradient-6"/>
    <linearGradient id="linear-gradient-16" x1="0" y1="0.5" x2="1" y2="0.5" xlink:href="#linear-gradient-9"/>
    <linearGradient id="linear-gradient-17" x1="0" y1="0.499" x2="1" y2="0.499" xlink:href="#linear-gradient-6"/>
    <linearGradient id="linear-gradient-18" x1="0.017" y1="0.5" x2="1.014" y2="0.5" xlink:href="#linear-gradient-6"/>
    <linearGradient id="linear-gradient-19" x1="0.003" y1="0.499" x2="0.999" y2="0.499" xlink:href="#linear-gradient-6"/>
    <radialGradient id="radial-gradient-4" cx="9.872" cy="30.777" r="17.765" gradientTransform="translate(4.322 22.118) scale(0.562 0.281)" gradientUnits="userSpaceOnUse">
      <stop offset="0.091" stop-color="#48486a"/>
      <stop offset="0.118" stop-color="#505070"/>
      <stop offset="0.351" stop-color="#8d8da3"/>
      <stop offset="0.564" stop-color="#bebeca"/>
      <stop offset="0.75" stop-color="#e2e2e7"/>
      <stop offset="0.901" stop-color="#f7f7f9"/>
      <stop offset="1" stop-color="#fff"/>
    </radialGradient>
    <radialGradient id="radial-gradient-5" cx="8.35" cy="26.738" r="15.061" gradientTransform="translate(3.695 19.278) scale(0.557 0.279)" gradientUnits="userSpaceOnUse">
      <stop offset="0" stop-color="#5c629e"/>
      <stop offset="0.072" stop-color="#7a7fb0"/>
      <stop offset="0.184" stop-color="#a3a6c8"/>
      <stop offset="0.299" stop-color="#c4c6dc"/>
      <stop offset="0.417" stop-color="#dedfeb"/>
      <stop offset="0.538" stop-color="#f0f1f6"/>
      <stop offset="0.663" stop-color="#fbfcfd"/>
      <stop offset="0.802" stop-color="#fff"/>
    </radialGradient>
  </defs>
  <g id="Group_2028" data-name="Group 2028" transform="translate(-3312.014 -10378.531)">
    <g id="Group_1713" data-name="Group 1713" transform="translate(3312.014 10413.858)">
      <text id="UNIFY" class="cls-1" transform="translate(75 49)"><tspan x="-74.382" y="0">UNIFY</tspan></text>
      <text id="JOB_Management" data-name="JOB Management" class="cls-2" transform="translate(79.99 79.109)"><tspan x="-78.81" y="0">JOB Management</tspan></text>
    </g>
    <g id="Group_1549" data-name="Group 1549" transform="translate(3512.979 10378.531)">
      <g id="Group_1533" data-name="Group 1533" transform="translate(0 0)">
        <g id="Layer_7_copy" transform="translate(99.322)">
          <g id="XMLID_843_">
            <path id="XMLID_892_" class="cls-3" d="M173.462,30.672a5.117,5.117,0,0,1,2.857-4.066L231.277.307c1.552-.721,2.857-.154,2.857,1.338v75.81a5.116,5.116,0,0,1-2.857,4.066l-55.02,26.351c-1.552.721-2.857.154-2.857-1.338V30.672Z" transform="translate(-173.4 0.004)"/>
            <path id="XMLID_891_" class="cls-4" d="M179.557,28.705a5.116,5.116,0,0,0-2.857,4.066v75.81c0,.206.062.412.062.566a1.86,1.86,0,0,0,.683-.257l54.958-26.3a5.117,5.117,0,0,0,2.857-4.066V2.766c0-.206-.062-.412-.062-.566a1.86,1.86,0,0,0-.683.257Z" transform="translate(-174.651 -1.065)"/>
            <path id="XMLID_890_" class="cls-5" d="M185.7,41.011,234.262,17.8V85.221L185.7,108.433Z" transform="translate(-178.062 -8.637)"/>
            <path id="XMLID_887_" class="cls-6" d="M229.562,4.284l-4.1,1.956v-3.6c0-.515-.435-.772-.994-.463l-6.707,3.191c-.248-2.728-2.732-3.757-5.775-2.316a10.623,10.623,0,0,0-5.775,7.874l-5.9,2.831a1.8,1.8,0,0,0-.994,1.441v3.6l-3.291,1.6a2.5,2.5,0,0,0-1.428,2.059V31.51l.807.463L230.99,14.886V4.953C230.99,4.233,230.369,3.924,229.562,4.284ZM212.8,8.35c-.745.36-1.428.051-1.428-.669A2.491,2.491,0,0,1,212.8,5.674c.745-.36,1.428-.051,1.428.669A2.491,2.491,0,0,1,212.8,8.35Z" transform="translate(-181.435 -0.988)"/>
            <g id="Group_1489" data-name="Group 1489" transform="translate(13.165 1.104)">
              <path id="Path_2581" data-name="Path 2581" class="cls-7" d="M244.3,9.757l5.527-2.676V6.927c0-.721-.621-1.029-1.428-.669l-4.1,2.007Z" transform="translate(-213.437 -4.066)"/>
              <path id="Path_2582" data-name="Path 2582" class="cls-8" d="M196.152,23.493a2.642,2.642,0,0,1,1.428-2.059l3.291-1.6v-3.6a1.8,1.8,0,0,1,.994-1.441l5.9-2.831A10.713,10.713,0,0,1,213.54,4.09a5.334,5.334,0,0,1,3.291-.566c-1.056-.978-2.794-1.132-4.844-.206a10.623,10.623,0,0,0-5.775,7.874l-5.9,2.831a1.8,1.8,0,0,0-.994,1.441v3.6l-3.291,1.6a2.5,2.5,0,0,0-1.428,2.059v9.058l.807.463.745-.36Z" transform="translate(-194.6 -2.412)"/>
              <path id="Path_2583" data-name="Path 2583" class="cls-9" d="M231.8,6.906l7.762-3.6V2.737c0-.515-.435-.772-.994-.463l-6.707,3.191A6.044,6.044,0,0,1,231.8,6.906Z" transform="translate(-208.699 -2.141)"/>
            </g>
            <g id="XMLID_885_" transform="translate(30.056 4.526)">
              <path id="XMLID_886_" class="cls-10" d="M223.1,11.625a2.628,2.628,0,0,0,1.428-2.007.775.775,0,0,0-.931-.823,1.057,1.057,0,0,1,.124.463,2.491,2.491,0,0,1-1.428,2.007,1.843,1.843,0,0,1-.5.154A1,1,0,0,0,223.1,11.625Z" transform="translate(-221.8 -8.789)"/>
            </g>
            <path id="XMLID_884_" class="cls-11" d="M192.9,135.872,234.879,115.8v1.853L192.9,137.725Z" transform="translate(-180.791 -56.199)"/>
            <path id="XMLID_883_" class="cls-11" d="M192.9,143.772,234.879,123.7v1.853L192.9,145.625Z" transform="translate(-180.791 -60.034)"/>
            <path id="XMLID_882_" class="cls-11" d="M192.9,151.672,234.879,131.6v1.853L192.9,153.525Z" transform="translate(-180.791 -63.868)"/>
            <path id="XMLID_881_" class="cls-11" d="M192.9,171.171l16.208-7.771v1.9l-16.208,7.72Z" transform="translate(-180.791 -79.301)"/>
            <path id="XMLID_880_" class="cls-12" d="M192.9,128.665,216,117.6v3.242l-23.1,11.065Z" transform="translate(-180.791 -57.073)"/>
            <path id="XMLID_852_" class="cls-12" d="M207.6,52.765,230.7,41.7v3.242L207.6,56.008Z" transform="translate(-186.362 -20.236)"/>
            <path id="XMLID_844_" class="cls-13" d="M192.9,85.623l4.036-1.9v8.595l-4.036,1.9Zm6.086,5.61,4.036-1.9V75.638l-4.036,1.9Zm6.086-2.934,4.036-1.9V69.308l-4.036,1.9Zm6.086-2.985,4.036-1.9v-10.6l-4.036,1.9Zm6.086-2.934,4.036-1.9v-6.9l-4.036,1.9Zm6.086-2.985,4.036-1.9V64.161l-4.036,1.9Zm6.148-2.934,4.036-1.9V58.5l-4.036,1.9Z" transform="translate(-180.791 -28.39)"/>
          </g>
        </g>
        <g id="Layer_6_copy" transform="translate(1.801 101.211)">
          <g id="Group_1500" data-name="Group 1500">
            <path id="XMLID_822_" class="cls-14" d="M47.836,269.679c-2.981-1.441-2.981-3.757,0-5.2a14.2,14.2,0,0,1,10.867,0c2.981,1.441,2.981,3.757,0,5.2A14.686,14.686,0,0,1,47.836,269.679Z" transform="translate(-45.6 -229.046)"/>
            <path id="XMLID_821_" class="cls-15" d="M62.75,261.766c-3.167-1.544-3.167-4.014,0-5.558a14.98,14.98,0,0,1,11.551,0c3.167,1.544,3.167,4.014,0,5.558A14.98,14.98,0,0,1,62.75,261.766Z" transform="translate(-51.2 -224.993)"/>
            <path id="XMLID_820_" class="cls-16" d="M79.236,253.079c-2.981-1.441-2.981-3.757,0-5.2a14.2,14.2,0,0,1,10.867,0c2.981,1.441,2.981,3.757,0,5.2A14.686,14.686,0,0,1,79.236,253.079Z" transform="translate(-57.501 -220.989)"/>
            <g id="Group_1499" data-name="Group 1499" transform="translate(2.717)">
              <path id="XMLID_819_" class="cls-17" d="M67.019,261.69c-1.925-.926-1.925-2.419,0-3.345a9.207,9.207,0,0,1,7.017,0c1.925.926,1.925,2.419,0,3.345A9.206,9.206,0,0,1,67.019,261.69Z" transform="translate(-55.887 -226.255)"/>
              <path id="Path_2744" data-name="Path 2744" class="cls-18" d="M81.2,201.3h9.874v26.608h0c0,.618-.5,1.235-1.428,1.647a9.206,9.206,0,0,1-7.017,0c-1.242-.618-1.677-1.441-1.3-2.213Z" transform="translate(-61.807 -198.907)"/>
              <path id="XMLID_818_" class="cls-19" d="M65.786,242.675h9.688V222.5H65.6Z" transform="translate(-55.897 -209.196)"/>
              <path id="XMLID_817_" class="cls-20" d="M82.619,200.69c-1.925-.926-1.925-2.419,0-3.345a9.206,9.206,0,0,1,7.017,0c1.925.926,1.925,2.419,0,3.345A9.206,9.206,0,0,1,82.619,200.69Z" transform="translate(-61.8 -196.65)"/>
              <path id="XMLID_816_" class="cls-21" d="M67.019,221.99c-1.925-.926-1.925-2.419,0-3.345a9.206,9.206,0,0,1,7.017,0c1.925.926,1.925,2.419,0,3.345A9.206,9.206,0,0,1,67.019,221.99Z" transform="translate(-55.887 -206.988)"/>
              <path id="XMLID_815_" class="cls-22" d="M51.619,269.99c-1.925-.926-1.925-2.419,0-3.345a8.9,8.9,0,0,1,6.893,0c1.925.926,1.925,2.419,0,3.345A9.379,9.379,0,0,1,51.619,269.99Z" transform="translate(-50.051 -230.284)"/>
              <path id="XMLID_814_" class="cls-22" d="M50.124,257.973h9.75V244.9H50Z" transform="translate(-49.984 -220.067)"/>
              <path id="XMLID_813_" class="cls-22" d="M51.419,244.29c-1.925-.926-1.925-2.419,0-3.345a9.206,9.206,0,0,1,7.017,0c1.925.926,1.925,2.419,0,3.345A9.206,9.206,0,0,1,51.419,244.29Z" transform="translate(-49.975 -217.811)"/>
            </g>
          </g>
        </g>
        <g id="Layer_5_copy" transform="translate(48.053 61.873)">
          <g id="Group_1509" data-name="Group 1509" transform="translate(0)">
            <path id="XMLID_722_" class="cls-17" d="M138.449,121.34l.248.36c.373.206.5,1.493.5,1.8v44.57a7.424,7.424,0,0,1-3.974,5.97l-20.12,9.624a4.729,4.729,0,0,1-1.863.309l-2.608-.772a1.83,1.83,0,0,1-1.428-1.7V135.442a7.188,7.188,0,0,1,4.036-5.816l18.319-8.749A7.283,7.283,0,0,1,138.449,121.34Z" transform="translate(-109.2 -120.216)"/>
            <path id="XMLID_721_" class="cls-4" d="M136.722,121.963c2.236-1.081,4.036-.206,4.036,1.956V168.9a7.188,7.188,0,0,1-4.036,5.816l-19.686,9.418c-2.236,1.081-4.036.206-4.036-1.956V137.2a7.188,7.188,0,0,1,4.036-5.816Z" transform="translate(-110.64 -120.839)"/>
            <path id="XMLID_720_" class="cls-23" d="M139.887,136.7v36.335L116.6,184.2V147.817Z" transform="translate(-112.005 -128.216)"/>
            <g id="XMLID_719_" transform="translate(12.73 7.969)">
              <path id="Path_2825" data-name="Path 2825" class="cls-10" d="M130.135,139.406a.434.434,0,0,0,.248-.051l6.148-2.934a.339.339,0,0,0,.186-.515.493.493,0,0,0-.621-.154l-6.148,2.934a.339.339,0,0,0-.186.515A.427.427,0,0,0,130.135,139.406Z" transform="translate(-129.7 -135.7)"/>
            </g>
            <path id="XMLID_718_" class="cls-12" d="M133.822,220.824c1.366-.669,2.422-.154,2.422,1.184a4.582,4.582,0,0,1-2.422,3.551c-1.366.669-2.422.1-2.422-1.184A4.5,4.5,0,0,1,133.822,220.824Z" transform="translate(-117.614 -168.903)"/>
          </g>
          <g id="Group_1510" data-name="Group 1510" transform="translate(8.135 24.233)">
            <path id="XMLID_715_" class="cls-24" d="M137.825,168.9a4.453,4.453,0,0,0-1.428-1.029,7.3,7.3,0,0,0-6.334.36s-.062,0-.062.051a13.047,13.047,0,0,0-2.794,1.8c-2.919,2.419-4.906,6.022-4.906,9.213a5.452,5.452,0,0,0,1.366,3.757,4.957,4.957,0,0,0,1.49,1.081,6.279,6.279,0,0,0,2.546.566,8.971,8.971,0,0,0,3.788-.926s.062,0,.062-.051a11.309,11.309,0,0,0,2.732-1.8c2.919-2.419,4.906-6.022,4.906-9.213A5.8,5.8,0,0,0,137.825,168.9Zm-5.03,10.551a9.274,9.274,0,0,1-1.615,1.338,6.86,6.86,0,0,1-1.18.669,4.281,4.281,0,0,1-3.353.412,2.5,2.5,0,0,1-.931-.926,3.554,3.554,0,0,1-.373-1.7c0-2.213,1.366-4.838,3.291-6.794a9.275,9.275,0,0,1,1.615-1.338,6.863,6.863,0,0,1,1.18-.669,5.207,5.207,0,0,1,2.3-.618,2.389,2.389,0,0,1,1.056.206,2.5,2.5,0,0,1,.931.926,3.555,3.555,0,0,1,.373,1.7C136.086,174.866,134.72,177.491,132.795,179.446Z" transform="translate(-122.3 -167.3)"/>
            <path id="XMLID_712_" class="cls-5" d="M144.925,172.5a4.452,4.452,0,0,0-1.428-1.029,7.3,7.3,0,0,0-6.334.36s-.062,0-.062.051a13.045,13.045,0,0,0-2.794,1.8c-2.919,2.419-4.906,6.022-4.906,9.213a5.452,5.452,0,0,0,1.366,3.757,4.958,4.958,0,0,0,1.49,1.081,6.278,6.278,0,0,0,2.546.566,8.971,8.971,0,0,0,3.788-.926s.062,0,.062-.051a11.308,11.308,0,0,0,2.732-1.8c2.919-2.419,4.906-6.022,4.906-9.213A5.14,5.14,0,0,0,144.925,172.5Zm-4.968,10.551a9.275,9.275,0,0,1-1.615,1.338,6.862,6.862,0,0,1-1.18.669,4.281,4.281,0,0,1-3.353.412,2.5,2.5,0,0,1-.932-.926,3.555,3.555,0,0,1-.373-1.7c0-2.213,1.366-4.838,3.291-6.794a9.275,9.275,0,0,1,1.615-1.338,6.862,6.862,0,0,1,1.18-.669,5.207,5.207,0,0,1,2.3-.618,2.389,2.389,0,0,1,1.056.206,2.5,2.5,0,0,1,.932.926,3.555,3.555,0,0,1,.373,1.7C143.248,178.466,141.882,181.091,139.957,183.046Z" transform="translate(-124.991 -169.048)"/>
            <path id="XMLID_711_" class="cls-25" d="M145.528,175.04a5.207,5.207,0,0,1,2.3-.618,2.389,2.389,0,0,1,1.056.206,2.5,2.5,0,0,1,.931.926l2.049-2.059a4.453,4.453,0,0,0-1.428-1.029,7.3,7.3,0,0,0-6.334.36l.248,2.882A6.862,6.862,0,0,1,145.528,175.04Z" transform="translate(-130.562 -169.533)"/>
            <path id="XMLID_710_" class="cls-4" d="M142.605,176.582l-.248-2.882s-.062,0-.062.051a13.046,13.046,0,0,0-2.794,1.8l1.428,2.419A9.982,9.982,0,0,1,142.605,176.582Z" transform="translate(-128.819 -170.406)"/>
            <path id="XMLID_709_" class="cls-22" d="M134.743,186.413c0-2.213,1.366-4.838,3.291-6.794l-1.428-2.419c-2.919,2.419-4.906,6.022-4.906,9.213a5.452,5.452,0,0,0,1.366,3.757l2.049-2.059A3.554,3.554,0,0,1,134.743,186.413Z" transform="translate(-125.863 -172.105)"/>
            <path id="XMLID_708_" class="cls-19" d="M148.1,175l-2.049,2.059a3.555,3.555,0,0,1,.373,1.7c0,2.213-1.366,4.838-3.291,6.794a9.272,9.272,0,0,1-1.615,1.338,6.86,6.86,0,0,1-1.18.669,4.281,4.281,0,0,1-3.353.412,2.5,2.5,0,0,1-.932-.926L134,189.1a4.957,4.957,0,0,0,1.49,1.081,6.278,6.278,0,0,0,2.546.566,8.971,8.971,0,0,0,3.788-.926s.062,0,.062-.051a11.309,11.309,0,0,0,2.732-1.8c2.919-2.419,4.906-6.022,4.906-9.213A6.032,6.032,0,0,0,148.1,175Z" transform="translate(-126.734 -171.037)"/>
          </g>
        </g>
        <g id="Layer_11_copy" transform="translate(0 29.122)">
          <g id="Group_1513" data-name="Group 1513" transform="translate(39.868)">
            <path id="XMLID_681_" class="cls-26" d="M143.725,56.9c0-.257-.248-.412-.559-.257L107.459,73.729a1.024,1.024,0,0,0-.559.772V94.985c0,.309.248.412.559.257l35.707-17.087a1.024,1.024,0,0,0,.559-.772Z" transform="translate(-106.9 -56.58)"/>
            <path id="XMLID_680_" class="cls-27" d="M108.959,74.933a1.024,1.024,0,0,0-.559.772V95.777l35.335-16.933a.948.948,0,0,0,.559-.772V58Z" transform="translate(-107.468 -57.269)"/>
            <path id="XMLID_679_" class="cls-28" d="M114.373,90.744a.773.773,0,0,0-.373.515v13.793l10.309-5.044a.773.773,0,0,0,.373-.515V85.7Z" transform="translate(-109.591 -70.713)"/>
            <path id="XMLID_678_" class="cls-29" d="M132.8,76.573,152.8,67v1.39l-20,9.521Z" transform="translate(-116.716 -61.637)"/>
            <path id="XMLID_677_" class="cls-29" d="M132.8,82.921l20-9.521v1.338l-20,9.573Z" transform="translate(-116.716 -64.743)"/>
            <path id="XMLID_676_" class="cls-29" d="M132.8,89.273l20-9.573v1.338l-20,9.573Z" transform="translate(-116.716 -67.801)"/>
            <path id="XMLID_675_" class="cls-29" d="M132.8,99.553,144.04,94.2v1.39l-11.24,5.3Z" transform="translate(-116.716 -74.838)"/>
          </g>
          <g id="Group_1515" data-name="Group 1515" transform="translate(0 43.84)">
            <path id="XMLID_674_" class="cls-30" d="M79.525,142.09c0-.309-.248-.412-.559-.257L43.259,158.92a1.024,1.024,0,0,0-.559.772v20.484c0,.309.248.412.559.257l35.707-17.087a.948.948,0,0,0,.559-.772Z" transform="translate(-42.7 -141.762)"/>
            <path id="XMLID_673_" class="cls-27" d="M44.759,160.233A1.024,1.024,0,0,0,44.2,161v20.072l35.335-16.933a.948.948,0,0,0,.559-.772V143.3Z" transform="translate(-43.269 -142.509)"/>
            <g id="Group_1514" data-name="Group 1514" transform="translate(2.36 6.298)">
              <path id="XMLID_672_" class="cls-31" d="M46.5,170.212,80.22,154v1.39L46.5,171.6Z" transform="translate(-46.5 -154)"/>
              <path id="XMLID_671_" class="cls-32" d="M46.5,176.561,80.22,160.4v1.338L46.5,177.95Z" transform="translate(-46.5 -157.106)"/>
              <path id="XMLID_670_" class="cls-33" d="M46.5,182.912,80.22,166.7v1.338L46.5,184.25Z" transform="translate(-46.5 -160.164)"/>
              <path id="XMLID_669_" class="cls-34" d="M46.5,193.192,71.464,181.2v1.39L46.5,194.581Z" transform="translate(-46.5 -167.201)"/>
            </g>
          </g>
          <g id="Group_1516" data-name="Group 1516" transform="translate(0 19.249)">
            <path id="XMLID_668_" class="cls-35" d="M79.525,94.3c0-.257-.248-.412-.559-.257L43.259,111.129a1.024,1.024,0,0,0-.559.772v20.484c0,.309.248.412.559.257l35.707-17.087a.948.948,0,0,0,.559-.772Z" transform="translate(-42.7 -93.98)"/>
            <path id="XMLID_667_" class="cls-27" d="M44.759,112.333a.948.948,0,0,0-.559.772v20.072l35.335-16.933a.948.948,0,0,0,.559-.772V95.4Z" transform="translate(-43.269 -94.669)"/>
            <path id="Path_2867" data-name="Path 2867" class="cls-36" d="M46.5,144v-4.272l3.974-4.683,2.049,1.287,4.223-6.948L58.3,131.6h2.236l3.6-4.375,2.111-1.081h4.347l2.732-3.345,3.167,1.184,3.353-.154V128.2Z" transform="translate(-44.14 -107.967)"/>
          </g>
        </g>
      </g>
      <g id="XMLID_407_" transform="translate(132.719 68.644)">
        <path id="XMLID_477_" class="cls-37" d="M247.291,231.693l.6-.174a3.33,3.33,0,0,1,2.758.464l.6-.406.6,1.334,2.938-.232-.66,2.553a.532.532,0,0,1-.36.348l-1.2.348a2.929,2.929,0,0,1-2.878-.7l-2.7-2.495A.636.636,0,0,1,247.291,231.693Z" transform="translate(-239.616 -184.687)"/>
        <path id="XMLID_476_" class="cls-5" d="M247.36,231.693l.6-.174a3.33,3.33,0,0,1,2.758.464l.6-.406.6,1.334,2.938-.232-.36,1.334a1.671,1.671,0,0,1-1.2,1.218l-.54.174a2.929,2.929,0,0,1-2.878-.7l-2.7-2.495c-.12-.116-.18-.174-.18-.29C247.12,231.809,247.24,231.693,247.36,231.693Z" transform="translate(-239.686 -184.687)"/>
        <path id="XMLID_475_" class="cls-37" d="M254.25,232.392c-.6-.58-.48-1.218.36-1.45a2.938,2.938,0,0,1,2.578.638c.6.58.42,1.218-.36,1.45A3.029,3.029,0,0,1,254.25,232.392Z" transform="translate(-242.439 -184.459)"/>
        <g id="XMLID_473_" transform="translate(12.471 42.539)">
          <path id="XMLID_474_" class="cls-38" d="M256.559,229.711a.932.932,0,0,0,.959-.928v-3.655a.96.96,0,0,0-1.919,0v3.655A.932.932,0,0,0,256.559,229.711Z" transform="translate(-255.6 -224.2)"/>
        </g>
        <g id="XMLID_471_" transform="translate(11.451 21.303)">
          <path id="XMLID_472_" class="cls-39" d="M255.879,213.181h.06c.839-.058,1.5.348,1.439-.464l-.42-9.4.42-14.213a1.51,1.51,0,0,0-1.5-1.508c-.839-.058-1.978.638-1.978,1.45v14.387l.42,9.456C254.44,213.645,255.1,213.181,255.879,213.181Z" transform="translate(-253.9 -187.594)"/>
        </g>
        <path id="XMLID_470_" class="cls-37" d="M240.59,237.344l.54-.29a3.279,3.279,0,0,1,2.758-.174l.48-.58.9,1.16,2.818-.928v2.611a.486.486,0,0,1-.24.406l-1.079.638a2.951,2.951,0,0,1-2.938,0l-3.238-1.8A.59.59,0,0,1,240.59,237.344Z" transform="translate(-236.993 -186.742)"/>
        <path id="XMLID_469_" class="cls-5" d="M240.64,237.344l.54-.29a3.278,3.278,0,0,1,2.758-.174l.48-.58.9,1.16,2.818-.928v1.334a1.775,1.775,0,0,1-.839,1.45l-.48.29a2.951,2.951,0,0,1-2.938,0l-3.238-1.8a.583.583,0,0,1-.24-.29C240.46,237.518,240.52,237.4,240.64,237.344Z" transform="translate(-237.043 -186.742)"/>
        <path id="XMLID_468_" class="cls-37" d="M247.54,236.788a.8.8,0,0,1,0-1.508,3.139,3.139,0,0,1,2.7,0,.8.8,0,0,1,0,1.508A3.139,3.139,0,0,1,247.54,236.788Z" transform="translate(-239.686 -186.186)"/>
        <g id="XMLID_466_" transform="translate(8.274 44.917)">
          <path id="XMLID_467_" class="cls-38" d="M249.559,233.811a.932.932,0,0,0,.959-.928v-3.655a.96.96,0,0,0-1.919,0v3.655A.932.932,0,0,0,249.559,233.811Z" transform="translate(-248.6 -228.3)"/>
        </g>
        <g id="XMLID_464_" transform="translate(11.944 10.296)">
          <path id="XMLID_465_" class="cls-37" d="M256.208,183.576a1.089,1.089,0,0,0,.959-.522l2.038-3.365a7.927,7.927,0,0,0-2.158-10.442l-.54-.406a1.107,1.107,0,0,0-1.559.232,1.028,1.028,0,0,0,.24,1.508l.54.406a5.747,5.747,0,0,1,1.559,7.658l-2.038,3.365a1.036,1.036,0,0,0,.42,1.45A1.8,1.8,0,0,0,256.208,183.576Z" transform="translate(-254.722 -168.622)"/>
        </g>
        <g id="XMLID_462_" transform="translate(6.835 23.654)">
          <path id="XMLID_463_" class="cls-40" d="M248.6,217.667h.12c.839-.058,1.439,0,1.379-.812l-.839-10.79,3.357-13.981c.06-.812-3.118-.232-3.957-.29a1.52,1.52,0,0,0-1.619,1.392l-.839,12.937.839,11.022C247.1,217.841,247.819,217.667,248.6,217.667Z" transform="translate(-246.2 -191.647)"/>
        </g>
        <path id="XMLID_460_" class="cls-41" d="M257.422,189.049a1.088,1.088,0,0,1-.959.522,1.8,1.8,0,0,1-.54-.116,1.036,1.036,0,0,1-.42-1.45l2.038-3.365a5.185,5.185,0,0,0,.659-1.74,22.859,22.859,0,0,0,.18,2.9l.18,1.392Z" transform="translate(-243.033 -164.321)"/>
        <path id="XMLID_459_" class="cls-37" d="M254.814,160l-4.8,2.669a6.591,6.591,0,0,0-3.417,5.743v13.227c1.919,1.334,7.195-.522,8.214-2.611l-.3-2.9a16.953,16.953,0,0,1-.18-3.481Z" transform="translate(-239.525 -154.706)"/>
        <path id="XMLID_458_" class="cls-42" d="M251.816,160.423h1.619V154.1H247.8v2.379A3.928,3.928,0,0,0,251.816,160.423Z" transform="translate(-240.005 -152.228)"/>
        <path id="XMLID_418_" class="cls-42" d="M252.939,163.483h.66a.807.807,0,0,0,.839-.812V158.9H252.1v3.771A.807.807,0,0,0,252.939,163.483Z" transform="translate(-241.728 -154.244)"/>
        <path id="XMLID_417_" class="cls-41" d="M246.46,175.843a.93.93,0,0,0,.6-.754l.42-3.365a1.134,1.134,0,0,1,1.259-.928c.6.058.66.7.54,1.276l-.06,3.249a3.222,3.222,0,0,1-2.278,2.611,1.8,1.8,0,0,1-.54.116v-2.2Z" transform="translate(-239.445 -159.236)"/>
        <path id="XMLID_413_" class="cls-37" d="M239.55,176l-3.238-3.539a1.016,1.016,0,0,1,.12-1.508,1.1,1.1,0,0,1,1.559.116l3.238,3.539a.977.977,0,0,0,1.079.29,1.026,1.026,0,0,0,.719-.812l.42-3.365a1.134,1.134,0,0,1,1.259-.928,1.111,1.111,0,0,1,.959,1.218l-.42,3.365a3.222,3.222,0,0,1-2.278,2.611,2.723,2.723,0,0,1-.959.116A3.452,3.452,0,0,1,239.55,176Z" transform="translate(-235.293 -158.816)"/>
        <g id="XMLID_411_" transform="translate(0.763 11.834)">
          <path id="XMLID_412_" class="cls-42" d="M238.547,172.217l-.54-.58a1.153,1.153,0,0,0-1.559-.116,1.065,1.065,0,0,0-.12,1.508l.66.7Z" transform="translate(-236.072 -171.272)"/>
        </g>
        <path id="XMLID_410_" class="cls-42" d="M234.8,171.676a1.32,1.32,0,1,0,1.319-1.276A1.31,1.31,0,0,0,234.8,171.676Z" transform="translate(-234.8 -159.072)"/>
        <path id="XMLID_409_" class="cls-42" d="M234.97,168.275l1.8,1.856a.28.28,0,0,0,.3,0l.12-.116a.256.256,0,0,0,0-.29l-1.8-1.856a.28.28,0,0,0-.3,0l-.12.116A.252.252,0,0,0,234.97,168.275Z" transform="translate(-234.85 -157.991)"/>
        <g id="XMLID_408_" transform="translate(7.005)">
          <path id="Path_1584" data-name="Path 1584" class="cls-43" d="M246.853,151.643c.959-1.1,3.238-.812,4.5-.406,1.559.464,3.537,1.044,3.777,2.843a10.787,10.787,0,0,1,0,1.392,7.071,7.071,0,0,0,.719,3.133c.719,1.392,1.019,2.262.3,3.655-.42.87-.719,2.146-1.619,2.669-.959.522-2.938.87-3.777.232a5.66,5.66,0,0,1-1.739-4.525c.12-1.508.9-3.075.42-4.525a7.988,7.988,0,0,0-2.278-2.611C246.493,152.919,246.194,152.4,246.853,151.643Z" transform="translate(-246.484 -150.874)"/>
        </g>
        <g id="Group_1338" data-name="Group 1338" class="cls-44" transform="translate(7.005 0.005)">
          <path id="Path_1585" data-name="Path 1585" class="cls-20" d="M246.853,151.647a3.266,3.266,0,0,1,2.578-.754,2.471,2.471,0,0,0-1.859.754c-.659.754-.3,1.334.3,1.856a7.988,7.988,0,0,1,2.278,2.611c.48,1.45-.3,3.017-.42,4.525a5.788,5.788,0,0,0,1.739,4.525,2.189,2.189,0,0,0,1.139.348,2.761,2.761,0,0,1-1.859-.348,5.66,5.66,0,0,1-1.739-4.525c.12-1.508.9-3.075.42-4.525a7.988,7.988,0,0,0-2.278-2.611C246.493,152.923,246.194,152.4,246.853,151.647Z" transform="translate(-246.484 -150.882)"/>
        </g>
      </g>
      <g id="XMLID_12_" transform="translate(75.993 94.772)">
        <path id="XMLID_141_" class="cls-37" d="M144.064,296.461v1.914a1.328,1.328,0,0,1-.66,1.16l-.3.174a3.968,3.968,0,0,1-3.777.058l-3.537-1.856a.59.59,0,0,1,0-1.044h0a4.594,4.594,0,0,1,2.158-.87,6.093,6.093,0,0,0,1.019.116l1.619.232Z" transform="translate(-122.755 -248.958)"/>
        <path id="XMLID_140_" class="cls-45" d="M135.8,298.39l3.537,1.856a3.964,3.964,0,0,0,3.777-.058l.3-.174a1.328,1.328,0,0,0,.66-1.16v.464a1.328,1.328,0,0,1-.66,1.16l-.3.174a3.968,3.968,0,0,1-3.777.058l-3.537-1.856a.561.561,0,0,1-.24-.754A.3.3,0,0,0,135.8,298.39Z" transform="translate(-122.766 -249.843)"/>
        <g id="XMLID_137_" transform="translate(15.193 47.213)">
          <path id="XMLID_139_" class="cls-5" d="M140.02,297.46l-.42-.174.48-.986c.18,0,.3.058.48.058Z" transform="translate(-139.6 -296.3)"/>
          <path id="XMLID_138_" class="cls-5" d="M141.42,297.676,141,297.5l.54-1.1.48.058Z" transform="translate(-140.161 -296.342)"/>
        </g>
        <path id="XMLID_132_" class="cls-37" d="M134.564,303.161v1.914a1.328,1.328,0,0,1-.66,1.16l-.3.174a3.969,3.969,0,0,1-3.777.058l-3.537-1.856a.59.59,0,0,1,0-1.044h0a4.594,4.594,0,0,1,2.158-.87,6.1,6.1,0,0,0,1.019.116l1.619.232Z" transform="translate(-118.951 -251.771)"/>
        <path id="XMLID_131_" class="cls-45" d="M126.2,305.09l3.537,1.856a3.964,3.964,0,0,0,3.777-.058l.3-.174a1.328,1.328,0,0,0,.66-1.16v.464a1.328,1.328,0,0,1-.66,1.16l-.3.174a3.968,3.968,0,0,1-3.777.058l-3.537-1.856a.561.561,0,0,1-.24-.754A.583.583,0,0,0,126.2,305.09Z" transform="translate(-118.922 -252.656)"/>
        <g id="XMLID_127_" transform="translate(18.439 8.643)">
          <path id="XMLID_128_" class="cls-17" d="M146.684,244.541a1.287,1.287,0,0,0,.779-.29l2.038-1.914a6.9,6.9,0,0,0-.48-10.558l-2.278-1.74a1.079,1.079,0,0,0-1.5.174,1,1,0,0,0,.18,1.45l2.278,1.74a5.053,5.053,0,0,1,1.919,3.6,4.82,4.82,0,0,1-1.559,3.771l-2.038,1.914a1.06,1.06,0,0,0,0,1.508C146.085,244.425,146.385,244.541,146.684,244.541Z" transform="translate(-145.014 -229.814)"/>
        </g>
        <g id="XMLID_122_" transform="translate(16.392 21.571)">
          <g id="XMLID_125_">
            <path id="XMLID_126_" class="cls-46" d="M144.778,280.062a1.706,1.706,0,0,0,1.679-1.856l-.6-11.6.779-12.647a1.9,1.9,0,0,0-1.919-1.856c-1.019,0-3.118.812-3.118,1.856l1.2,24.249A2.04,2.04,0,0,0,144.778,280.062Z" transform="translate(-141.6 -252.1)"/>
          </g>
        </g>
        <g id="XMLID_119_" transform="translate(11.776 25.516)">
          <g id="XMLID_120_">
            <path id="XMLID_121_" class="cls-47" d="M135.819,286.862a1.9,1.9,0,0,0,1.919-1.856l-.24-12.415,1.439-11.835c0-.986-2.038-1.856-3.118-1.856a1.9,1.9,0,0,0-1.919,1.856v24.307A1.854,1.854,0,0,0,135.819,286.862Z" transform="translate(-133.9 -258.9)"/>
          </g>
        </g>
        <g id="XMLID_108_" transform="translate(11.613 13.682)">
          <path id="XMLID_118_" class="cls-10" d="M142.9,246.216l.839,5.859a2.109,2.109,0,0,1-1.079,1.8l-4.976,2.669a2,2,0,0,1-3-1.682V243.026c0-.754-1.559-.232-.9-.58l6.955-3.887C142.065,237.8,142.9,244.708,142.9,246.216Z" transform="translate(-133.629 -238.501)"/>
        </g>
        <g id="Group_1345" data-name="Group 1345" class="cls-48" transform="translate(19.015 19.193)">
          <path id="Path_1711" data-name="Path 1711" class="cls-49" d="M146.29,250.379a1.06,1.06,0,0,0,0,1.508,1.071,1.071,0,0,0,.779.348,1.288,1.288,0,0,0,.779-.29l1.2-1.1c0-.29-.06-.58-.06-.7-.06-.7-.12-1.45-.12-2.146-.18.174-.3.348-.48.522Z" transform="translate(-145.975 -248)"/>
        </g>
        <g id="XMLID_106_" transform="translate(11.218 8.214)">
          <path id="XMLID_107_" class="cls-17" d="M143.3,232.86l-.36,5.627c.12,1.218.06,2.437.18,3.6a47.6,47.6,0,0,1,.3,5.8,7.272,7.272,0,0,1-2.938,2.2c-.18.058-.3-3.6-.48-3.539-.12.058-.3,3.887-.42,3.945-2.1.928-4.557,1.508-6.235.7l.18-6.9-.36-4.293c-.24-2.959-.779-6.9,2.218-8.7.12-.058.24-.174.36-.232l3.178-1.682a2.632,2.632,0,0,1,2.458,0h0A3.757,3.757,0,0,1,143.3,232.86Z" transform="translate(-132.97 -229.075)"/>
        </g>
        <g id="XMLID_103_" transform="translate(15.613 4.284)">
          <g id="XMLID_104_" transform="translate(0)">
            <path id="XMLID_105_" class="cls-42" d="M141.379,228.507a1.058,1.058,0,0,0,1.079-1.044v-4.119a1.08,1.08,0,0,0-2.158,0v4.119A1.058,1.058,0,0,0,141.379,228.507Z" transform="translate(-140.3 -222.3)"/>
          </g>
        </g>
        <g id="XMLID_97_" transform="translate(12.315 2.311)">
          <path id="XMLID_98_" class="cls-42" d="M138.337,225.861h1.8V218.9H134.8v3.539A3.487,3.487,0,0,0,138.337,225.861Z" transform="translate(-134.8 -218.9)"/>
        </g>
        <path id="XMLID_96_" class="cls-50" d="M135.12,218.8v3.655a3.425,3.425,0,0,0,3.477,3.365h-.42a3.425,3.425,0,0,1-3.477-3.365V218.8Z" transform="translate(-122.445 -216.547)"/>
        <g id="XMLID_93_" transform="translate(10.876)">
          <path id="Path_1712" data-name="Path 1712" class="cls-45" d="M132.58,215.777a1.137,1.137,0,0,1,1.5-.58c.3.116.48.232.779.058a1.13,1.13,0,0,1,.959-.29c.18,0,.48.174.66.174.42,0,.66-.348,1.139-.174a1.206,1.206,0,0,0,.779.058,1.206,1.206,0,0,1,.779.058c.48.174.48.522.719.87.24.29.6.116.839.348a.791.791,0,0,1,.18.87c-.06.116-.18.29-.12.406a.461.461,0,0,0,.24.232c.3.29.06.7-.18,1.044-.06.058-.06.116-.06.232a.3.3,0,0,0,.12.232.957.957,0,0,1-.12,1.276c-.18.116-.42.232-.42.464,0,.116.06.232.06.348a1.04,1.04,0,0,1-.54,1.16c-.48.232-.06,1.1-.779,1.16-.6.058-1.139-.638-1.259-1.16,0,.058-.36-.116-.42-.174-.12-.116-.12-.348-.18-.464a2.337,2.337,0,0,1-.18-.928c0-.116,0-1.45-.12-1.45a1.825,1.825,0,0,1-.779-.116c-.6-.232-.36-.58-.54-.986-.12-.174-.36-.232-.48-.406a1.1,1.1,0,0,1-.06-.754,2.764,2.764,0,0,1-1.679,0c-.42-.174-.959-.464-1.019-.928C132.46,216.183,132.52,215.951,132.58,215.777Z" transform="translate(-132.4 -214.916)"/>
        </g>
        <path id="XMLID_91_" class="cls-51" d="M132.62,215.88a1.179,1.179,0,0,1,1.259-.7,1.235,1.235,0,0,0-.839.7,1.017,1.017,0,0,0-.12.58c0,.464.6.754,1.019.928a1.16,1.16,0,0,0,.48.116,2.253,2.253,0,0,1-.9-.116c-.42-.174-.959-.464-1.019-.928A2,2,0,0,1,132.62,215.88Z" transform="translate(-121.564 -215.019)"/>
        <g id="XMLID_89_" transform="translate(14.294 4.516)">
          <path id="XMLID_90_" class="cls-42" d="M138.1,223.454a.78.78,0,1,0,.779-.754A.713.713,0,0,0,138.1,223.454Z" transform="translate(-138.1 -222.7)"/>
        </g>
        <g id="XMLID_72_" transform="translate(9.497 51.042)">
          <path id="XMLID_87_" class="cls-5" d="M130.52,304.06l-.42-.174.48-.986c.18,0,.3.058.48.058Z" transform="translate(-130.1 -302.9)"/>
          <path id="XMLID_73_" class="cls-5" d="M131.92,304.376l-.42-.232.54-1.044.48.058Z" transform="translate(-130.661 -302.984)"/>
        </g>
        <g id="Group_1346" data-name="Group 1346" transform="translate(0 3.796)">
          <path id="Path_1713" data-name="Path 1713" class="cls-42" d="M128.313,232.8h0l-5.456-.174a5.279,5.279,0,0,1-4.437-2.611l-4.017-7.02a.961.961,0,0,1,.42-1.392,1.025,1.025,0,0,1,1.439.406l4.017,7.02a3.173,3.173,0,0,0,2.638,1.566l5.456.174a1.02,1.02,0,0,1,1.019,1.1A1,1,0,0,1,128.313,232.8Z" transform="translate(-114.259 -221.459)"/>
        </g>
        <g id="Group_1347" data-name="Group 1347" transform="translate(0.721 5.074)">
          <path id="Path_1714" data-name="Path 1714" class="cls-17" d="M128.795,233.837h0l-5.456-.174a5.622,5.622,0,0,1-4.557-2.669l-3.178-5.627a1.124,1.124,0,0,1,.48-1.566,1.2,1.2,0,0,1,1.619.464l3.178,5.627A3.045,3.045,0,0,0,123.4,231.4l5.456.174a1.145,1.145,0,0,1,1.139,1.218A1.129,1.129,0,0,1,128.795,233.837Z" transform="translate(-115.462 -223.662)"/>
        </g>
        <path id="Path_1715" data-name="Path 1715" class="cls-42" d="M116.7,221.493h0a.27.27,0,0,1-.3-.058l-1.319-2.262a.249.249,0,0,1,.06-.29h0a.27.27,0,0,1,.3.058l1.319,2.262C116.822,221.319,116.822,221.435,116.7,221.493Z" transform="translate(-114.579 -216.571)"/>
      </g>
    </g>
    <g id="Group_1550" data-name="Group 1550" class="cls-52" transform="translate(3680.135 10434.938)">
      <ellipse id="XMLID_646_" class="cls-53" cx="9.866" cy="5.547" rx="9.866" ry="5.547" transform="translate(0 0.533)"/>
      <path id="XMLID_645_" class="cls-29" d="M329.411,102.545h-.772a4.59,4.59,0,0,0-1.268-.96,11.424,11.424,0,0,0-10.032,0,4.81,4.81,0,0,0-1.268.96H315.3v1.813h0a3.441,3.441,0,0,0,2.039,2.827,11.424,11.424,0,0,0,10.032,0,3.273,3.273,0,0,0,2.039-2.827h0v-1.813Z" transform="translate(-312.599 -98.598)"/>
      <path id="XMLID_644_" class="cls-54" d="M317.339,102.04a4.809,4.809,0,0,0-1.268.96H315.3v1.813h0a3.44,3.44,0,0,0,2.039,2.827.2.2,0,0,1,.11.053V105.88l1.378-4.48A6.2,6.2,0,0,0,317.339,102.04Z" transform="translate(-312.599 -99.053)"/>
      <path id="XMLID_643_" class="cls-27" d="M317.317,98.185a11.424,11.424,0,0,1,10.032,0c2.756,1.547,2.756,4.053,0,5.6a11.424,11.424,0,0,1-10.032,0C314.561,102.238,314.561,99.732,317.317,98.185Z" transform="translate(-312.577 -97.012)"/>
      <path id="XMLID_642_" class="cls-55" d="M322.333,97a10.21,10.21,0,0,0-5.016,1.173c-2.756,1.547-2.756,4.053,0,5.6a.194.194,0,0,1,.11.053l4.85-2.24V97Z" transform="translate(-312.577 -97)"/>
      <path id="Path_1416" data-name="Path 1416" class="cls-37" d="M315.333,101.587h7V97a10.211,10.211,0,0,0-5.016,1.173C315.663,99.08,315,100.36,315.333,101.587Z" transform="translate(-312.577 -97)"/>
    </g>
    <g id="Group_1551" data-name="Group 1551" class="cls-52" transform="translate(3695.513 10426.192)">
      <ellipse id="XMLID_641_" class="cls-56" cx="8.323" cy="4.64" rx="8.323" ry="4.64" transform="translate(0 2.827)"/>
      <g id="Group_1322" data-name="Group 1322" transform="translate(0.725)">
        <path id="Path_1417" data-name="Path 1417" class="cls-57" d="M356.8,86.693c0-.16-.276-.32-.606-.32h-1.268c-.22,0-.551.213-.606.16-.11-.107-.055-.213.11-.32l.882-.48c.22-.107-1.268-.053-1.488-.213V84.453a1.108,1.108,0,0,0-.827,0l-.882.48a.935.935,0,0,1-.551.053c-.11-.053-.276-.053-.386-.107-.165-.053-.331-.16-.331-.267V83.92c0-.16-.276-.32-.606-.32H348.2c-.331,0-.606.16-.606.32v.693c0,.107-.11.213-.331.267a1.439,1.439,0,0,0-.386.107.65.65,0,0,1-.551-.053l-.882-.48a1.108,1.108,0,0,0-.827,0l-.11,1.173c-.221.107-1.6,0-1.323.107l.882.48a.211.211,0,0,1,.11.32c-.055.053-.386-.16-.606-.16h-1.268c-.331,0-.606.16-.606.32v1.653c0,.16.276.32.606.32h.717v1.44h0a.286.286,0,0,0,.165.213l1.488.8a1.655,1.655,0,0,0,.5.107h0a.8.8,0,0,0,.331-.107l.882-.48a.935.935,0,0,1,.551-.053c.11.053.276.053.386.107.165.053.331.16.331.267v.693c0,.16.276.32.606.32H350.3c.331,0,.606-.16.606-.32V90.96c0-.107.11-.213.331-.267a.8.8,0,0,0,.331-.107.651.651,0,0,1,.551.053l.882.48c.11.053.22.053.331.107h0a.761.761,0,0,0,.5-.107l1.433-.8c.11-.053.165-.107.165-.213h0v-.053h0v-1.44h.717c.331,0,.606-.16.606-.32Zm-4.685,1.44c-.331,1.013-2.26,1.6-3.913,1.227-1.268-.267-2.095-1.067-1.819-1.813.331-1.013,2.26-1.6,3.913-1.227C351.566,86.587,352.338,87.333,352.118,88.133Z" transform="translate(-341.7 -82)"/>
        <path id="Path_1418" data-name="Path 1418" class="cls-57" d="M356.512,84.167V83.26h-1.323l-.276-.16a1.108,1.108,0,0,0-.827,0l-.276.16h-1.819v-.64c0-.16-.276-.32-.606-.32h-2.039c-.331,0-.606.16-.606.32v.64h-1.984l-.276-.16a1.108,1.108,0,0,0-.827,0l-.276.16H344v.907c0,.107.055.16.165.267l.882.48H355.41l.882-.48c.165-.107.221-.16.221-.267Z" transform="translate(-342.732 -81.393)"/>
        <g id="XMLID_637_" transform="translate(0)">
          <path id="XMLID_638_" class="cls-12" d="M354.6,85.72h1.6c.331,0,.606-.16.606-.32V84.227c0-.16-.276-.32-.606-.32h-1.268c-.22,0-.386-.053-.441-.16a.739.739,0,0,1-.165-.213c-.11-.107-.055-.213.11-.32l.882-.48c.22-.107.22-.32,0-.48l-1.488-.8a1.108,1.108,0,0,0-.827,0l-.882.48a.934.934,0,0,1-.551.053c-.11-.053-.276-.053-.386-.107-.165-.053-.331-.16-.331-.267V80.92c0-.16-.276-.32-.606-.32H348.2c-.331,0-.606.16-.606.32v.693c0,.107-.11.213-.331.267a1.438,1.438,0,0,0-.386.107.65.65,0,0,1-.551-.053l-.882-.48a1.108,1.108,0,0,0-.827,0l-1.433.8c-.22.107-.22.32,0,.48l.882.48a.211.211,0,0,1,.11.32c-.055.053-.11.16-.165.213-.055.107-.276.16-.441.16h-1.268c-.331,0-.606.16-.606.32V85.4c0,.16.276.32.606.32h1.268c.22,0,.386.053.441.16a.739.739,0,0,1,.165.213c.11.107.055.213-.11.32l-.882.48c-.22.107-.22.32,0,.48l1.488.8a1.108,1.108,0,0,0,.827,0l.882-.48a.935.935,0,0,1,.551-.053c.11.053.276.053.386.107.165.053.331.16.331.267v.693c0,.16.276.32.606.32H350.3c.331,0,.606-.16.606-.32v-.693c0-.107.11-.213.331-.267a.8.8,0,0,0,.331-.107.65.65,0,0,1,.551.053l.882.48a1.108,1.108,0,0,0,.827,0l1.433-.8c.22-.107.22-.32,0-.48l-.882-.48a.211.211,0,0,1-.11-.32C354.433,85.933,354.543,85.72,354.6,85.72Zm-8.268-1.173c.331-1.013,2.26-1.6,3.914-1.227,1.268.267,2.095,1.067,1.819,1.813-.331,1.013-2.26,1.6-3.913,1.227C346.881,86.093,346.11,85.293,346.33,84.547Z" transform="translate(-341.7 -80.6)"/>
        </g>
      </g>
    </g>
  </g>
</svg>
