<svg xmlns="http://www.w3.org/2000/svg" viewBox="0 0 801.4 514.503">
  <defs>
    <style>
      .cls-1 {
        fill: #fbd865;
      }

      .cls-2 {
        fill: #f0544a;
      }

      .cls-2, .cls-3 {
        stroke: #050606;
        stroke-width: 3px;
      }

      .cls-2, .cls-3, .cls-8 {
        stroke-miterlimit: 10;
      }

      .cls-3 {
        fill: #c93231;
      }

      .cls-4 {
        fill: #f59596;
      }

      .cls-5 {
        fill: #94a4a4;
      }

      .cls-6 {
        fill: #e54d3d;
      }

      .cls-7 {
        fill: #2d3033;
      }

      .cls-8 {
        fill: #f8b54d;
        stroke: #303030;
        stroke-width: 2px;
      }

      .cls-9 {
        fill: #82c341;
      }

      .cls-10 {
        fill: #66b345;
      }

      .cls-11 {
        fill: #589c43;
      }

      .cls-12 {
        fill: #50883e;
      }

      .cls-13 {
        fill: #ffdb7b;
      }

      .cls-14 {
        fill: #81d0e0;
      }

      .cls-15 {
        fill: #595a5c;
      }

      .cls-16 {
        fill: #afb7bc;
      }

      .cls-17 {
        fill: #fbad45;
      }

      .cls-18 {
        fill: #ffd248;
      }

      .cls-19 {
        fill: #010101;
      }

      .cls-20 {
        fill: #333;
        font-size: 30px;
        font-family: Lato-Bold, Lato;
        font-weight: 700;
      }
    </style>
  </defs>
  <g id="Group_2233" data-name="Group 2233" transform="translate(1256 -2378)">
    <g id="Group_2228" data-name="Group 2228" transform="translate(0.4)">
      <circle id="Ellipse_485" data-name="Ellipse 485" class="cls-1" cx="84.7" cy="84.7" r="84.7" transform="translate(-1101.4 2378)"/>
      <path id="Path_3581" data-name="Path 3581" class="cls-2" d="M211.9,45.4c10.7,0,20,5.9,23.3,15a2.337,2.337,0,0,0,2.5,1.2,2.059,2.059,0,0,0,2.5-1.2c3.3-8.9,12.7-15,23.3-15C277,45.4,288,55.1,288,67a20.162,20.162,0,0,1-4.3,12.2v.2l-.2.2-45.8,54.1L191.9,79.5l-.2-.2h0a19.523,19.523,0,0,1-4.3-12.2C187.5,55.1,198.5,45.4,211.9,45.4Z" transform="translate(-1256 2378)"/>
      <path id="Path_3582" data-name="Path 3582" class="cls-3" d="M237.7,61.4a2.059,2.059,0,0,0,2.5-1.2c3.3-8.9,12.7-15,23.3-15C277,45.3,288,55,288,66.8A20.162,20.162,0,0,1,283.7,79v.2l-.2.2-45.8,54.2" transform="translate(-1256 2378)"/>
      <path id="Path_3583" data-name="Path 3583" class="cls-4" d="M195.2,71.4a2.611,2.611,0,0,1-2.5-2.5c0-10.2,9.2-18.4,20.5-18.4a2.5,2.5,0,0,1,0,5c-8.5,0-15.6,6.1-15.6,13.5A2.369,2.369,0,0,1,195.2,71.4Z" transform="translate(-1256 2378)"/>
    </g>
    <g id="Group_2229" data-name="Group 2229" transform="translate(-0.1)">
      <circle id="Ellipse_486" data-name="Ellipse 486" class="cls-1" cx="84.7" cy="84.7" r="84.7" transform="translate(-802.9 2378)"/>
      <g id="Group_2222" data-name="Group 2222" transform="translate(-1256 2378)">
        <g id="Group_2221" data-name="Group 2221">
          <path id="XMLID_2_" class="cls-5" d="M585.8,118.6v-4.9a3.676,3.676,0,0,0-1.3-2.7,56.987,56.987,0,0,0-10.3-6.6c-.1-.1-.2-.2-.2-.3V97.2a3.189,3.189,0,0,0,1.4-2.7V87.3a6.487,6.487,0,0,0-6.5-6.5h-1.6a6.487,6.487,0,0,0-6.5,6.5v7.2a3.454,3.454,0,0,0,1.4,2.7v7c0,.1-.1.2-.2.3a56.987,56.987,0,0,0-10.3,6.6,3.515,3.515,0,0,0-1.3,2.7v4.9"/>
          <path id="XMLID_1_" class="cls-6" d="M526,118.6v-4.9a3.676,3.676,0,0,0-1.3-2.7,56.987,56.987,0,0,0-10.3-6.6c-.1-.1-.2-.2-.2-.3V97.2a3.189,3.189,0,0,0,1.4-2.7V87.3a6.487,6.487,0,0,0-6.5-6.5h-1.6a6.487,6.487,0,0,0-6.5,6.5v7.2a3.454,3.454,0,0,0,1.4,2.7v7c0,.1-.1.2-.2.3a56.987,56.987,0,0,0-10.3,6.6,3.515,3.515,0,0,0-1.3,2.7v4.9"/>
          <path id="Path_3584" data-name="Path 3584" class="cls-7" d="M538.6,75a1.793,1.793,0,0,0-1.8,1.8V88.3l-10,5.8a1.816,1.816,0,0,0-.7,2.5,1.7,1.7,0,0,0,1.6.9,2.92,2.92,0,0,0,.9-.2l10-5.8,10,5.8a1.486,1.486,0,0,0,.9.2,1.921,1.921,0,0,0,1.6-.9,1.816,1.816,0,0,0-.7-2.5l-10-5.8V76.9A1.88,1.88,0,0,0,538.6,75Z"/>
          <path id="Path_3585" data-name="Path 3585" class="cls-7" d="M530.7,57.7a59.091,59.091,0,0,0-9.8,6.4,5.327,5.327,0,0,0-1.9,4.1v4.9a1.8,1.8,0,1,0,3.6,0V68.2a1.613,1.613,0,0,1,.6-1.3,63.326,63.326,0,0,1,9.9-6.4,2.241,2.241,0,0,0,1.2-1.9V51.7a1.763,1.763,0,0,0-.8-1.5,1.425,1.425,0,0,1-.6-1.2V41.8a4.7,4.7,0,0,1,4.7-4.7h1.5a4.7,4.7,0,0,1,4.7,4.7V49a1.426,1.426,0,0,1-.6,1.2,1.763,1.763,0,0,0-.8,1.5v7a2.121,2.121,0,0,0,1.2,1.9,50.537,50.537,0,0,1,9.9,6.4,1.612,1.612,0,0,1,.6,1.3v4.9a1.8,1.8,0,1,0,3.6,0V68.3a5.327,5.327,0,0,0-1.9-4.1,61.671,61.671,0,0,0-9.8-6.4V52.6a5,5,0,0,0,1.4-3.5V41.9a8.28,8.28,0,0,0-8.3-8.3h-1.5a8.28,8.28,0,0,0-8.3,8.3V49a5,5,0,0,0,1.4,3.5v5.2Z"/>
          <path id="Path_3586" data-name="Path 3586" class="cls-7" d="M507.8,82.5h1.5a4.7,4.7,0,0,1,4.7,4.7v7.2a1.426,1.426,0,0,1-.6,1.2,1.763,1.763,0,0,0-.8,1.5v7a2.121,2.121,0,0,0,1.2,1.9,50.537,50.537,0,0,1,9.9,6.4,1.612,1.612,0,0,1,.6,1.3v4.9a1.8,1.8,0,1,0,3.6,0v-4.9a5.327,5.327,0,0,0-1.9-4.1,61.671,61.671,0,0,0-9.8-6.4V98a5,5,0,0,0,1.4-3.5V87.3a8.28,8.28,0,0,0-8.3-8.3h-1.5a8.28,8.28,0,0,0-8.3,8.3v7.2a5,5,0,0,0,1.4,3.5v5.2a59.093,59.093,0,0,0-9.8,6.4,5.327,5.327,0,0,0-1.9,4.1v4.9a1.8,1.8,0,1,0,3.6,0v-4.9a1.612,1.612,0,0,1,.6-1.3,63.328,63.328,0,0,1,9.9-6.4,2.241,2.241,0,0,0,1.2-1.9V97.2a1.763,1.763,0,0,0-.8-1.5,1.426,1.426,0,0,1-.6-1.2V87.3A4.717,4.717,0,0,1,507.8,82.5Z"/>
          <path id="Path_3587" data-name="Path 3587" class="cls-7" d="M550.8,109.5a5.327,5.327,0,0,0-1.9,4.1v4.9a1.8,1.8,0,1,0,3.6,0v-4.9a1.613,1.613,0,0,1,.6-1.3,63.326,63.326,0,0,1,9.9-6.4,2.241,2.241,0,0,0,1.2-1.9V97.1a1.763,1.763,0,0,0-.8-1.5,1.425,1.425,0,0,1-.6-1.2V87.2a4.7,4.7,0,0,1,4.7-4.7H569a4.7,4.7,0,0,1,4.7,4.7v7.2a1.426,1.426,0,0,1-.6,1.2,1.763,1.763,0,0,0-.8,1.5v7a2.121,2.121,0,0,0,1.2,1.9,50.537,50.537,0,0,1,9.9,6.4,1.612,1.612,0,0,1,.6,1.3v4.9a1.8,1.8,0,1,0,3.6,0v-4.9a5.327,5.327,0,0,0-1.9-4.1,61.671,61.671,0,0,0-9.8-6.4V98a5,5,0,0,0,1.4-3.5V87.3A8.28,8.28,0,0,0,569,79h-1.5a8.28,8.28,0,0,0-8.3,8.3v7.2a5,5,0,0,0,1.4,3.5v5.2A61.126,61.126,0,0,0,550.8,109.5Z"/>
        </g>
      </g>
    </g>
    <g id="Group_2231" data-name="Group 2231" transform="translate(0.5)">
      <circle id="Ellipse_488" data-name="Ellipse 488" class="cls-1" cx="84.7" cy="84.7" r="84.7" transform="translate(-942.5 2670)"/>
      <path id="Path_3588" data-name="Path 3588" class="cls-8" d="M451,365h-5.4a46.808,46.808,0,0,0-6.9-16.6l3.8-3.8a5.011,5.011,0,0,0,0-7l-6.3-6.3a5.011,5.011,0,0,0-7,0l-3.8,3.8a47.109,47.109,0,0,0-16.6-6.9v-5.4a5.015,5.015,0,0,0-5-5h-9a5.015,5.015,0,0,0-5,5v5.4a46.808,46.808,0,0,0-16.6,6.9l-3.8-3.8a5.011,5.011,0,0,0-7,0l-6.3,6.3a5.011,5.011,0,0,0,0,7l3.8,3.8A47.109,47.109,0,0,0,353,365h-5.4a5.015,5.015,0,0,0-5,5v9a5.015,5.015,0,0,0,5,5H353a46.808,46.808,0,0,0,6.9,16.6l-3.8,3.8a5.011,5.011,0,0,0,0,7l6.3,6.3a5.011,5.011,0,0,0,7,0l3.8-3.8a47.109,47.109,0,0,0,16.6,6.9v5.4a5.015,5.015,0,0,0,5,5h9a5.015,5.015,0,0,0,5-5v-5.4a46.808,46.808,0,0,0,16.6-6.9l3.8,3.8a5.011,5.011,0,0,0,7,0l6.3-6.3a5.011,5.011,0,0,0,0-7l-3.8-3.8a47.109,47.109,0,0,0,6.9-16.6H451a5.015,5.015,0,0,0,5-5v-9A4.951,4.951,0,0,0,451,365Zm-51.6,42.4a33,33,0,1,1,33-33A33.033,33.033,0,0,1,399.4,407.4Z" transform="translate(-1256 2378)"/>
      <path id="Path_3589" data-name="Path 3589" class="cls-9" d="M399.4,394.4l-7.3-7.3a22.754,22.754,0,0,1,0-32.2l7.3-7.3,7.3,7.3a22.754,22.754,0,0,1,0,32.2Z" transform="translate(-1256 2378)"/>
      <path id="Path_3590" data-name="Path 3590" class="cls-10" d="M406.7,354.9l-7.3-7.3-.2.2v46.5l.2.2,7.3-7.3A22.875,22.875,0,0,0,406.7,354.9Z" transform="translate(-1256 2378)"/>
      <path id="Path_3591" data-name="Path 3591" class="cls-11" d="M399.4,402.6a1.752,1.752,0,0,1-1.7-1.7V365.6a1.7,1.7,0,0,1,3.4,0v35.3A1.686,1.686,0,0,1,399.4,402.6Z" transform="translate(-1256 2378)"/>
      <path id="Path_3592" data-name="Path 3592" class="cls-12" d="M399.4,363.8h-.2v38.7h.2a1.752,1.752,0,0,0,1.7-1.7V365.5A1.686,1.686,0,0,0,399.4,363.8Z" transform="translate(-1256 2378)"/>
    </g>
    <g id="Group_2230" data-name="Group 2230" transform="translate(0.5)">
      <circle id="Ellipse_489" data-name="Ellipse 489" class="cls-1" cx="84.7" cy="84.7" r="84.7" transform="translate(-624.5 2670)"/>
      <rect id="Rectangle_2538" data-name="Rectangle 2538" class="cls-13" width="23.5" height="7.8" transform="translate(-551.9 2774.9)"/>
      <g id="Group_2223" data-name="Group 2223" transform="translate(-1268 2378)">
        <path id="Path_3593" data-name="Path 3593" class="cls-14" d="M765.4,422.2v9.3H689.1a4.6,4.6,0,0,1,0-9.2h55V414H701.7a4.6,4.6,0,0,1,0-9.2h42.4V379.9a21.334,21.334,0,0,0-6.3-15.2l-1.2-1.2,8.5-8.5,1.2,1.2a33.274,33.274,0,0,1,9.8,23.7v42.3Z"/>
        <path id="Path_3594" data-name="Path 3594" class="cls-14" d="M748.9,351.3l-12.2,12.3L725,375.3l-4.2-4.2-7-7-4.2-4.2,24-23.9Z"/>
      </g>
      <g id="Group_2224" data-name="Group 2224" transform="translate(-1256 2378)">
        <path id="Path_3595" data-name="Path 3595" class="cls-13" d="M758.6,346.9l-7.1,7.1-2.6-2.7L733.6,336l-2.7-2.6,7.1-7.1Z"/>
        <rect id="Rectangle_2539" data-name="Rectangle 2539" class="cls-13" width="9.9" height="9.9" transform="translate(706.697 371.087) rotate(-45)"/>
      </g>
      <path id="Path_3596" data-name="Path 3596" class="cls-15" d="M764.6,417.4H758V377.7a35.7,35.7,0,0,0-9.9-24.8l.1-.1.8.8a2.535,2.535,0,0,0,3.6,0l7-7a2.535,2.535,0,0,0,0-3.6L739,322.3a2.535,2.535,0,0,0-3.6,0l-7,7a2.535,2.535,0,0,0,0,3.6l.8.8L707,355.9a2.535,2.535,0,0,0,0,3.6l2.3,2.3-5.2,5.2a2.535,2.535,0,0,0,0,3.6l7,7a2.535,2.535,0,0,0,3.6,0l5.2-5.2,2.3,2.3a2.535,2.535,0,0,0,3.6,0l9.9-9.9a18.533,18.533,0,0,1,4.9,12.7v22.3H729.2v-5.3a2.647,2.647,0,0,0-2.6-2.6H703.1a2.647,2.647,0,0,0-2.6,2.6v5.3a7.2,7.2,0,0,0,.2,14.4h39.9v3H688.1a7.2,7.2,0,1,0,0,14.4h76.3A2.647,2.647,0,0,0,767,429v-9.3A2.177,2.177,0,0,0,764.6,417.4Zm-27.4-89.7,17,16.9-3.4,3.4-16.9-16.9ZM713,372.3l-3.4-3.4,3.4-3.4,3.4,3.4Zm11.2-2.9-11.7-11.7,20.3-20.3,11.7,11.7Zm0,27.9V400H705.9v-2.7Zm37.9,29.3H688.4a2.051,2.051,0,0,1-2.1-2.1,2.112,2.112,0,0,1,2.1-2.1h55a2.647,2.647,0,0,0,2.6-2.6v-8.2a2.647,2.647,0,0,0-2.6-2.6H701a2.1,2.1,0,0,1,0-4.2h42.4a2.647,2.647,0,0,0,2.6-2.6V377.3a23.865,23.865,0,0,0-6.4-16.3l4.9-4.9a30.641,30.641,0,0,1,8.4,21.2v42.3a2.647,2.647,0,0,0,2.6,2.6h6.7l-.1,4.4Z" transform="translate(-1267 2378)"/>
    </g>
    <g id="Group_2232" data-name="Group 2232">
      <circle id="Ellipse_487" data-name="Ellipse 487" class="cls-1" cx="84.7" cy="84.7" r="84.7" transform="translate(-1256 2668)"/>
      <g id="Group_2226" data-name="Group 2226" transform="translate(-1256 2378)">
        <g id="Group_2225" data-name="Group 2225">
          <path id="Path_3597" data-name="Path 3597" class="cls-16" d="M70.2,371h1a13.4,13.4,0,0,1-26.8,0H70.2Z"/>
          <path id="Path_3598" data-name="Path 3598" class="cls-16" d="M121.5,371h1a13.4,13.4,0,0,1-26.8,0h25.8Z"/>
        </g>
        <path id="Path_3599" data-name="Path 3599" class="cls-17" d="M107.2,411v8.2H59.9V411a2.112,2.112,0,0,1,2.1-2.1h43.2A2.248,2.248,0,0,1,107.2,411Z"/>
        <path id="Path_3600" data-name="Path 3600" class="cls-18" d="M90.7,329.9a7.387,7.387,0,0,1-1.3,4.1h30v8.2H87.6V409H79.4V342.2H47.6V334h30a7.387,7.387,0,0,1-1.3-4.1,7.2,7.2,0,1,1,14.4,0Z"/>
        <path id="Path_3601" data-name="Path 3601" class="cls-19" d="M122.5,369.4l-11-25.7H121V332.4H91.9a7.457,7.457,0,0,0,.4-2.6,8.7,8.7,0,1,0-17.4,0,7.834,7.834,0,0,0,.4,2.6H46v11.3h9.5l-11,25.7H43v1.5a14.9,14.9,0,0,0,29.8,0v-1.5H71.2l-11-25.7H77.9v63.7H62a3.585,3.585,0,0,0-3.6,3.6v9.8h50.3V411a3.585,3.585,0,0,0-3.6-3.6H89.2V343.7h17.7l-11,25.7H94.3v1.5a14.9,14.9,0,0,0,29.8,0v-1.5ZM57.9,382.8a11.783,11.783,0,0,1-11.7-10.3H56.4v4.6h3.1v-4.6H69.7A12.115,12.115,0,0,1,57.9,382.8Zm-10-13.4,10-23.3,10,23.3Zm57.2,41.1a.472.472,0,0,1,.5.5v6.7H61.5V411a.472.472,0,0,1,.5-.5Zm-19-69.8v66.8H81V340.7H49.1v-5.1H80.5l-1.6-2.4a5.5,5.5,0,0,1-1-3.2,5.6,5.6,0,1,1,11.2,0,6.044,6.044,0,0,1-1,3.2l-1.6,2.4h31.4v5.1Zm23.1,5.4,10,23.3h-20Zm0,36.7a11.783,11.783,0,0,1-11.7-10.3h10.2v4.6h3.1v-4.6H121A11.959,11.959,0,0,1,109.2,382.8Z"/>
        <rect id="Rectangle_2540" data-name="Rectangle 2540" class="cls-19" width="4.1" height="3.1" transform="translate(81.5 328.3)"/>
      </g>
    </g>
    <text id="Empathy" class="cls-20" transform="translate(-951 2597.503)"><tspan x="-119.235" y="0">Empathy</tspan></text>
    <text id="Integrity" class="cls-20" transform="translate(-653 2597.503)"><tspan x="-117.645" y="0">Integrity</tspan></text>
    <text id="Balance" class="cls-20" transform="translate(-1112 2886.503)"><tspan x="-106.485" y="0">Balance</tspan></text>
    <text id="Innovation" class="cls-20" transform="translate(-783 2886.503)"><tspan x="-145.65" y="0">Innovation</tspan></text>
    <text id="Minutia" class="cls-20" transform="translate(-475 2886.503)"><tspan x="-105.585" y="0">Minutia</tspan></text>
  </g>
</svg>
