<svg xmlns="http://www.w3.org/2000/svg" viewBox="0 0 184 184">
  <defs>
    <style>
      .cls-1, .cls-4 {
        fill: none;
      }

      .cls-1 {
        stroke: #f47b3b;
        stroke-width: 4px;
        stroke-dasharray: 6;
      }

      .cls-2 {
        fill: #f47b3b;
      }

      .cls-3 {
        stroke: none;
      }
    </style>
  </defs>
  <g id="result" transform="translate(-95 -1600)">
    <g id="Ellipse_465" data-name="Ellipse 465" class="cls-1" transform="translate(95 1600)">
      <circle class="cls-3" cx="92" cy="92" r="92"/>
      <circle class="cls-4" cx="92" cy="92" r="90"/>
    </g>
    <g id="Group_1929" data-name="Group 1929" transform="translate(158.288 1633.585)">
      <path id="Path_3437" data-name="Path 3437" class="cls-2" d="M49.667,0H8.6A8.536,8.536,0,0,0,0,8.477V107.1a8.766,8.766,0,0,0,8.6,8.835H49.667a8.568,8.568,0,0,0,8.358-8.835V8.477A8.408,8.408,0,0,0,49.667,0ZM25.073,5.97h7.761a1.07,1.07,0,0,1,1.075,1.075A.975.975,0,0,1,32.833,8H25.073A1.07,1.07,0,0,1,24,6.925.975.975,0,0,1,25.073,5.97Zm4.059,106.14a4.537,4.537,0,1,1,4.537-4.537A4.535,4.535,0,0,1,29.132,112.11ZM53.369,99.335H4.656a.514.514,0,0,1-.478-.478V13.73a.514.514,0,0,1,.478-.478H53.369a.514.514,0,0,1,.478.478V98.857A.514.514,0,0,1,53.369,99.335Z" transform="translate(0 0)"/>
      <path id="Path_3438" data-name="Path 3438" class="cls-2" d="M28.026,29.8A22.386,22.386,0,1,0,50.353,52.246,22.318,22.318,0,0,0,28.026,29.8ZM39.488,46.037,25.161,60.484h0a1.908,1.908,0,0,1-1.194.6,2.516,2.516,0,0,1-1.313-.6l-5.97-5.97a.542.542,0,0,1,0-.6l1.91-1.91a.6.6,0,0,1,.716,0l4.776,4.776L37.22,43.53a.6.6,0,0,1,.716,0l1.91,1.91c-.239.119-.239.358-.358.6Z" transform="translate(1.105 5.779)"/>
    </g>
  </g>
</svg>
